999
dxflib 2.2.0.0
  0
SECTION
  2
HEADER
  9
$ACADVER
  1
AC1015
  9
$HANDSEED
  5
FFFF
  9
$SPLINESEGS
 70
8
  9
$DIMEXE
 40
1.25
  9
$PSVPSCALE
 40
1.0
  9
$DIMAZIN
 70
8
  9
$DIMZIN
 70
8
  9
$DIMLUNIT
 70
2
  9
$GRIDMODE
 70
1
  9
$INSUNITS
 70
4
  9
$DIMADEC
 70
2
  9
$DIMASZ
 40
2.5
  9
$DIMGAP
 40
0.625
  9
$DIMTXT
 40
2.5
  9
$GRIDUNIT
 10
0.0
 20
0.0
  9
$DIMEXO
 40
0.625
  9
$LUPREC
 70
1
  9
$CLAYER
  8
0
  9
$PINSBASE
 10
4452.018902190303379
 20
16.8210961087665822
 30
0.0
  9
$DIMAUNIT
 70
0
  9
$AUPREC
 70
2
  9
$PLIMMIN
 10
0.0
 20
0.0
  9
$LUNITS
 70
2
  9
$PLIMMAX
 10
210.0
 20
297.0
  9
$DIMSTYLE
  2
Standard
  9
$AUNITS
 70
0
  9
$CLAYER
  8
0
  0
ENDSEC
  0
SECTION
  2
TABLES
  0
TABLE
  2
VPORT
  5
8
100
AcDbSymbolTable
 70
1
  0
VPORT
  5
30
100
AcDbSymbolTableRecord
100
AcDbViewportTableRecord
  2
*Active
 70
0
 10
0.0
 20
0.0
 11
1.0
 21
1.0
 12
286.3055555555554861
 22
148.5
 13
0.0
 23
0.0
 14
10.0
 24
10.0
 15
10.0
 25
10.0
 16
0.0
 26
0.0
 36
1.0
 17
0.0
 27
0.0
 37
0.0
 40
297.0
 41
1.92798353909465
 42
50.0
 43
0.0
 44
0.0
 50
0.0
 51
0.0
 71
0
 72
100
 73
1
 74
3
 75
1
 76
1
 77
0
 78
0
281
0
 65
1
110
0.0
120
0.0
130
0.0
111
1.0
121
0.0
131
0.0
112
0.0
122
1.0
132
0.0
 79
0
146
0.0
  0
ENDTAB
  0
TABLE
  2
LTYPE
  5
5
100
AcDbSymbolTable
 70
21
  0
LTYPE
  5
14
100
AcDbSymbolTableRecord
100
AcDbLinetypeTableRecord
  2
ByBlock
 70
0
  3

 72
65
 73
0
 40
0.0
  0
LTYPE
  5
15
100
AcDbSymbolTableRecord
100
AcDbLinetypeTableRecord
  2
ByLayer
 70
0
  3

 72
65
 73
0
 40
0.0
  0
LTYPE
  5
16
100
AcDbSymbolTableRecord
100
AcDbLinetypeTableRecord
  2
CONTINUOUS
 70
0
  3
Solid line
 72
65
 73
0
 40
0.0
  0
LTYPE
  5
31
100
AcDbSymbolTableRecord
100
AcDbLinetypeTableRecord
  2
DOT
 70
0
  3
Dot . . . . . . . . . . . . . . . . . . . . . .
 72
65
 73
2
 40
6.3499999999999996
 49
0.0
 74
0
 49
-6.3499999999999996
 74
0
  0
LTYPE
  5
32
100
AcDbSymbolTableRecord
100
AcDbLinetypeTableRecord
  2
DOT2
 70
0
  3
Dot (.5x) .....................................
 72
65
 73
2
 40
3.1749999999999998
 49
0.0
 74
0
 49
-3.1749999999999998
 74
0
  0
LTYPE
  5
33
100
AcDbSymbolTableRecord
100
AcDbLinetypeTableRecord
  2
DOTX2
 70
0
  3
Dot (2x) .  .  .  .  .  .  .  .  .  .  .  .  .
 72
65
 73
2
 40
12.6999999999999993
 49
0.0
 74
0
 49
-12.6999999999999993
 74
0
  0
LTYPE
  5
34
100
AcDbSymbolTableRecord
100
AcDbLinetypeTableRecord
  2
DASHED
 70
0
  3
Dashed __ __ __ __ __ __ __ __ __ __ __ __ __ _
 72
65
 73
2
 40
19.0500000000000007
 49
12.6999999999999993
 74
0
 49
-6.3499999999999996
 74
0
  0
LTYPE
  5
35
100
AcDbSymbolTableRecord
100
AcDbLinetypeTableRecord
  2
DASHED2
 70
0
  3
Dashed (.5x) _ _ _ _ _ _ _ _ _ _ _ _ _ _ _ _ _
 72
65
 73
2
 40
9.5250000000000004
 49
6.3499999999999996
 74
0
 49
-3.1749999999999998
 74
0
  0
LTYPE
  5
36
100
AcDbSymbolTableRecord
100
AcDbLinetypeTableRecord
  2
DASHEDX2
 70
0
  3
Dashed (2x) ____  ____  ____  ____  ____  ___
 72
65
 73
2
 40
38.1000000000000014
 49
25.3999999999999986
 74
0
 49
-12.6999999999999993
 74
0
  0
LTYPE
  5
37
100
AcDbSymbolTableRecord
100
AcDbLinetypeTableRecord
  2
DASHDOT
 70
0
  3
Dash dot __ . __ . __ . __ . __ . __ . __ . __
 72
65
 73
4
 40
25.3999999999999986
 49
12.6999999999999993
 74
0
 49
-6.3499999999999996
 74
0
 49
0.0
 74
0
 49
-6.3499999999999996
 74
0
  0
LTYPE
  5
38
100
AcDbSymbolTableRecord
100
AcDbLinetypeTableRecord
  2
DASHDOT2
 70
0
  3
Dash dot (.5x) _._._._._._._._._._._._._._._.
 72
65
 73
4
 40
12.6999999999999993
 49
6.3499999999999996
 74
0
 49
-3.1749999999999998
 74
0
 49
0.0
 74
0
 49
-3.1749999999999998
 74
0
  0
LTYPE
  5
39
100
AcDbSymbolTableRecord
100
AcDbLinetypeTableRecord
  2
DASHDOTX2
 70
0
  3
Dash dot (2x) ____  .  ____  .  ____  .  ___
 72
65
 73
4
 40
50.7999999999999972
 49
25.3999999999999986
 74
0
 49
-12.6999999999999993
 74
0
 49
0.0
 74
0
 49
-12.6999999999999993
 74
0
  0
LTYPE
  5
3A
100
AcDbSymbolTableRecord
100
AcDbLinetypeTableRecord
  2
DIVIDE
 70
0
  3
Divide ____ . . ____ . . ____ . . ____ . . ____
 72
65
 73
6
 40
31.75
 49
12.6999999999999993
 74
0
 49
-6.3499999999999996
 74
0
 49
0.0
 74
0
 49
-6.3499999999999996
 74
0
 49
0.0
 74
0
 49
-6.3499999999999996
 74
0
  0
LTYPE
  5
3B
100
AcDbSymbolTableRecord
100
AcDbLinetypeTableRecord
  2
DIVIDE2
 70
0
  3
Divide (.5x) __..__..__..__..__..__..__..__.._
 72
65
 73
6
 40
15.875
 49
6.3499999999999996
 74
0
 49
-3.1749999999999998
 74
0
 49
0.0
 74
0
 49
-3.1749999999999998
 74
0
 49
0.0
 74
0
 49
-3.1749999999999998
 74
0
  0
LTYPE
  5
3C
100
AcDbSymbolTableRecord
100
AcDbLinetypeTableRecord
  2
DIVIDEX2
 70
0
  3
Divide (2x) ________  .  .  ________  .  .  _
 72
65
 73
6
 40
63.5
 49
25.3999999999999986
 74
0
 49
-12.6999999999999993
 74
0
 49
0.0
 74
0
 49
-12.6999999999999993
 74
0
 49
0.0
 74
0
 49
-12.6999999999999993
 74
0
  0
LTYPE
  5
3D
100
AcDbSymbolTableRecord
100
AcDbLinetypeTableRecord
  2
CENTER
 70
0
  3
Center ____ _ ____ _ ____ _ ____ _ ____ _ ____
 72
65
 73
4
 40
50.7999999999999972
 49
31.75
 74
0
 49
-6.3499999999999996
 74
0
 49
6.3499999999999996
 74
0
 49
-6.3499999999999996
 74
0
  0
LTYPE
  5
3E
100
AcDbSymbolTableRecord
100
AcDbLinetypeTableRecord
  2
CENTER2
 70
0
  3
Center (.5x) ___ _ ___ _ ___ _ ___ _ ___ _ ___
 72
65
 73
4
 40
28.5749999999999993
 49
19.0500000000000007
 74
0
 49
-3.1749999999999998
 74
0
 49
3.1749999999999998
 74
0
 49
-3.1749999999999998
 74
0
  0
LTYPE
  5
3F
100
AcDbSymbolTableRecord
100
AcDbLinetypeTableRecord
  2
CENTERX2
 70
0
  3
Center (2x) ________  __  ________  __  _____
 72
65
 73
4
 40
101.5999999999999943
 49
63.5
 74
0
 49
-12.6999999999999993
 74
0
 49
12.6999999999999993
 74
0
 49
-12.6999999999999993
 74
0
  0
LTYPE
  5
40
100
AcDbSymbolTableRecord
100
AcDbLinetypeTableRecord
  2
BORDER
 70
0
  3
Border __ __ . __ __ . __ __ . __ __ . __ __ .
 72
65
 73
6
 40
44.4500000000000028
 49
12.6999999999999993
 74
0
 49
-6.3499999999999996
 74
0
 49
12.6999999999999993
 74
0
 49
-6.3499999999999996
 74
0
 49
0.0
 74
0
 49
-6.3499999999999996
 74
0
  0
LTYPE
  5
41
100
AcDbSymbolTableRecord
100
AcDbLinetypeTableRecord
  2
BORDER2
 70
0
  3
Border (.5x) __.__.__.__.__.__.__.__.__.__.__.
 72
65
 73
6
 40
22.2250000000000014
 49
6.3499999999999996
 74
0
 49
-3.1749999999999998
 74
0
 49
6.3499999999999996
 74
0
 49
-3.1749999999999998
 74
0
 49
0.0
 74
0
 49
-3.1749999999999998
 74
0
  0
LTYPE
  5
42
100
AcDbSymbolTableRecord
100
AcDbLinetypeTableRecord
  2
BORDERX2
 70
0
  3
Border (2x) ____  ____  .  ____  ____  .  ___
 72
65
 73
6
 40
88.9000000000000057
 49
25.3999999999999986
 74
0
 49
-12.6999999999999993
 74
0
 49
25.3999999999999986
 74
0
 49
-12.6999999999999993
 74
0
 49
0.0
 74
0
 49
-12.6999999999999993
 74
0
  0
ENDTAB
  0
TABLE
  2
LAYER
  5
2
100
AcDbSymbolTable
 70
5
  0
LAYER
  5
10
100
AcDbSymbolTableRecord
100
AcDbLayerTableRecord
  2
0
 70
0
 62
7
420
0
  6
CONTINUOUS
370
0
390
F
  0
LAYER
  5
43
100
AcDbSymbolTableRecord
100
AcDbLayerTableRecord
  2
motor
 70
0
 62
6
420
16711935
  6
CONTINUOUS
370
0
390
F
  0
LAYER
  5
44
100
AcDbSymbolTableRecord
100
AcDbLayerTableRecord
  2
dimensions
 70
0
 62
4
420
65535
  6
CONTINUOUS
370
0
390
F
  0
LAYER
  5
45
100
AcDbSymbolTableRecord
100
AcDbLayerTableRecord
  2
help
 70
0
 62
8
420
8421504
  6
CONTINUOUS
370
0
390
F
  0
LAYER
  5
46
100
AcDbSymbolTableRecord
100
AcDbLayerTableRecord
  2
text
 70
0
 62
2
420
16776960
  6
CONTINUOUS
370
0
390
F
  0
ENDTAB
  0
TABLE
  2
STYLE
  5
3
100
AcDbSymbolTable
 70
1
  0
STYLE
  5
11
100
AcDbSymbolTableRecord
100
AcDbTextStyleTableRecord
  2
Standard
 70
0
 40
0.0
 41
0.75
 50
0.0
 71
0
 42
2.5
  3
txt
  4

  0
ENDTAB
  0
TABLE
  2
VIEW
  5
6
100
AcDbSymbolTable
 70
0
  0
ENDTAB
  0
TABLE
  2
UCS
  5
7
100
AcDbSymbolTable
 70
0
  0
ENDTAB
  0
TABLE
  2
APPID
  5
9
100
AcDbSymbolTable
 70
1
  0
APPID
  5
12
100
AcDbSymbolTableRecord
100
AcDbRegAppTableRecord
  2
ACAD
 70
0
  0
ENDTAB
  0
TABLE
  2
DIMSTYLE
  5
A
100
AcDbSymbolTable
 70
1
100
AcDbDimStyleTable
 71
0
  0
DIMSTYLE
105
27
100
AcDbSymbolTableRecord
100
AcDbDimStyleTableRecord
  2
Standard
 41
2.5
 42
0.625
 43
3.75
 44
1.25
 70
0
 73
0
 74
0
 77
1
 78
8
140
2.5
141
2.5
143
0.03937007874016
147
0.625
171
3
172
1
271
2
272
2
274
3
278
44
283
0
284
8
340
11
  0
ENDTAB
  0
TABLE
  2
BLOCK_RECORD
  5
1
100
AcDbSymbolTable
 70
1
  0
BLOCK_RECORD
  5
1F
100
AcDbSymbolTableRecord
100
AcDbBlockTableRecord
  2
*Model_Space
340
22
  0
BLOCK_RECORD
  5
1B
100
AcDbSymbolTableRecord
100
AcDbBlockTableRecord
  2
*Paper_Space
340
1E
  0
BLOCK_RECORD
  5
23
100
AcDbSymbolTableRecord
100
AcDbBlockTableRecord
  2
*Paper_Space0
340
26
  0
BLOCK_RECORD
  5
47
100
AcDbSymbolTableRecord
100
AcDbBlockTableRecord
  2
carriage
340
0
  0
ENDTAB
  0
ENDSEC
  0
SECTION
  2
BLOCKS
  0
BLOCK
  5
20
100
AcDbEntity
  8
0
100
AcDbBlockBegin
  2
*Model_Space
 70
0
 10
0.0
 20
0.0
 30
0.0
  3
*Model_Space
  1

  0
ENDBLK
  5
21
100
AcDbEntity
  8
0
100
AcDbBlockEnd
  0
BLOCK
  5
1C
100
AcDbEntity
 67
1
  8
0
100
AcDbBlockBegin
  2
*Paper_Space
 70
0
 10
0.0
 20
0.0
 30
0.0
  3
*Paper_Space
  1

  0
ENDBLK
  5
1D
100
AcDbEntity
 67
1
  8
0
100
AcDbBlockEnd
  0
BLOCK
  5
24
100
AcDbEntity
  8
0
100
AcDbBlockBegin
  2
*Paper_Space0
 70
0
 10
0.0
 20
0.0
 30
0.0
  3
*Paper_Space0
  1

  0
ENDBLK
  5
25
100
AcDbEntity
  8
0
100
AcDbBlockEnd
  0
BLOCK
  5
48
100
AcDbEntity
  8
0
100
AcDbBlockBegin
  2
carriage
 70
0
 10
0.0
 20
0.0
 30
0.0
  3
carriage
  1

  0
CIRCLE
  5
49
100
AcDbEntity
100
AcDbCircle
  8
help
 62
256
370
-1
  6
ByLayer
 10
0.0
 20
150.0
 30
0.0
 40
12.5
  0
CIRCLE
  5
4A
100
AcDbEntity
100
AcDbCircle
  8
help
 62
256
370
-1
  6
ByLayer
 10
0.0
 20
0.0
 30
0.0
 40
12.5
  0
ARC
  5
4B
100
AcDbEntity
  8
0
 62
256
370
-1
  6
ByLayer
100
AcDbCircle
 10
-10.0
 20
160.0
 30
0.0
 40
10.0
100
AcDbArc
 50
90.0
 51
180.0
  0
LINE
  5
4C
100
AcDbEntity
100
AcDbLine
  8
0
 62
256
370
-1
  6
ByLayer
 10
-20.0
 20
-10.0
 30
0.0
 11
-20.0
 21
160.0
 31
0.0
  0
ARC
  5
4D
100
AcDbEntity
  8
0
 62
256
370
-1
  6
ByLayer
100
AcDbCircle
 10
-10.0
 20
-10.0
 30
0.0
 40
10.0
100
AcDbArc
 50
180.0
 51
270.0
  0
CIRCLE
  5
4E
100
AcDbEntity
100
AcDbCircle
  8
0
 62
256
370
-1
  6
ByLayer
 10
0.0
 20
0.0
 30
0.0
 40
2.5
  0
CIRCLE
  5
4F
100
AcDbEntity
100
AcDbCircle
  8
0
 62
256
370
-1
  6
ByLayer
 10
0.0
 20
150.0
 30
0.0
 40
2.5
  0
CIRCLE
  5
50
100
AcDbEntity
100
AcDbCircle
  8
help
 62
256
370
-1
  6
ByLayer
 10
110.0
 20
150.0
 30
0.0
 40
12.5
  0
CIRCLE
  5
51
100
AcDbEntity
100
AcDbCircle
  8
help
 62
256
370
-1
  6
ByLayer
 10
110.0
 20
0.0
 30
0.0
 40
12.5
  0
ARC
  5
52
100
AcDbEntity
  8
0
 62
256
370
-1
  6
ByLayer
100
AcDbCircle
 10
120.0
 20
160.0
 30
0.0
 40
10.0
100
AcDbArc
 50
0.0
 51
90.0
  0
LINE
  5
53
100
AcDbEntity
100
AcDbLine
  8
0
 62
256
370
-1
  6
ByLayer
 10
130.0
 20
160.0
 30
0.0
 11
130.0
 21
-10.0
 31
0.0
  0
ARC
  5
54
100
AcDbEntity
  8
0
 62
256
370
-1
  6
ByLayer
100
AcDbCircle
 10
120.0
 20
-10.0
 30
0.0
 40
10.0
100
AcDbArc
 50
270.0
 51
0.0
  0
CIRCLE
  5
55
100
AcDbEntity
100
AcDbCircle
  8
0
 62
256
370
-1
  6
ByLayer
 10
110.0
 20
0.0
 30
0.0
 40
2.5
  0
CIRCLE
  5
56
100
AcDbEntity
100
AcDbCircle
  8
0
 62
256
370
-1
  6
ByLayer
 10
110.0
 20
150.0
 30
0.0
 40
2.5
  0
LINE
  5
57
100
AcDbEntity
100
AcDbLine
  8
0
 62
256
370
-1
  6
ByLayer
 10
-10.0
 20
170.0
 30
0.0
 11
120.0
 21
170.0
 31
0.0
  0
LINE
  5
58
100
AcDbEntity
100
AcDbLine
  8
0
 62
256
370
-1
  6
ByLayer
 10
120.0
 20
-20.0
 30
0.0
 11
-10.0
 21
-20.0
 31
0.0
  0
ENDBLK
  5
59
100
AcDbEntity
  8
0
100
AcDbBlockEnd
  0
ENDSEC
  0
SECTION
  2
ENTITIES
  0
CIRCLE
  5
5A
100
AcDbEntity
100
AcDbCircle
  8
motor
 62
256
370
-1
  6
ByLayer
 10
37.75
 20
43.4233937586588041
 30
0.0
 40
1.5
  0
CIRCLE
  5
5B
100
AcDbEntity
100
AcDbCircle
  8
motor
 62
256
370
-1
  6
ByLayer
 10
22.25
 20
43.423393758658797
 30
0.0
 40
1.5
  0
CIRCLE
  5
5C
100
AcDbEntity
100
AcDbCircle
  8
motor
 62
256
370
-1
  6
ByLayer
 10
14.5
 20
30.0
 30
0.0
 40
1.5
  0
CIRCLE
  5
5D
100
AcDbEntity
100
AcDbCircle
  8
motor
 62
256
370
-1
  6
ByLayer
 10
45.5
 20
30.0
 30
0.0
 40
1.5
  0
CIRCLE
  5
5E
100
AcDbEntity
100
AcDbCircle
  8
motor
 62
256
370
-1
  6
ByLayer
 10
37.75
 20
16.5766062413411994
 30
0.0
 40
1.5
  0
CIRCLE
  5
5F
100
AcDbEntity
100
AcDbCircle
  8
motor
 62
256
370
-1
  6
ByLayer
 10
22.25
 20
16.576606241341203
 30
0.0
 40
1.5
  0
CIRCLE
  5
60
100
AcDbEntity
100
AcDbCircle
  8
motor
 62
256
370
-1
  6
ByLayer
 10
30.0
 20
37.0
 30
0.0
 40
6.0
  0
CIRCLE
  5
61
100
AcDbEntity
100
AcDbCircle
  8
motor
 62
256
370
-1
  6
ByLayer
 10
30.0
 20
37.0
 30
0.0
 40
3.0
  0
CIRCLE
  5
62
100
AcDbEntity
100
AcDbCircle
  8
motor
 62
256
370
-1
  6
ByLayer
 10
30.0
 20
30.0
 30
0.0
 40
18.3999999999999986
  0
DIMENSION
  5
63
100
AcDbEntity
  8
dimensions
 62
256
370
-1
  6
ByLayer
100
AcDbDimension
 10
48.3999999999999986
 20
5.7600000000000406
 30
0.0
 11
30.0
 21
7.6350000000000406
 31
0.0
 70
0
 71
5
 72
1
 41
1.0
 42
0.0
  1

  3
Standard
100
AcDbAlignedDimension
 13
11.6000000000000014
 23
30.0
 33
0.0
 14
48.3999999999999986
 24
30.0
 34
0.0
 50
0.0
100
AcDbRotatedDimension
  0
LINE
  5
64
100
AcDbEntity
100
AcDbLine
  8
motor
 62
256
370
-1
  6
ByLayer
 10
94.0
 20
11.6000000000000014
 30
0.0
 11
94.0
 21
48.3999999999999986
 31
0.0
  0
LINE
  5
65
100
AcDbEntity
100
AcDbLine
  8
motor
 62
256
370
-1
  6
ByLayer
 10
124.0
 20
12.5
 30
0.0
 11
124.0
 21
47.5
 31
0.0
  0
LINE
  5
66
100
AcDbEntity
100
AcDbLine
  8
motor
 62
256
370
-1
  6
ByLayer
 10
94.0
 20
48.3999999999999986
 30
0.0
 11
74.0
 21
48.3999999999999986
 31
0.0
  0
LINE
  5
67
100
AcDbEntity
100
AcDbLine
  8
motor
 62
256
370
-1
  6
ByLayer
 10
94.0
 20
11.6000000000000014
 30
0.0
 11
74.0
 21
11.6000000000000014
 31
0.0
  0
LINE
  5
68
100
AcDbEntity
100
AcDbLine
  8
motor
 62
256
370
-1
  6
ByLayer
 10
124.0
 20
12.5
 30
0.0
 11
94.0000000000000142
 21
12.5
 31
0.0
  0
LINE
  5
69
100
AcDbEntity
100
AcDbLine
  8
motor
 62
256
370
-1
  6
ByLayer
 10
124.0
 20
47.5
 30
0.0
 11
94.0000000000000142
 21
47.5
 31
0.0
  0
LINE
  5
6A
100
AcDbEntity
100
AcDbLine
  8
motor
 62
256
370
-1
  6
ByLayer
 10
52.0
 20
34.0
 30
0.0
 11
52.0
 21
40.0
 31
0.0
  0
LINE
  5
6B
100
AcDbEntity
100
AcDbLine
  8
motor
 62
256
370
-1
  6
ByLayer
 10
67.5
 20
31.0
 30
0.0
 11
67.5
 21
43.0
 31
0.0
  0
LINE
  5
6C
100
AcDbEntity
100
AcDbLine
  8
motor
 62
256
370
-1
  6
ByLayer
 10
67.5
 20
43.0
 30
0.0
 11
74.0
 21
43.0
 31
0.0
  0
LINE
  5
6D
100
AcDbEntity
100
AcDbLine
  8
motor
 62
256
370
-1
  6
ByLayer
 10
67.5
 20
31.0
 30
0.0
 11
74.0
 21
31.0
 31
0.0
  0
LINE
  5
6E
100
AcDbEntity
100
AcDbLine
  8
motor
 62
256
370
-1
  6
ByLayer
 10
52.0
 20
40.0
 30
0.0
 11
67.5
 21
40.0
 31
0.0
  0
LINE
  5
6F
100
AcDbEntity
100
AcDbLine
  8
motor
 62
256
370
-1
  6
ByLayer
 10
52.0
 20
34.0
 30
0.0
 11
67.5
 21
34.0
 31
0.0
  0
LINE
  5
70
100
AcDbEntity
100
AcDbLine
  8
motor
 62
256
370
-1
  6
ByLayer
 10
74.0
 20
48.3999999999999986
 30
0.0
 11
74.0
 21
11.6000000000000014
 31
0.0
  0
DIMENSION
  5
71
100
AcDbEntity
  8
dimensions
 62
256
370
-1
  6
ByLayer
100
AcDbDimension
 10
124.0
 20
5.7600000000000406
 30
0.0
 11
99.0
 21
7.6350000000000406
 31
0.0
 70
0
 71
5
 72
1
 41
1.0
 42
0.0
  1

  3
Standard
100
AcDbAlignedDimension
 13
74.0
 23
11.6000000000000014
 33
0.0
 14
124.0
 24
12.5
 34
0.0
 50
0.0
100
AcDbRotatedDimension
  0
DIMENSION
  5
72
100
AcDbEntity
  8
dimensions
 62
256
370
-1
  6
ByLayer
100
AcDbDimension
 10
45.5
 20
53.0
 30
0.0
 11
30.0
 21
54.875
 31
0.0
 70
0
 71
5
 72
1
 41
1.0
 42
0.0
  1

  3
Standard
100
AcDbAlignedDimension
 13
14.5
 23
30.0
 33
0.0
 14
45.5
 24
30.0
 34
0.0
 50
0.0
100
AcDbRotatedDimension
  0
DIMENSION
  5
73
100
AcDbEntity
  8
dimensions
 62
256
370
-1
  6
ByLayer
100
AcDbDimension
 10
36.0
 20
20.9920000000007931
 30
0.0
 11
30.0
 21
22.8670000000007931
 31
0.0
 70
0
 71
5
 72
1
 41
1.0
 42
0.0
  1

  3
Standard
100
AcDbAlignedDimension
 13
24.0
 23
37.0
 33
0.0
 14
36.0
 24
37.0
 34
0.0
 50
0.0
100
AcDbRotatedDimension
  0
DIMENSION
  5
74
100
AcDbEntity
  8
dimensions
 62
256
370
-1
  6
ByLayer
100
AcDbDimension
 10
33.0
 20
26.2144000000009925
 30
0.0
 11
30.0
 21
28.0894000000009925
 31
0.0
 70
0
 71
5
 72
1
 41
1.0
 42
0.0
  1

  3
Standard
100
AcDbAlignedDimension
 13
27.0
 23
37.0
 33
0.0
 14
33.0
 24
37.0
 34
0.0
 50
0.0
100
AcDbRotatedDimension
  0
CIRCLE
  5
75
100
AcDbEntity
100
AcDbCircle
  8
motor
 62
256
370
-1
  6
ByLayer
 10
70.0
 20
475.0
 30
0.0
 40
30.0
  0
LINE
  5
76
100
AcDbEntity
100
AcDbLine
  8
0
 62
256
370
-1
  6
ByLayer
 10
0.0
 20
415.0
 30
0.0
 11
140.0
 21
415.0
 31
0.0
  0
LINE
  5
77
100
AcDbEntity
100
AcDbLine
  8
0
 62
256
370
-1
  6
ByLayer
 10
140.0
 20
415.0
 30
0.0
 11
140.0
 21
400.0
 31
0.0
  0
LINE
  5
78
100
AcDbEntity
100
AcDbLine
  8
0
 62
256
370
-1
  6
ByLayer
 10
140.0
 20
400.0
 30
0.0
 11
0.0
 21
400.0
 31
0.0
  0
LINE
  5
79
100
AcDbEntity
100
AcDbLine
  8
0
 62
256
370
-1
  6
ByLayer
 10
0.0
 20
400.0
 30
0.0
 11
0.0
 21
415.0
 31
0.0
  0
CIRCLE
  5
7A
100
AcDbEntity
100
AcDbCircle
  8
0
 62
256
370
-1
  6
ByLayer
 10
70.0
 20
475.0
 30
0.0
 40
31.0
  0
LINE
  5
7B
100
AcDbEntity
100
AcDbLine
  8
0
 62
256
370
-1
  6
ByLayer
 10
101.0
 20
474.0
 30
0.0
 11
120.0
 21
474.0
 31
0.0
  0
LINE
  5
7C
100
AcDbEntity
100
AcDbLine
  8
0
 62
256
370
-1
  6
ByLayer
 10
120.0
 20
474.0
 30
0.0
 11
120.0
 21
415.0
 31
0.0
  0
LINE
  5
7D
100
AcDbEntity
100
AcDbLine
  8
0
 62
256
370
-1
  6
ByLayer
 10
39.0
 20
474.0
 30
0.0
 11
20.0
 21
474.0
 31
0.0
  0
LINE
  5
7E
100
AcDbEntity
100
AcDbLine
  8
0
 62
256
370
-1
  6
ByLayer
 10
20.0
 20
474.0
 30
0.0
 11
20.0
 21
415.0
 31
0.0
  0
LINE
  5
7F
100
AcDbEntity
100
AcDbLine
  8
0
 62
256
370
-1
  6
ByLayer
 10
120.0
 20
515.0
 30
0.0
 11
20.0
 21
515.0
 31
0.0
  0
LINE
  5
80
100
AcDbEntity
100
AcDbLine
  8
0
 62
256
370
-1
  6
ByLayer
 10
20.0
 20
515.0
 30
0.0
 11
20.0
 21
476.0
 31
0.0
  0
LINE
  5
81
100
AcDbEntity
100
AcDbLine
  8
0
 62
256
370
-1
  6
ByLayer
 10
20.0
 20
476.0
 30
0.0
 11
39.0
 21
476.0
 31
0.0
  0
LINE
  5
82
100
AcDbEntity
100
AcDbLine
  8
0
 62
256
370
-1
  6
ByLayer
 10
120.0
 20
515.0
 30
0.0
 11
120.0
 21
476.0
 31
0.0
  0
LINE
  5
83
100
AcDbEntity
100
AcDbLine
  8
0
 62
256
370
-1
  6
ByLayer
 10
120.0
 20
476.0
 30
0.0
 11
101.0
 21
476.0
 31
0.0
  0
LINE
  5
84
100
AcDbEntity
100
AcDbLine
  8
help
 62
256
370
-1
  6
ByLayer
 10
-910.0
 20
-20.0
 30
0.0
 11
-3410.0
 21
-20.0
 31
0.0
  0
LINE
  5
85
100
AcDbEntity
100
AcDbLine
  8
help
 62
256
370
-1
  6
ByLayer
 10
-3410.0
 20
-20.0
 30
0.0
 11
-5410.0
 21
-20.0
 31
0.0
  0
LINE
  5
86
100
AcDbEntity
100
AcDbLine
  8
0
 62
256
370
-1
  6
ByLayer
 10
-3985.0
 20
280.0
 30
0.0
 11
-3985.0
 21
40.0
 31
0.0
  0
LINE
  5
87
100
AcDbEntity
100
AcDbLine
  8
0
 62
256
370
-1
  6
ByLayer
 10
-3985.0
 20
320.0
 30
0.0
 11
-3985.0
 21
0.0
 31
0.0
  0
LINE
  5
88
100
AcDbEntity
100
AcDbLine
  8
0
 62
256
370
-1
  6
ByLayer
 10
-3985.0
 20
0.0
 30
0.0
 11
-4000.0
 21
0.0
 31
0.0
  0
LINE
  5
89
100
AcDbEntity
100
AcDbLine
  8
0
 62
256
370
-1
  6
ByLayer
 10
-4000.0
 20
0.0
 30
0.0
 11
-4000.0
 21
320.0
 31
0.0
  0
LINE
  5
8A
100
AcDbEntity
100
AcDbLine
  8
0
 62
256
370
-1
  6
ByLayer
 10
-4000.0
 20
320.0
 30
0.0
 11
-3985.0
 21
320.0
 31
0.0
  0
LINE
  5
8B
100
AcDbEntity
100
AcDbLine
  8
0
 62
256
370
-1
  6
ByLayer
 10
-3965.0
 20
40.0
 30
0.0
 11
-3965.0
 21
300.0
 31
0.0
  0
LINE
  5
8C
100
AcDbEntity
100
AcDbLine
  8
0
 62
256
370
-1
  6
ByLayer
 10
-3965.0
 20
300.0
 30
0.0
 11
-3985.0
 21
300.0
 31
0.0
  0
DIMENSION
  5
8D
100
AcDbEntity
  8
dimensions
 62
256
370
-1
  6
ByLayer
100
AcDbDimension
 10
-1945.0
 20
20.625
 30
0.0
 11
-2945.0
 21
22.5
 31
0.0
 70
0
 71
5
 72
1
 41
1.0
 42
0.0
  1

  3
Standard
100
AcDbAlignedDimension
 13
-3945.0
 23
40.625
 33
0.0
 14
-1945.0
 24
40.625
 34
0.0
 50
0.0
100
AcDbRotatedDimension
  0
LINE
  5
8E
100
AcDbEntity
100
AcDbLine
  8
0
 62
256
370
-1
  6
ByLayer
 10
-1905.0
 20
0.0
 30
0.0
 11
-1890.0
 21
0.0
 31
0.0
  0
LINE
  5
8F
100
AcDbEntity
100
AcDbLine
  8
0
 62
256
370
-1
  6
ByLayer
 10
-1890.0
 20
0.0
 30
0.0
 11
-1890.0
 21
320.0
 31
0.0
  0
LINE
  5
90
100
AcDbEntity
100
AcDbLine
  8
0
 62
256
370
-1
  6
ByLayer
 10
-1890.0
 20
320.0
 30
0.0
 11
-1905.0
 21
320.0
 31
0.0
  0
LINE
  5
91
100
AcDbEntity
100
AcDbLine
  8
0
 62
256
370
-1
  6
ByLayer
 10
-1905.0
 20
320.0
 30
0.0
 11
-1905.0
 21
0.0
 31
0.0
  0
LINE
  5
92
100
AcDbEntity
100
AcDbLine
  8
0
 62
256
370
-1
  6
ByLayer
 10
-3965.0
 20
40.0
 30
0.0
 11
-3985.0
 21
40.0
 31
0.0
  0
LINE
  5
93
100
AcDbEntity
100
AcDbLine
  8
0
 62
256
370
-1
  6
ByLayer
 10
-3965.0
 20
40.0
 30
0.0
 11
-1925.0
 21
40.0
 31
0.0
  0
LINE
  5
94
100
AcDbEntity
100
AcDbLine
  8
0
 62
256
370
-1
  6
ByLayer
 10
-1925.0
 20
40.0
 30
0.0
 11
-1925.0
 21
300.0
 31
0.0
  0
LINE
  5
95
100
AcDbEntity
100
AcDbLine
  8
0
 62
256
370
-1
  6
ByLayer
 10
-1925.0
 20
300.0
 30
0.0
 11
-1905.0
 21
300.0
 31
0.0
  0
LINE
  5
96
100
AcDbEntity
100
AcDbLine
  8
0
 62
256
370
-1
  6
ByLayer
 10
-1925.0
 20
40.0
 30
0.0
 11
-1905.0
 21
40.0
 31
0.0
  0
LINE
  5
97
100
AcDbEntity
100
AcDbLine
  8
help
 62
256
370
-1
  6
ByLayer
 10
-3965.0
 20
170.0
 30
0.0
 11
-1925.0
 21
170.0
 31
0.0
  0
ARC
  5
98
100
AcDbEntity
  8
0
 62
256
370
-1
  6
ByLayer
100
AcDbCircle
 10
-2945.0
 20
4765.9782608695504678
 30
0.0
 40
4580.9782608695504678
100
AcDbArc
 50
257.1346921517233568
 51
282.8653078482766432
  0
ARC
  5
99
100
AcDbEntity
  8
help
 62
256
370
-1
  6
ByLayer
100
AcDbCircle
 10
-2944.9999999999995453
 20
-4425.9782608695504678
 30
0.0
 40
4580.9782608695504678
100
AcDbArc
 50
77.134692151723371
 51
102.8653078482766432
  0
ARC
  5
9A
100
AcDbEntity
  8
help
 62
256
370
-1
  6
ByLayer
100
AcDbCircle
 10
-2944.9999999999995453
 20
4735.9782608695504678
 30
0.0
 40
4580.9782608695504678
100
AcDbArc
 50
257.1346921517233568
 51
282.8653078482766432
  0
ARC
  5
9B
100
AcDbEntity
  8
help
 62
256
370
-1
  6
ByLayer
100
AcDbCircle
 10
-2944.9999999999990905
 20
-4395.9782608695504678
 30
0.0
 40
4580.9782608695504678
100
AcDbArc
 50
77.134692151723371
 51
102.8653078482766432
  0
LINE
  5
9C
100
AcDbEntity
100
AcDbLine
  8
help
 62
256
370
-1
  6
ByLayer
 10
-3965.0
 20
69.9999999999990905
 30
0.0
 11
-1925.0
 21
70.0
 31
0.0
  0
LINE
  5
9D
100
AcDbEntity
100
AcDbLine
  8
help
 62
256
370
-1
  6
ByLayer
 10
-3965.0
 20
180.0
 30
0.0
 11
-1925.0
 21
180.0
 31
0.0
  0
LINE
  5
9E
100
AcDbEntity
100
AcDbLine
  8
help
 62
256
370
-1
  6
ByLayer
 10
-3965.0
 20
160.0
 30
0.0
 11
-1925.0
 21
160.0
 31
0.0
  0
DIMENSION
  5
9F
100
AcDbEntity
  8
dimensions
 62
256
370
-1
  6
ByLayer
100
AcDbDimension
 10
-4036.2628174089813911
 20
69.9999999999990905
 30
0.0
 11
-4038.1378174089813911
 21
114.9999999999995453
 31
0.0
 70
0
 71
5
 72
1
 41
1.0
 42
0.0
  1

  3
Standard
100
AcDbAlignedDimension
 13
-3965.0
 23
160.0
 33
0.0
 14
-3965.0
 24
69.9999999999990905
 34
0.0
 50
90.0
100
AcDbRotatedDimension
  0
LINE
  5
A0
100
AcDbEntity
100
AcDbLine
  8
motor
 62
256
370
-1
  6
ByLayer
 10
-3945.0
 20
70.0
 30
0.0
 11
-1945.0
 21
70.0
 31
0.0
  0
LINE
  5
A1
100
AcDbEntity
100
AcDbLine
  8
motor
 62
256
370
-1
  6
ByLayer
 10
-3945.0
 20
50.0
 30
0.0
 11
-1945.0
 21
50.0
 31
0.0
  0
LINE
  5
A2
100
AcDbEntity
100
AcDbLine
  8
motor
 62
256
370
-1
  6
ByLayer
 10
-1945.0
 20
70.0
 30
0.0
 11
-1925.0
 21
70.0
 31
0.0
  0
LINE
  5
A3
100
AcDbEntity
100
AcDbLine
  8
motor
 62
256
370
-1
  6
ByLayer
 10
-3945.0
 20
70.0
 30
0.0
 11
-3965.0
 21
70.0
 31
0.0
  0
LINE
  5
A4
100
AcDbEntity
100
AcDbLine
  8
motor
 62
256
370
-1
  6
ByLayer
 10
-1925.0
 20
70.0
 30
0.0
 11
-1945.0
 21
50.0
 31
0.0
  0
LINE
  5
A5
100
AcDbEntity
100
AcDbLine
  8
motor
 62
256
370
-1
  6
ByLayer
 10
-1945.0
 20
50.0
 30
0.0
 11
-1945.0
 21
70.0
 31
0.0
  0
LINE
  5
A6
100
AcDbEntity
100
AcDbLine
  8
motor
 62
256
370
-1
  6
ByLayer
 10
-3965.0
 20
70.0
 30
0.0
 11
-3945.0
 21
50.0
 31
0.0
  0
LINE
  5
A7
100
AcDbEntity
100
AcDbLine
  8
motor
 62
256
370
-1
  6
ByLayer
 10
-3945.0
 20
50.0
 30
0.0
 11
-3945.0
 21
70.0
 31
0.0
  0
LINE
  5
A8
100
AcDbEntity
100
AcDbLine
  8
motor
 62
256
370
-1
  6
ByLayer
 10
-3945.0
 20
160.0
 30
0.0
 11
-1945.0
 21
160.0
 31
0.0
  0
LINE
  5
A9
100
AcDbEntity
100
AcDbLine
  8
motor
 62
256
370
-1
  6
ByLayer
 10
-3945.0
 20
180.0
 30
0.0
 11
-1945.0
 21
180.0
 31
0.0
  0
LINE
  5
AA
100
AcDbEntity
100
AcDbLine
  8
motor
 62
256
370
-1
  6
ByLayer
 10
-1945.0
 20
180.0
 30
0.0
 11
-1945.0
 21
160.0
 31
0.0
  0
LINE
  5
AB
100
AcDbEntity
100
AcDbLine
  8
motor
 62
256
370
-1
  6
ByLayer
 10
-1925.0
 20
160.0
 30
0.0
 11
-1945.0
 21
160.0
 31
0.0
  0
LINE
  5
AC
100
AcDbEntity
100
AcDbLine
  8
motor
 62
256
370
-1
  6
ByLayer
 10
-1945.0
 20
180.0
 30
0.0
 11
-1925.0
 21
160.0
 31
0.0
  0
LINE
  5
AD
100
AcDbEntity
100
AcDbLine
  8
motor
 62
256
370
-1
  6
ByLayer
 10
-3945.0
 20
160.0
 30
0.0
 11
-3965.0
 21
160.0
 31
0.0
  0
LINE
  5
AE
100
AcDbEntity
100
AcDbLine
  8
motor
 62
256
370
-1
  6
ByLayer
 10
-3965.0
 20
160.0
 30
0.0
 11
-3945.0
 21
180.0
 31
0.0
  0
LINE
  5
AF
100
AcDbEntity
100
AcDbLine
  8
motor
 62
256
370
-1
  6
ByLayer
 10
-3945.0
 20
180.0
 30
0.0
 11
-3945.0
 21
160.0
 31
0.0
  0
LINE
  5
B0
100
AcDbEntity
100
AcDbLine
  8
motor
 62
256
370
-1
  6
ByLayer
 10
-1925.0
 20
160.0
 30
0.0
 11
-1925.0
 21
70.0
 31
0.0
  0
LINE
  5
B1
100
AcDbEntity
100
AcDbLine
  8
motor
 62
256
370
-1
  6
ByLayer
 10
-1945.0
 20
70.0
 30
0.0
 11
-1945.0
 21
160.0
 31
0.0
  0
LINE
  5
B2
100
AcDbEntity
100
AcDbLine
  8
motor
 62
256
370
-1
  6
ByLayer
 10
-3945.0
 20
70.0
 30
0.0
 11
-3945.0
 21
160.0
 31
0.0
  0
LINE
  5
B3
100
AcDbEntity
100
AcDbLine
  8
motor
 62
256
370
-1
  6
ByLayer
 10
-3965.0
 20
160.0
 30
0.0
 11
-3965.0
 21
70.0
 31
0.0
  0
LINE
  5
B4
100
AcDbEntity
100
AcDbLine
  8
help
 62
256
370
-1
  6
ByLayer
 10
-1945.0
 20
265.4792029835737139
 30
0.0
 11
-1945.0
 21
180.0
 31
0.0
  0
LINE
  5
B5
100
AcDbEntity
100
AcDbLine
  8
0
 62
256
370
-1
  6
ByLayer
 10
-1945.0
 20
253.0499999999999545
 30
0.0
 11
-1945.0
 21
190.0
 31
0.0
  0
LINE
  5
B6
100
AcDbEntity
100
AcDbLine
  8
0
 62
256
370
-1
  6
ByLayer
 10
-1955.0
 20
180.0
 30
0.0
 11
-2304.0
 21
180.0
 31
0.0
  0
ARC
  5
B7
100
AcDbEntity
  8
0
 62
256
370
-1
  6
ByLayer
100
AcDbCircle
 10
-2945.0000000000695763
 20
4735.9782608699670163
 30
0.0
 40
4580.9782608699724733
100
AcDbArc
 50
278.0357930097299572
 51
282.4638688473876869
  0
ARC
  5
B8
100
AcDbEntity
  8
0
 62
256
370
-1
  6
ByLayer
100
AcDbCircle
 10
-1955.0000000000002274
 20
253.0499999999999545
 30
0.0
 40
10.0000000000501199
100
AcDbArc
 50
0.0
 51
97.5583275206489304
  0
ARC
  5
B9
100
AcDbEntity
  8
0
 62
256
370
-1
  6
ByLayer
100
AcDbCircle
 10
-1955.0
 20
190.0
 30
0.0
 40
10.0
100
AcDbArc
 50
270.0
 51
0.0
  0
ARC
  5
BA
100
AcDbEntity
  8
0
 62
256
370
-1
  6
ByLayer
100
AcDbCircle
 10
-2304.0
 20
190.0
 30
0.0
 40
10.0
100
AcDbArc
 50
93.5388951575479553
 51
270.0
  0
LINE
  5
BB
100
AcDbEntity
100
AcDbLine
  8
0
 62
256
370
-1
  6
ByLayer
 10
-1945.0
 20
86.9500000000000455
 30
0.0
 11
-1945.0
 21
150.0000000000001137
 31
0.0
  0
LINE
  5
BC
100
AcDbEntity
100
AcDbLine
  8
0
 62
256
370
-1
  6
ByLayer
 10
-1955.0
 20
160.0000000000002274
 30
0.0
 11
-2304.0
 21
160.0000000000001137
 31
0.0
  0
ARC
  5
BD
100
AcDbEntity
  8
0
 62
256
370
-1
  6
ByLayer
100
AcDbCircle
 10
-2945.0000000000727596
 20
-4395.9782608699661068
 30
0.0
 40
4580.9782608699724733
100
AcDbArc
 50
77.5361311526123274
 51
81.964206990270057
  0
ARC
  5
BE
100
AcDbEntity
  8
0
 62
256
370
-1
  6
ByLayer
100
AcDbCircle
 10
-1955.0000000000002274
 20
86.9499999999999318
 30
0.0
 40
10.0000000000501199
100
AcDbArc
 50
262.441672479351098
 51
360.0
  0
ARC
  5
BF
100
AcDbEntity
  8
0
 62
256
370
-1
  6
ByLayer
100
AcDbCircle
 10
-1955.0
 20
149.9999999999997726
 30
0.0
 40
10.0
100
AcDbArc
 50
360.0
 51
90.0
  0
ARC
  5
C0
100
AcDbEntity
  8
0
 62
256
370
-1
  6
ByLayer
100
AcDbCircle
 10
-2304.0
 20
150.0000000000001137
 30
0.0
 40
10.0
100
AcDbArc
 50
90.0
 51
266.4611048424520732
  0
CIRCLE
  5
C1
100
AcDbEntity
100
AcDbCircle
  8
help
 62
256
370
-1
  6
ByLayer
 10
-2177.0
 20
80.0
 30
0.0
 40
10.0
  0
ARC
  5
C2
100
AcDbEntity
  8
0
 62
256
370
-1
  6
ByLayer
100
AcDbCircle
 10
-2177.0
 20
80.0
 30
0.0
 40
9.9999999999999467
100
AcDbArc
 50
270.0
 51
79.532823315296028
  0
LINE
  5
C3
100
AcDbEntity
100
AcDbLine
  8
0
 62
256
370
-1
  6
ByLayer
 10
-3945.0
 20
253.0500000000001819
 30
0.0
 11
-3945.0
 21
190.0000000000019327
 31
0.0
  0
LINE
  5
C4
100
AcDbEntity
100
AcDbLine
  8
0
 62
256
370
-1
  6
ByLayer
 10
-3935.0
 20
180.0000000000001137
 30
0.0
 11
-3586.0
 21
180.0000000000005684
 31
0.0
  0
ARC
  5
C5
100
AcDbEntity
  8
0
 62
256
370
-1
  6
ByLayer
100
AcDbCircle
 10
-2944.9999999999290594
 20
4735.9782608699670163
 30
0.0
 40
4580.9782608699724733
100
AcDbArc
 50
257.5361311526123131
 51
261.9642069902700428
  0
ARC
  5
C6
100
AcDbEntity
  8
0
 62
256
370
-1
  6
ByLayer
100
AcDbCircle
 10
-3935.0
 20
253.0500000000001819
 30
0.0
 40
10.0000000000501199
100
AcDbArc
 50
82.4416724793510554
 51
180.0
  0
ARC
  5
C7
100
AcDbEntity
  8
0
 62
256
370
-1
  6
ByLayer
100
AcDbCircle
 10
-3935.0
 20
190.0000000000001137
 30
0.0
 40
10.0
100
AcDbArc
 50
180.0
 51
270.0
  0
ARC
  5
C8
100
AcDbEntity
  8
0
 62
256
370
-1
  6
ByLayer
100
AcDbCircle
 10
-3586.0
 20
189.9999999999993179
 30
0.0
 40
10.0
100
AcDbArc
 50
270.0
 51
86.4611048424520305
  0
LINE
  5
C9
100
AcDbEntity
100
AcDbLine
  8
0
 62
256
370
-1
  6
ByLayer
 10
-3945.0
 20
86.9499999999997044
 30
0.0
 11
-3945.0
 21
150.0000000000012506
 31
0.0
  0
LINE
  5
CA
100
AcDbEntity
100
AcDbLine
  8
0
 62
256
370
-1
  6
ByLayer
 10
-3935.0
 20
160.0000000000006821
 30
0.0
 11
-3586.0
 21
160.0000000000002274
 31
0.0
  0
ARC
  5
CB
100
AcDbEntity
  8
0
 62
256
370
-1
  6
ByLayer
100
AcDbCircle
 10
-2944.9999999999286047
 20
-4395.9782608699661068
 30
0.0
 40
4580.9782608699724733
100
AcDbArc
 50
98.0357930097299288
 51
102.4638688473876584
  0
ARC
  5
CC
100
AcDbEntity
  8
0
 62
256
370
-1
  6
ByLayer
100
AcDbCircle
 10
-3935.0
 20
86.9500000000005002
 30
0.0
 40
10.0000000000501199
100
AcDbArc
 50
180.0
 51
277.558327520648902
  0
ARC
  5
CD
100
AcDbEntity
  8
0
 62
256
370
-1
  6
ByLayer
100
AcDbCircle
 10
-3935.0
 20
150.0000000000011369
 30
0.0
 40
10.0
100
AcDbArc
 50
89.9999999999999858
 51
180.0
  0
ARC
  5
CE
100
AcDbEntity
  8
0
 62
256
370
-1
  6
ByLayer
100
AcDbCircle
 10
-3586.0
 20
149.9999999999997726
 30
0.0
 40
10.0
100
AcDbArc
 50
273.5388951575479268
 51
89.9999999999999858
  0
DIMENSION
  5
CF
100
AcDbEntity
  8
dimensions
 62
256
370
-1
  6
ByLayer
100
AcDbDimension
 10
-1905.0
 20
0.0
 30
0.0
 11
-2945.0
 21
1.875
 31
0.0
 70
0
 71
5
 72
1
 41
1.0
 42
0.0
  1

  3
Standard
100
AcDbAlignedDimension
 13
-3985.0
 23
40.0
 33
0.0
 14
-1905.0
 24
40.0
 34
0.0
 50
0.0
100
AcDbRotatedDimension
  0
DIMENSION
  5
D0
100
AcDbEntity
  8
dimensions
 62
256
370
-1
  6
ByLayer
100
AcDbDimension
 10
-4045.0
 20
40.0
 30
0.0
 11
-4046.875
 21
170.0
 31
0.0
 70
0
 71
5
 72
1
 41
1.0
 42
0.0
  1

  3
Standard
100
AcDbAlignedDimension
 13
-3985.0
 23
300.0
 33
0.0
 14
-3985.0
 24
40.0
 34
0.0
 50
90.0
100
AcDbRotatedDimension
  0
DIMENSION
  5
D1
100
AcDbEntity
  8
dimensions
 62
256
370
-1
  6
ByLayer
100
AcDbDimension
 10
-4055.0
 20
320.0
 30
0.0
 11
-4056.875
 21
160.0
 31
0.0
 70
0
 71
5
 72
1
 41
1.0
 42
0.0
  1

  3
Standard
100
AcDbAlignedDimension
 13
-4000.0
 23
0.0
 33
0.0
 14
-4000.0
 24
320.0
 34
0.0
 50
90.0
100
AcDbRotatedDimension
  0
MTEXT
  5
D2
100
AcDbEntity
100
AcDbMText
  8
dimensions
 62
256
370
-1
  6
ByLayer
 10
-3435.0
 20
220.0
 30
0.0
 40
3.0
 41
100.0
 71
1
 72
2
  1
4581
  7
standard
 50
0.0
 73
1
 44
1.0
  0
CIRCLE
  5
D3
100
AcDbEntity
100
AcDbCircle
  8
0
 62
256
370
-1
  6
ByLayer
 10
-3975.0
 20
270.0
 30
0.0
 40
3.0
  0
CIRCLE
  5
D4
100
AcDbEntity
100
AcDbCircle
  8
0
 62
256
370
-1
  6
ByLayer
 10
-3975.0
 20
55.0
 30
0.0
 40
3.0
  0
CIRCLE
  5
D5
100
AcDbEntity
100
AcDbCircle
  8
0
 62
256
370
-1
  6
ByLayer
 10
-3975.0
 20
170.0
 30
0.0
 40
3.0
  0
LINE
  5
D6
100
AcDbEntity
100
AcDbLine
  8
motor
 62
256
370
-1
  6
ByLayer
 10
-4000.0
 20
820.0000000000009095
 30
0.0
 11
-2000.0
 21
820.0000000000009095
 31
0.0
  0
LINE
  5
D7
100
AcDbEntity
100
AcDbLine
  8
motor
 62
256
370
-1
  6
ByLayer
 10
-4000.0
 20
800.0000000000009095
 30
0.0
 11
-2000.0
 21
800.0000000000009095
 31
0.0
  0
LINE
  5
D8
100
AcDbEntity
100
AcDbLine
  8
motor
 62
256
370
-1
  6
ByLayer
 10
-2000.0
 20
820.0000000000009095
 30
0.0
 11
-1980.0
 21
820.0000000000009095
 31
0.0
  0
LINE
  5
D9
100
AcDbEntity
100
AcDbLine
  8
motor
 62
256
370
-1
  6
ByLayer
 10
-4000.0
 20
820.0000000000009095
 30
0.0
 11
-4020.0
 21
820.0000000000009095
 31
0.0
  0
LINE
  5
DA
100
AcDbEntity
100
AcDbLine
  8
motor
 62
256
370
-1
  6
ByLayer
 10
-1980.0
 20
820.0000000000009095
 30
0.0
 11
-2000.0
 21
800.0000000000009095
 31
0.0
  0
LINE
  5
DB
100
AcDbEntity
100
AcDbLine
  8
motor
 62
256
370
-1
  6
ByLayer
 10
-2000.0
 20
800.0000000000009095
 30
0.0
 11
-2000.0
 21
820.0000000000009095
 31
0.0
  0
LINE
  5
DC
100
AcDbEntity
100
AcDbLine
  8
motor
 62
256
370
-1
  6
ByLayer
 10
-4020.0
 20
820.0000000000009095
 30
0.0
 11
-4000.0
 21
800.0000000000009095
 31
0.0
  0
LINE
  5
DD
100
AcDbEntity
100
AcDbLine
  8
motor
 62
256
370
-1
  6
ByLayer
 10
-4000.0
 20
800.0000000000009095
 30
0.0
 11
-4000.0
 21
820.0000000000009095
 31
0.0
  0
LINE
  5
DE
100
AcDbEntity
100
AcDbLine
  8
motor
 62
256
370
-1
  6
ByLayer
 10
-4000.0
 20
910.0000000000009095
 30
0.0
 11
-2000.0
 21
910.0000000000009095
 31
0.0
  0
LINE
  5
DF
100
AcDbEntity
100
AcDbLine
  8
motor
 62
256
370
-1
  6
ByLayer
 10
-4000.0
 20
930.0000000000009095
 30
0.0
 11
-2000.0
 21
930.0000000000009095
 31
0.0
  0
LINE
  5
E0
100
AcDbEntity
100
AcDbLine
  8
motor
 62
256
370
-1
  6
ByLayer
 10
-2000.0
 20
930.0000000000009095
 30
0.0
 11
-2000.0
 21
910.0000000000009095
 31
0.0
  0
LINE
  5
E1
100
AcDbEntity
100
AcDbLine
  8
motor
 62
256
370
-1
  6
ByLayer
 10
-1980.0
 20
910.0000000000009095
 30
0.0
 11
-2000.0
 21
910.0000000000009095
 31
0.0
  0
LINE
  5
E2
100
AcDbEntity
100
AcDbLine
  8
motor
 62
256
370
-1
  6
ByLayer
 10
-2000.0
 20
930.0000000000009095
 30
0.0
 11
-1980.0
 21
910.0000000000009095
 31
0.0
  0
LINE
  5
E3
100
AcDbEntity
100
AcDbLine
  8
motor
 62
256
370
-1
  6
ByLayer
 10
-4000.0
 20
910.0000000000009095
 30
0.0
 11
-4020.0
 21
910.0000000000009095
 31
0.0
  0
LINE
  5
E4
100
AcDbEntity
100
AcDbLine
  8
motor
 62
256
370
-1
  6
ByLayer
 10
-4020.0
 20
910.0000000000009095
 30
0.0
 11
-4000.0
 21
930.0000000000009095
 31
0.0
  0
LINE
  5
E5
100
AcDbEntity
100
AcDbLine
  8
motor
 62
256
370
-1
  6
ByLayer
 10
-4000.0
 20
930.0000000000009095
 30
0.0
 11
-4000.0
 21
910.0000000000009095
 31
0.0
  0
LINE
  5
E6
100
AcDbEntity
100
AcDbLine
  8
motor
 62
256
370
-1
  6
ByLayer
 10
-1980.0
 20
910.0000000000009095
 30
0.0
 11
-1980.0
 21
820.0000000000009095
 31
0.0
  0
LINE
  5
E7
100
AcDbEntity
100
AcDbLine
  8
motor
 62
256
370
-1
  6
ByLayer
 10
-2000.0
 20
820.0000000000009095
 30
0.0
 11
-2000.0
 21
910.0000000000009095
 31
0.0
  0
LINE
  5
E8
100
AcDbEntity
100
AcDbLine
  8
motor
 62
256
370
-1
  6
ByLayer
 10
-4000.0
 20
820.0000000000009095
 30
0.0
 11
-4000.0
 21
910.0000000000009095
 31
0.0
  0
LINE
  5
E9
100
AcDbEntity
100
AcDbLine
  8
motor
 62
256
370
-1
  6
ByLayer
 10
-4020.0
 20
910.0000000000009095
 30
0.0
 11
-4020.0
 21
820.0000000000009095
 31
0.0
  0
CIRCLE
  5
EA
100
AcDbEntity
100
AcDbCircle
  8
help
 62
256
370
-1
  6
ByLayer
 10
-3900.0
 20
940.0
 30
0.0
 40
12.5
  0
CIRCLE
  5
EB
100
AcDbEntity
100
AcDbCircle
  8
help
 62
256
370
-1
  6
ByLayer
 10
-3900.0
 20
790.0
 30
0.0
 40
12.5
  0
ARC
  5
EC
100
AcDbEntity
  8
0
 62
256
370
-1
  6
ByLayer
100
AcDbCircle
 10
-3910.0
 20
950.0
 30
0.0
 40
10.0
100
AcDbArc
 50
90.0
 51
180.0
  0
LINE
  5
ED
100
AcDbEntity
100
AcDbLine
  8
0
 62
256
370
-1
  6
ByLayer
 10
-3920.0
 20
780.0
 30
0.0
 11
-3920.0
 21
950.0
 31
0.0
  0
ARC
  5
EE
100
AcDbEntity
  8
0
 62
256
370
-1
  6
ByLayer
100
AcDbCircle
 10
-3910.0
 20
780.0
 30
0.0
 40
10.0
100
AcDbArc
 50
180.0
 51
270.0
  0
CIRCLE
  5
EF
100
AcDbEntity
100
AcDbCircle
  8
0
 62
256
370
-1
  6
ByLayer
 10
-3900.0
 20
790.0
 30
0.0
 40
2.5
  0
CIRCLE
  5
F0
100
AcDbEntity
100
AcDbCircle
  8
0
 62
256
370
-1
  6
ByLayer
 10
-3900.0
 20
940.0
 30
0.0
 40
2.5
  0
DIMENSION
  5
F1
100
AcDbEntity
  8
dimensions
 62
256
370
-1
  6
ByLayer
100
AcDbDimension
 10
-3930.0
 20
770.0
 30
0.0
 11
-3931.875
 21
865.0
 31
0.0
 70
0
 71
5
 72
1
 41
1.0
 42
0.0
  1

  3
Standard
100
AcDbAlignedDimension
 13
-3910.0
 23
960.0
 33
0.0
 14
-3910.0
 24
770.0
 34
0.0
 50
90.0
100
AcDbRotatedDimension
  0
CIRCLE
  5
F2
100
AcDbEntity
100
AcDbCircle
  8
help
 62
256
370
-1
  6
ByLayer
 10
-3790.0
 20
940.0
 30
0.0
 40
12.5
  0
CIRCLE
  5
F3
100
AcDbEntity
100
AcDbCircle
  8
help
 62
256
370
-1
  6
ByLayer
 10
-3790.0
 20
790.0
 30
0.0
 40
12.5
  0
ARC
  5
F4
100
AcDbEntity
  8
0
 62
256
370
-1
  6
ByLayer
100
AcDbCircle
 10
-3780.0
 20
950.0
 30
0.0
 40
10.0
100
AcDbArc
 50
0.0
 51
90.0
  0
LINE
  5
F5
100
AcDbEntity
100
AcDbLine
  8
0
 62
256
370
-1
  6
ByLayer
 10
-3770.0
 20
950.0
 30
0.0
 11
-3770.0
 21
780.0
 31
0.0
  0
ARC
  5
F6
100
AcDbEntity
  8
0
 62
256
370
-1
  6
ByLayer
100
AcDbCircle
 10
-3780.0
 20
780.0
 30
0.0
 40
10.0
100
AcDbArc
 50
270.0
 51
0.0
  0
CIRCLE
  5
F7
100
AcDbEntity
100
AcDbCircle
  8
0
 62
256
370
-1
  6
ByLayer
 10
-3790.0
 20
790.0
 30
0.0
 40
2.5
  0
CIRCLE
  5
F8
100
AcDbEntity
100
AcDbCircle
  8
0
 62
256
370
-1
  6
ByLayer
 10
-3790.0
 20
940.0
 30
0.0
 40
2.5
  0
LINE
  5
F9
100
AcDbEntity
100
AcDbLine
  8
0
 62
256
370
-1
  6
ByLayer
 10
-3910.0
 20
960.0
 30
0.0
 11
-3780.0
 21
960.0
 31
0.0
  0
LINE
  5
FA
100
AcDbEntity
100
AcDbLine
  8
0
 62
256
370
-1
  6
ByLayer
 10
-3780.0
 20
770.0
 30
0.0
 11
-3910.0
 21
770.0
 31
0.0
  0
DIMENSION
  5
FB
100
AcDbEntity
  8
dimensions
 62
256
370
-1
  6
ByLayer
100
AcDbDimension
 10
-3770.0
 20
750.0
 30
0.0
 11
-3845.0
 21
751.875
 31
0.0
 70
0
 71
5
 72
1
 41
1.0
 42
0.0
  1

  3
Standard
100
AcDbAlignedDimension
 13
-3920.0
 23
780.0
 33
0.0
 14
-3770.0
 24
780.0
 34
0.0
 50
0.0
100
AcDbRotatedDimension
  0
DIMENSION
  5
FC
100
AcDbEntity
  8
dimensions
 62
256
370
-1
  6
ByLayer
100
AcDbDimension
 10
-3900.0
 20
760.0
 30
0.0
 11
-3845.0
 21
761.875
 31
0.0
 70
0
 71
5
 72
1
 41
1.0
 42
0.0
  1

  3
Standard
100
AcDbAlignedDimension
 13
-3790.0
 23
790.0
 33
0.0
 14
-3900.0
 24
790.0
 34
0.0
 50
0.0
100
AcDbRotatedDimension
  0
DIMENSION
  5
FD
100
AcDbEntity
  8
dimensions
 62
256
370
-1
  6
ByLayer
100
AcDbDimension
 10
-3770.0
 20
965.0
 30
0.0
 11
-3780.0
 21
966.875
 31
0.0
 70
0
 71
5
 72
1
 41
1.0
 42
0.0
  1

  3
Standard
100
AcDbAlignedDimension
 13
-3790.0
 23
940.0
 33
0.0
 14
-3770.0
 24
940.0
 34
0.0
 50
0.0
100
AcDbRotatedDimension
  0
CIRCLE
  5
FE
100
AcDbEntity
100
AcDbCircle
  8
motor
 62
256
370
-1
  6
ByLayer
 10
-1100.0
 20
20.0
 30
0.0
 40
4.0
  0
CIRCLE
  5
FF
100
AcDbEntity
100
AcDbCircle
  8
motor
 62
256
370
-1
  6
ByLayer
 10
-800.0
 20
20.0
 30
0.0
 40
4.0
  0
CIRCLE
  5
100
100
AcDbEntity
100
AcDbCircle
  8
motor
 62
256
370
-1
  6
ByLayer
 10
-1100.0
 20
20.0
 30
0.0
 40
40.0
  0
CIRCLE
  5
101
100
AcDbEntity
100
AcDbCircle
  8
motor
 62
256
370
-1
  6
ByLayer
 10
-800.0
 20
20.0
 30
0.0
 40
40.0
  0
CIRCLE
  5
102
100
AcDbEntity
100
AcDbCircle
  8
motor
 62
256
370
-1
  6
ByLayer
 10
-800.0
 20
20.0
 30
0.0
 40
20.0
  0
CIRCLE
  5
103
100
AcDbEntity
100
AcDbCircle
  8
motor
 62
256
370
-1
  6
ByLayer
 10
-1100.0
 20
20.0
 30
0.0
 40
20.0
  0
LINE
  5
104
100
AcDbEntity
100
AcDbLine
  8
motor
 62
256
370
-1
  6
ByLayer
 10
-800.0
 20
0.0
 30
0.0
 11
-1100.0
 21
0.0
 31
0.0
  0
LINE
  5
105
100
AcDbEntity
100
AcDbLine
  8
0
 62
256
370
-1
  6
ByLayer
 10
-945.0
 20
280.0
 30
0.0
 11
-945.0
 21
190.0
 31
0.0
  0
LINE
  5
106
100
AcDbEntity
100
AcDbLine
  8
0
 62
256
370
-1
  6
ByLayer
 10
-840.0
 20
40.0
 30
0.0
 11
-935.0
 21
40.0
 31
0.0
  0
LINE
  5
107
100
AcDbEntity
100
AcDbLine
  8
0
 62
256
370
-1
  6
ByLayer
 10
-945.0
 20
50.0
 30
0.0
 11
-945.0
 21
150.0
 31
0.0
  0
ARC
  5
108
100
AcDbEntity
  8
0
 62
256
370
-1
  6
ByLayer
100
AcDbCircle
 10
-935.0
 20
280.0
 30
0.0
 40
10.0
100
AcDbArc
 50
90.0
 51
180.0
  0
ARC
  5
109
100
AcDbEntity
  8
0
 62
256
370
-1
  6
ByLayer
100
AcDbCircle
 10
-935.0
 20
190.0
 30
0.0
 40
10.0
100
AcDbArc
 50
180.0
 51
270.0
  0
ARC
  5
10A
100
AcDbEntity
  8
0
 62
256
370
-1
  6
ByLayer
100
AcDbCircle
 10
-935.0
 20
150.0
 30
0.0
 40
10.0
100
AcDbArc
 50
90.0
 51
180.0
  0
ARC
  5
10B
100
AcDbEntity
  8
0
 62
256
370
-1
  6
ByLayer
100
AcDbCircle
 10
-935.0
 20
50.0
 30
0.0
 40
10.0
100
AcDbArc
 50
180.0
 51
270.0
  0
LINE
  5
10C
100
AcDbEntity
100
AcDbLine
  8
0
 62
256
370
-1
  6
ByLayer
 10
-935.0
 20
160.0
 30
0.0
 11
-860.0
 21
160.0
 31
0.0
  0
LINE
  5
10D
100
AcDbEntity
100
AcDbLine
  8
0
 62
256
370
-1
  6
ByLayer
 10
-828.0175315787495265
 20
40.0
 30
0.0
 11
-935.0
 21
40.0
 31
0.0
  0
ARC
  5
10E
100
AcDbEntity
  8
0
 62
256
370
-1
  6
ByLayer
100
AcDbCircle
 10
-828.0175315787495265
 20
49.9999999999999858
 30
0.0
 40
10.0
100
AcDbArc
 50
270.0
 51
17.760911924937556
  0
LINE
  5
10F
100
AcDbEntity
100
AcDbLine
  8
0
 62
256
370
-1
  6
ByLayer
 10
-935.0
 20
160.0
 30
0.0
 11
-860.0487815787495265
 21
160.0
 31
0.0
  0
LINE
  5
110
100
AcDbEntity
100
AcDbLine
  8
0
 62
256
370
-1
  6
ByLayer
 10
-850.5254043660975185
 20
153.0504567634276043
 30
0.0
 11
-818.4941543660975185
 21
53.0504567634275901
 31
0.0
  0
ARC
  5
111
100
AcDbEntity
  8
0
 62
256
370
-1
  6
ByLayer
100
AcDbCircle
 10
-860.0487815787495265
 20
150.0
 30
0.0
 40
10.0
100
AcDbArc
 50
17.760911924937556
 51
90.0
  0
LINE
  5
112
100
AcDbEntity
100
AcDbLine
  8
0
 62
256
370
-1
  6
ByLayer
 10
-935.0
 20
290.0
 30
0.0
 11
-901.6894065787495265
 21
290.0
 31
0.0
  0
ARC
  5
113
100
AcDbEntity
  8
0
 62
256
370
-1
  6
ByLayer
100
AcDbCircle
 10
-901.6894065787495265
 20
280.0
 30
0.0
 40
10.0
100
AcDbArc
 50
17.760911924937389
 51
90.0
  0
LINE
  5
114
100
AcDbEntity
100
AcDbLine
  8
0
 62
256
370
-1
  6
ByLayer
 10
-892.1660293660975185
 20
283.0504567634275759
 30
0.0
 11
-863.3379043660975185
 21
193.0504567634276043
 31
0.0
  0
LINE
  5
115
100
AcDbEntity
100
AcDbLine
  8
0
 62
256
370
-1
  6
ByLayer
 10
-872.8612815787495265
 20
180.0
 30
0.0
 11
-935.0
 21
180.0
 31
0.0
  0
ARC
  5
116
100
AcDbEntity
  8
0
 62
256
370
-1
  6
ByLayer
100
AcDbCircle
 10
-872.8612815787495265
 20
190.0
 30
0.0
 40
10.0
100
AcDbArc
 50
270.0
 51
17.760911924937556
  0
ARC
  5
117
100
AcDbEntity
  8
0
 62
256
370
-1
  6
ByLayer
100
AcDbCircle
 10
-887.0947032893747064
 20
300.0
 30
0.0
 40
20.0
100
AcDbArc
 50
17.7609119249375134
 51
90.0
  0
LINE
  5
118
100
AcDbEntity
100
AcDbLine
  8
0
 62
256
370
-1
  6
ByLayer
 10
-1074.1450333146799494
 20
320.0
 30
0.0
 11
-887.0947032893747064
 21
320.0
 31
0.0
  0
ARC
  5
119
100
AcDbEntity
  8
0
 62
256
370
-1
  6
ByLayer
100
AcDbCircle
 10
-1074.1450333146799494
 20
300.0
 30
0.0
 40
20.0
100
AcDbArc
 50
90.0
 51
175.0882118274939216
  0
LINE
  5
11A
100
AcDbEntity
100
AcDbLine
  8
0
 62
256
370
-1
  6
ByLayer
 10
-868.0479488640708041
 20
306.1009135268551518
 30
0.0
 11
-778.3604488640708041
 21
26.1009135268550949
 31
0.0
  0
ARC
  5
11B
100
AcDbEntity
  8
0
 62
256
370
-1
  6
ByLayer
100
AcDbCircle
 10
-797.4072032893747064
 20
20.0
 30
0.0
 40
20.0
100
AcDbArc
 50
269.9999999999997158
 51
17.7609119249373464
  0
LINE
  5
11C
100
AcDbEntity
100
AcDbLine
  8
0
 62
256
370
-1
  6
ByLayer
 10
-1094.0715873390533943
 20
301.7124382364696089
 30
0.0
 11
-1118.1340873390533943
 21
21.7124382364694952
 31
0.0
  0
LINE
  5
11D
100
AcDbEntity
100
AcDbLine
  8
0
 62
256
370
-1
  6
ByLayer
 10
-1098.2075333146799494
 20
0.0
 30
0.0
 11
-797.4072032893748201
 21
0.0
 31
0.0
  0
ARC
  5
11E
100
AcDbEntity
  8
0
 62
256
370
-1
  6
ByLayer
100
AcDbCircle
 10
-1098.2075333146799494
 20
20.0
 30
0.0
 40
20.0
100
AcDbArc
 50
175.0882118274942911
 51
270.0
  0
CIRCLE
  5
11F
100
AcDbEntity
100
AcDbCircle
  8
motor
 62
256
370
-1
  6
ByLayer
 10
-1052.25
 20
116.4233937586588041
 30
0.0
 40
1.5
  0
CIRCLE
  5
120
100
AcDbEntity
100
AcDbCircle
  8
motor
 62
256
370
-1
  6
ByLayer
 10
-1067.75
 20
116.4233937586587899
 30
0.0
 40
1.5
  0
CIRCLE
  5
121
100
AcDbEntity
100
AcDbCircle
  8
motor
 62
256
370
-1
  6
ByLayer
 10
-1075.5
 20
103.0
 30
0.0
 40
1.5
  0
CIRCLE
  5
122
100
AcDbEntity
100
AcDbCircle
  8
motor
 62
256
370
-1
  6
ByLayer
 10
-1044.5
 20
103.0
 30
0.0
 40
1.5
  0
CIRCLE
  5
123
100
AcDbEntity
100
AcDbCircle
  8
motor
 62
256
370
-1
  6
ByLayer
 10
-1052.25
 20
89.5766062413411959
 30
0.0
 40
1.5
  0
CIRCLE
  5
124
100
AcDbEntity
100
AcDbCircle
  8
motor
 62
256
370
-1
  6
ByLayer
 10
-1067.75
 20
89.5766062413412101
 30
0.0
 40
1.5
  0
CIRCLE
  5
125
100
AcDbEntity
100
AcDbCircle
  8
motor
 62
256
370
-1
  6
ByLayer
 10
-1060.0
 20
110.0
 30
0.0
 40
6.0
  0
CIRCLE
  5
126
100
AcDbEntity
100
AcDbCircle
  8
motor
 62
256
370
-1
  6
ByLayer
 10
-1060.0
 20
110.0
 30
0.0
 40
3.0
  0
CIRCLE
  5
127
100
AcDbEntity
100
AcDbCircle
  8
motor
 62
256
370
-1
  6
ByLayer
 10
-1060.0
 20
103.0
 30
0.0
 40
18.3999999999999986
  0
CIRCLE
  5
128
100
AcDbEntity
100
AcDbCircle
  8
motor
 62
256
370
-1
  6
ByLayer
 10
-1060.0
 20
110.0
 30
0.0
 40
10.0
  0
CIRCLE
  5
129
100
AcDbEntity
100
AcDbCircle
  8
motor
 62
256
370
-1
  6
ByLayer
 10
-1020.0
 20
60.0
 30
0.0
 40
10.0
  0
LINE
  5
12A
100
AcDbEntity
100
AcDbLine
  8
motor
 62
256
370
-1
  6
ByLayer
 10
-1119.4477460403250006
 20
24.6674590465283643
 30
0.0
 11
-1068.5638514915999622
 21
115.1633756041781993
 31
0.0
  0
LINE
  5
12B
100
AcDbEntity
100
AcDbLine
  8
motor
 62
256
370
-1
  6
ByLayer
 10
-1050.0
 20
112.0
 30
0.0
 11
-1029.2516861854414856
 21
56.2044364415658677
 31
0.0
  0
LINE
  5
12C
100
AcDbEntity
100
AcDbLine
  8
motor
 62
256
370
-1
  6
ByLayer
 10
-1020.0
 20
50.0
 30
0.0
 11
-800.0
 21
40.0
 31
0.0
  0
DIMENSION
  5
12D
100
AcDbEntity
  8
dimensions
 62
256
370
-1
  6
ByLayer
100
AcDbDimension
 10
-1160.0
 20
0.0000000000000098
 30
0.0
 11
-1161.875
 21
160.0
 31
0.0
 70
0
 71
5
 72
1
 41
1.0
 42
0.0
  1

  3
Standard
100
AcDbAlignedDimension
 13
-1074.1450333146799494
 23
320.0
 33
0.0
 14
-1080.0
 24
0.0
 34
0.0
 50
90.0
100
AcDbRotatedDimension
  0
ARC
  5
12E
100
AcDbEntity
  8
0
 62
256
370
-1
  6
ByLayer
100
AcDbCircle
 10
-3713.0
 20
79.9999999999988631
 30
0.0
 40
9.9999999999999467
100
AcDbArc
 50
100.467176684703972
 51
270.0
  0
CIRCLE
  5
12F
100
AcDbEntity
100
AcDbCircle
  8
0
 62
256
370
-1
  6
ByLayer
 10
-1082.0
 20
125.0
 30
0.0
 40
3.0
  0
CIRCLE
  5
130
100
AcDbEntity
100
AcDbCircle
  8
0
 62
256
370
-1
  6
ByLayer
 10
-1082.0
 20
81.0
 30
0.0
 40
3.0
  0
CIRCLE
  5
131
100
AcDbEntity
100
AcDbCircle
  8
0
 62
256
370
-1
  6
ByLayer
 10
-1038.0
 20
81.0
 30
0.0
 40
3.0
  0
CIRCLE
  5
132
100
AcDbEntity
100
AcDbCircle
  8
0
 62
256
370
-1
  6
ByLayer
 10
-1038.0
 20
125.0
 30
0.0
 40
3.0
  0
CIRCLE
  5
133
100
AcDbEntity
100
AcDbCircle
  8
0
 62
256
370
-1
  6
ByLayer
 10
-1060.0
 20
110.0
 30
0.0
 40
6.25
  0
CIRCLE
  5
134
100
AcDbEntity
100
AcDbCircle
  8
0
 62
256
370
-1
  6
ByLayer
 10
-1067.75
 20
116.4233937586587899
 30
0.0
 40
1.5
  0
CIRCLE
  5
135
100
AcDbEntity
100
AcDbCircle
  8
0
 62
256
370
-1
  6
ByLayer
 10
-1075.5
 20
103.0
 30
0.0
 40
1.5
  0
CIRCLE
  5
136
100
AcDbEntity
100
AcDbCircle
  8
0
 62
256
370
-1
  6
ByLayer
 10
-1067.75
 20
89.5766062413412101
 30
0.0
 40
1.5
  0
CIRCLE
  5
137
100
AcDbEntity
100
AcDbCircle
  8
0
 62
256
370
-1
  6
ByLayer
 10
-1052.25
 20
89.5766062413411959
 30
0.0
 40
1.5
  0
CIRCLE
  5
138
100
AcDbEntity
100
AcDbCircle
  8
0
 62
256
370
-1
  6
ByLayer
 10
-1044.5
 20
103.0
 30
0.0
 40
1.5
  0
CIRCLE
  5
139
100
AcDbEntity
100
AcDbCircle
  8
0
 62
256
370
-1
  6
ByLayer
 10
-1052.25
 20
116.4233937586588041
 30
0.0
 40
1.5
  0
ARC
  5
13A
100
AcDbEntity
  8
0
 62
256
370
-1
  6
ByLayer
100
AcDbCircle
 10
-1080.0
 20
123.0
 30
0.0
 40
10.0
100
AcDbArc
 50
90.0
 51
180.0
  0
LINE
  5
13B
100
AcDbEntity
100
AcDbLine
  8
0
 62
256
370
-1
  6
ByLayer
 10
-1080.0
 20
133.0
 30
0.0
 11
-1040.0
 21
133.0
 31
0.0
  0
ARC
  5
13C
100
AcDbEntity
  8
0
 62
256
370
-1
  6
ByLayer
100
AcDbCircle
 10
-1040.0
 20
123.0
 30
0.0
 40
10.0
100
AcDbArc
 50
0.0
 51
90.0
  0
LINE
  5
13D
100
AcDbEntity
100
AcDbLine
  8
0
 62
256
370
-1
  6
ByLayer
 10
-1090.0
 20
123.0
 30
0.0
 11
-1090.0
 21
83.0
 31
0.0
  0
ARC
  5
13E
100
AcDbEntity
  8
0
 62
256
370
-1
  6
ByLayer
100
AcDbCircle
 10
-1080.0
 20
83.0
 30
0.0
 40
10.0
100
AcDbArc
 50
180.0
 51
270.0
  0
LINE
  5
13F
100
AcDbEntity
100
AcDbLine
  8
0
 62
256
370
-1
  6
ByLayer
 10
-1030.0
 20
123.0
 30
0.0
 11
-1030.0
 21
83.0
 31
0.0
  0
LINE
  5
140
100
AcDbEntity
100
AcDbLine
  8
0
 62
256
370
-1
  6
ByLayer
 10
-1080.0
 20
73.0
 30
0.0
 11
-1040.0
 21
73.0
 31
0.0
  0
ARC
  5
141
100
AcDbEntity
  8
0
 62
256
370
-1
  6
ByLayer
100
AcDbCircle
 10
-1040.0
 20
83.0
 30
0.0
 40
10.0
100
AcDbArc
 50
270.0
 51
0.0
  0
CIRCLE
  5
142
100
AcDbEntity
100
AcDbCircle
  8
0
 62
256
370
-1
  6
ByLayer
 10
8.0
 20
252.0
 30
0.0
 40
3.0
  0
CIRCLE
  5
143
100
AcDbEntity
100
AcDbCircle
  8
0
 62
256
370
-1
  6
ByLayer
 10
8.0
 20
208.0
 30
0.0
 40
3.0
  0
CIRCLE
  5
144
100
AcDbEntity
100
AcDbCircle
  8
0
 62
256
370
-1
  6
ByLayer
 10
52.0
 20
208.0
 30
0.0
 40
3.0
  0
CIRCLE
  5
145
100
AcDbEntity
100
AcDbCircle
  8
0
 62
256
370
-1
  6
ByLayer
 10
52.0
 20
252.0
 30
0.0
 40
3.0
  0
CIRCLE
  5
146
100
AcDbEntity
100
AcDbCircle
  8
0
 62
256
370
-1
  6
ByLayer
 10
30.0
 20
237.0
 30
0.0
 40
6.25
  0
CIRCLE
  5
147
100
AcDbEntity
100
AcDbCircle
  8
0
 62
256
370
-1
  6
ByLayer
 10
22.25
 20
243.4233937586587899
 30
0.0
 40
1.5
  0
CIRCLE
  5
148
100
AcDbEntity
100
AcDbCircle
  8
0
 62
256
370
-1
  6
ByLayer
 10
14.5
 20
230.0
 30
0.0
 40
1.5
  0
CIRCLE
  5
149
100
AcDbEntity
100
AcDbCircle
  8
0
 62
256
370
-1
  6
ByLayer
 10
22.25
 20
216.5766062413412101
 30
0.0
 40
1.5
  0
CIRCLE
  5
14A
100
AcDbEntity
100
AcDbCircle
  8
0
 62
256
370
-1
  6
ByLayer
 10
37.75
 20
216.5766062413412101
 30
0.0
 40
1.5
  0
CIRCLE
  5
14B
100
AcDbEntity
100
AcDbCircle
  8
0
 62
256
370
-1
  6
ByLayer
 10
45.5
 20
230.0
 30
0.0
 40
1.5
  0
CIRCLE
  5
14C
100
AcDbEntity
100
AcDbCircle
  8
0
 62
256
370
-1
  6
ByLayer
 10
37.75
 20
243.4233937586587899
 30
0.0
 40
1.5
  0
ARC
  5
14D
100
AcDbEntity
  8
0
 62
256
370
-1
  6
ByLayer
100
AcDbCircle
 10
10.0
 20
250.0
 30
0.0
 40
10.0
100
AcDbArc
 50
90.0
 51
180.0
  0
LINE
  5
14E
100
AcDbEntity
100
AcDbLine
  8
0
 62
256
370
-1
  6
ByLayer
 10
10.0
 20
260.0
 30
0.0
 11
50.0
 21
260.0
 31
0.0
  0
ARC
  5
14F
100
AcDbEntity
  8
0
 62
256
370
-1
  6
ByLayer
100
AcDbCircle
 10
50.0
 20
250.0
 30
0.0
 40
10.0
100
AcDbArc
 50
0.0
 51
90.0
  0
LINE
  5
150
100
AcDbEntity
100
AcDbLine
  8
0
 62
256
370
-1
  6
ByLayer
 10
0.0
 20
250.0
 30
0.0
 11
0.0
 21
210.0
 31
0.0
  0
ARC
  5
151
100
AcDbEntity
  8
0
 62
256
370
-1
  6
ByLayer
100
AcDbCircle
 10
10.0
 20
210.0
 30
0.0
 40
10.0
100
AcDbArc
 50
180.0
 51
270.0
  0
LINE
  5
152
100
AcDbEntity
100
AcDbLine
  8
0
 62
256
370
-1
  6
ByLayer
 10
60.0
 20
250.0
 30
0.0
 11
60.0
 21
210.0
 31
0.0
  0
LINE
  5
153
100
AcDbEntity
100
AcDbLine
  8
0
 62
256
370
-1
  6
ByLayer
 10
10.0
 20
200.0
 30
0.0
 11
50.0
 21
200.0
 31
0.0
  0
ARC
  5
154
100
AcDbEntity
  8
0
 62
256
370
-1
  6
ByLayer
100
AcDbCircle
 10
50.0
 20
210.0
 30
0.0
 40
10.0
100
AcDbArc
 50
270.0
 51
0.0
  0
DIMENSION
  5
155
100
AcDbEntity
  8
dimensions
 62
256
370
-1
  6
ByLayer
100
AcDbDimension
 10
54.1213203435596455
 20
205.8786796564403687
 30
0.0
 11
53.3258252147247731
 21
209.3258252147247731
 31
0.0
 70
3
 71
5
 72
0
 41
1.0
 42
0.0
  1

  3
Standard
100
AcDbDiametricDimension
 15
49.8786796564403545
 25
210.1213203435596313
 35
0.0
 40
0.0
  0
DIMENSION
  5
156
100
AcDbEntity
  8
dimensions
 62
256
370
-1
  6
ByLayer
100
AcDbDimension
 10
34.4194173824159222
 20
232.5805826175840707
 30
0.0
 11
31.3258252147247767
 21
238.3258252147247731
 31
0.0
 70
3
 71
5
 72
0
 41
1.0
 42
0.0
  1

  3
Standard
100
AcDbDiametricDimension
 15
25.5805826175840778
 25
241.4194173824159293
 35
0.0
 40
0.0
  0
DIMENSION
  5
157
100
AcDbEntity
  8
dimensions
 62
256
370
-1
  6
ByLayer
100
AcDbDimension
 10
38.9136765790173911
 20
215.6301091101007614
 30
0.0
 11
38.9331214140505537
 21
218.031201965112956
 31
0.0
 70
3
 71
5
 72
0
 41
1.0
 42
0.0
  1

  3
Standard
100
AcDbDiametricDimension
 15
36.5863234209826089
 25
217.5231033725816587
 35
0.0
 40
0.0
  0
DIMENSION
  5
158
100
AcDbEntity
  8
dimensions
 62
256
370
-1
  6
ByLayer
100
AcDbDimension
 10
-0.0000000000000009
 20
195.0
 30
0.0
 11
4.0000000000000009
 21
196.875
 31
0.0
 70
0
 71
5
 72
0
 41
1.0
 42
0.0
  1

  3
Standard
100
AcDbAlignedDimension
 13
8.0
 23
208.0
 33
0.0
 14
0.0
 24
210.0
 34
0.0
 50
0.0
100
AcDbRotatedDimension
  0
DIMENSION
  5
159
100
AcDbEntity
  8
dimensions
 62
256
370
-1
  6
ByLayer
100
AcDbDimension
 10
29.9999999999999964
 20
192.0
 30
0.0
 11
15.0000000000000018
 21
193.875
 31
0.0
 70
0
 71
5
 72
0
 41
1.0
 42
0.0
  1

  3
Standard
100
AcDbAlignedDimension
 13
0.0
 23
210.0
 33
0.0
 14
30.0
 24
237.0
 34
0.0
 50
0.0
100
AcDbRotatedDimension
  0
DIMENSION
  5
15A
100
AcDbEntity
  8
dimensions
 62
256
370
-1
  6
ByLayer
100
AcDbDimension
 10
60.0
 20
186.0
 30
0.0
 11
30.0
 21
187.875
 31
0.0
 70
0
 71
5
 72
0
 41
1.0
 42
0.0
  1

  3
Standard
100
AcDbAlignedDimension
 13
-0.0000000000000001
 23
209.375
 33
0.0
 14
60.0
 24
210.0
 34
0.0
 50
0.0
100
AcDbRotatedDimension
  0
DIMENSION
  5
15B
100
AcDbEntity
  8
dimensions
 62
256
370
-1
  6
ByLayer
100
AcDbDimension
 10
-3.0
 20
200.0
 30
0.0
 11
-4.875
 21
204.0
 31
0.0
 70
0
 71
5
 72
0
 41
1.0
 42
0.0
  1

  3
Standard
100
AcDbAlignedDimension
 13
8.0
 23
208.0
 33
0.0
 14
10.0
 24
200.0
 34
0.0
 50
90.0
100
AcDbRotatedDimension
  0
DIMENSION
  5
15C
100
AcDbEntity
  8
dimensions
 62
256
370
-1
  6
ByLayer
100
AcDbDimension
 10
-8.0
 20
200.0
 30
0.0
 11
-9.8749999999999982
 21
218.5
 31
0.0
 70
0
 71
5
 72
0
 41
1.0
 42
0.0
  1

  3
Standard
100
AcDbAlignedDimension
 13
30.0
 23
237.0
 33
0.0
 14
50.0
 24
200.0
 34
0.0
 50
90.0
100
AcDbRotatedDimension
  0
DIMENSION
  5
15D
100
AcDbEntity
  8
dimensions
 62
256
370
-1
  6
ByLayer
100
AcDbDimension
 10
60.0
 20
262.0
 30
0.0
 11
52.75
 21
263.875
 31
0.0
 70
0
 71
5
 72
0
 41
1.0
 42
0.0
  1

  3
Standard
100
AcDbAlignedDimension
 13
45.5
 23
230.0
 33
0.0
 14
60.0
 24
230.0
 34
0.0
 50
0.0
100
AcDbRotatedDimension
  0
DIMENSION
  5
15E
100
AcDbEntity
  8
dimensions
 62
256
370
-1
  6
ByLayer
100
AcDbDimension
 10
60.0
 20
267.0
 30
0.0
 11
48.875
 21
268.875
 31
0.0
 70
0
 71
5
 72
0
 41
1.0
 42
0.0
  1

  3
Standard
100
AcDbAlignedDimension
 13
37.75
 23
243.4233937586587899
 33
0.0
 14
60.0
 24
250.0
 34
0.0
 50
0.0
100
AcDbRotatedDimension
  0
DIMENSION
  5
15F
100
AcDbEntity
  8
dimensions
 62
256
370
-1
  6
ByLayer
100
AcDbDimension
 10
60.0
 20
272.0
 30
0.0
 11
41.125
 21
273.875
 31
0.0
 70
0
 71
5
 72
0
 41
1.0
 42
0.0
  1

  3
Standard
100
AcDbAlignedDimension
 13
22.25
 23
243.4233937586587899
 33
0.0
 14
60.0
 24
250.0
 34
0.0
 50
0.0
100
AcDbRotatedDimension
  0
DIMENSION
  5
160
100
AcDbEntity
  8
dimensions
 62
256
370
-1
  6
ByLayer
100
AcDbDimension
 10
60.0
 20
277.0
 30
0.0
 11
37.25
 21
278.875
 31
0.0
 70
0
 71
5
 72
0
 41
1.0
 42
0.0
  1

  3
Standard
100
AcDbAlignedDimension
 13
14.5
 23
230.0
 33
0.0
 14
60.0
 24
230.625
 34
0.0
 50
0.0
100
AcDbRotatedDimension
  0
ARC
  5
161
100
AcDbEntity
  8
0
 62
256
370
-1
  6
ByLayer
100
AcDbCircle
 10
-2944.7647337239786793
 20
-4422.0457013471441314
 30
0.0
 40
4577.0416613701445385
100
AcDbArc
 50
80.3203372749362075
 51
88.4613781252469238
  0
ARC
  5
162
100
AcDbEntity
  8
0
 62
256
370
-1
  6
ByLayer
100
AcDbCircle
 10
-2822.1360562517006656
 20
143.3493247324136917
 30
0.0
 40
10.0
100
AcDbArc
 50
88.4613781252457301
 51
224.3972821580535708
  0
ARC
  5
163
100
AcDbEntity
  8
0
 62
256
370
-1
  6
ByLayer
100
AcDbCircle
 10
-2944.9999999999968168
 20
23.0434782608716802
 30
0.0
 40
161.9565217391266572
100
AcDbArc
 50
19.3432235593092337
 51
44.3972821580527111
  0
LINE
  5
164
100
AcDbEntity
100
AcDbLine
  8
0
 62
256
370
-1
  6
ByLayer
 10
-2782.750192604120457
 20
69.9999999999996163
 30
0.0
 11
-2177.0
 21
69.9999999999998863
 31
0.0
  0
ARC
  5
165
100
AcDbEntity
  8
0
 62
256
370
-1
  6
ByLayer
100
AcDbCircle
 10
-2782.750192604120457
 20
79.9999999999996163
 30
0.0
 40
10.0
100
AcDbArc
 50
199.3432235593091377
 51
270.0
  0
ARC
  5
166
100
AcDbEntity
  8
0
 62
256
370
-1
  6
ByLayer
100
AcDbCircle
 10
-2844.4354172975504298
 20
79.9999999999995879
 30
0.0
 40
10.0
100
AcDbArc
 50
270.0
 51
24.2467206400184914
  0
ARC
  5
167
100
AcDbEntity
  8
0
 62
256
370
-1
  6
ByLayer
100
AcDbCircle
 10
-2945.0
 20
34.7058823529402076
 30
0.0
 40
120.2941176470598634
100
AcDbArc
 50
24.2467206400183386
 51
155.7532793599816898
  0
LINE
  5
168
100
AcDbEntity
100
AcDbLine
  8
0
 62
256
370
-1
  6
ByLayer
 10
-3045.5645827024495702
 20
69.9999999999994884
 30
0.0
 11
-2844.4354172975504298
 21
69.9999999999995879
 31
0.0
  0
ARC
  5
169
100
AcDbEntity
  8
0
 62
256
370
-1
  6
ByLayer
100
AcDbCircle
 10
-3045.5645827024495702
 20
79.9999999999994884
 30
0.0
 40
10.0
100
AcDbArc
 50
155.753279359981434
 51
270.0
  0
ARC
  5
16A
100
AcDbEntity
  8
0
 62
256
370
-1
  6
ByLayer
100
AcDbCircle
 10
-2945.1927556523673957
 20
-4422.492523992007591
 30
0.0
 40
4577.4892705312486214
100
AcDbArc
 50
91.539006960076577
 51
99.6792468759752381
  0
ARC
  5
16B
100
AcDbEntity
  8
0
 62
256
370
-1
  6
ByLayer
100
AcDbCircle
 10
-3067.8641388398473282
 20
143.3491254922291773
 30
0.0
 40
10.0
100
AcDbArc
 50
315.6028107545753301
 51
91.5390069600763923
  0
ARC
  5
16C
100
AcDbEntity
  8
0
 62
256
370
-1
  6
ByLayer
100
AcDbCircle
 10
-2945.000000000001819
 20
23.0434782608710123
 30
0.0
 40
161.9565217391281351
100
AcDbArc
 50
135.602810754575188
 51
160.656776440690777
  0
LINE
  5
16D
100
AcDbEntity
100
AcDbLine
  8
0
 62
256
370
-1
  6
ByLayer
 10
-3713.0
 20
69.9999999999992042
 30
0.0
 11
-3107.249807395879543
 21
69.9999999999994742
 31
0.0
  0
ARC
  5
16E
100
AcDbEntity
  8
0
 62
256
370
-1
  6
ByLayer
100
AcDbCircle
 10
-3107.249807395879543
 20
79.9999999999994742
 30
0.0
 40
10.0
100
AcDbArc
 50
270.0
 51
340.6567764406906917
  0
CIRCLE
  5
16F
100
AcDbEntity
100
AcDbCircle
  8
help
 62
256
370
-1
  6
ByLayer
 10
-2945.0
 20
34.7058823529402076
 30
0.0
 40
120.2941176470598634
  0
MTEXT
  5
170
100
AcDbEntity
100
AcDbMText
  8
text
 62
256
370
-1
  6
ByLayer
 10
70.0
 20
210.0
 30
0.0
 40
4.0
 41
100.0
 71
1
 72
2
  1
Motor\~plate
  7
standard
 50
0.0
 73
0
 44
1.0
  0
CIRCLE
  5
171
100
AcDbEntity
100
AcDbCircle
  8
motor
 62
256
370
-1
  6
ByLayer
 10
40.0
 20
-100.0
 30
0.0
 40
40.0
  0
CIRCLE
  5
172
100
AcDbEntity
100
AcDbCircle
  8
motor
 62
256
370
-1
  6
ByLayer
 10
40.0
 20
-100.0
 30
0.0
 40
3.0
  0
CIRCLE
  5
173
100
AcDbEntity
100
AcDbCircle
  8
motor
 62
256
370
-1
  6
ByLayer
 10
40.0
 20
-100.0
 30
0.0
 40
4.0
  0
CIRCLE
  5
174
100
AcDbEntity
100
AcDbCircle
  8
motor
 62
256
370
-1
  6
ByLayer
 10
40.0
 20
-100.0
 30
0.0
 40
11.0
  0
CIRCLE
  5
175
100
AcDbEntity
100
AcDbCircle
  8
motor
 62
256
370
-1
  6
ByLayer
 10
40.0
 20
-85.0
 30
0.0
 40
1.5
  0
CIRCLE
  5
176
100
AcDbEntity
100
AcDbCircle
  8
motor
 62
256
370
-1
  6
ByLayer
 10
55.0
 20
-100.0
 30
0.0
 40
1.5
  0
CIRCLE
  5
177
100
AcDbEntity
100
AcDbCircle
  8
motor
 62
256
370
-1
  6
ByLayer
 10
40.0
 20
-100.0
 30
0.0
 40
20.0
  0
DIMENSION
  5
178
100
AcDbEntity
  8
dimensions
 62
256
370
-1
  6
ByLayer
100
AcDbDimension
 10
60.0
 20
-150.0
 30
0.0
 11
40.0
 21
-148.125
 31
0.0
 70
0
 71
5
 72
1
 41
1.0
 42
0.0
  1

  3
Standard
100
AcDbAlignedDimension
 13
20.0
 23
-100.0
 33
0.0
 14
60.0
 24
-100.0
 34
0.0
 50
0.0
100
AcDbRotatedDimension
  0
DIMENSION
  5
179
100
AcDbEntity
  8
dimensions
 62
256
370
-1
  6
ByLayer
100
AcDbDimension
 10
80.0
 20
-156.0
 30
0.0
 11
40.0
 21
-154.125
 31
0.0
 70
0
 71
5
 72
1
 41
1.0
 42
0.0
  1

  3
Standard
100
AcDbAlignedDimension
 13
0.0
 23
-100.0
 33
0.0
 14
80.0
 24
-100.0
 34
0.0
 50
0.0
100
AcDbRotatedDimension
  0
DIMENSION
  5
17A
100
AcDbEntity
  8
dimensions
 62
256
370
-1
  6
ByLayer
100
AcDbDimension
 10
51.0
 20
-66.0
 30
0.0
 11
40.0
 21
-64.125
 31
0.0
 70
0
 71
5
 72
1
 41
1.0
 42
0.0
  1

  3
Standard
100
AcDbAlignedDimension
 13
29.0
 23
-100.0
 33
0.0
 14
51.0
 24
-100.0
 34
0.0
 50
0.0
100
AcDbRotatedDimension
  0
DIMENSION
  5
17B
100
AcDbEntity
  8
dimensions
 62
256
370
-1
  6
ByLayer
100
AcDbDimension
 10
44.0
 20
-71.0
 30
0.0
 11
40.0
 21
-69.125
 31
0.0
 70
0
 71
5
 72
1
 41
1.0
 42
0.0
  1

  3
Standard
100
AcDbAlignedDimension
 13
36.0
 23
-100.0
 33
0.0
 14
44.0
 24
-100.0
 34
0.0
 50
0.0
100
AcDbRotatedDimension
  0
MTEXT
  5
17C
100
AcDbEntity
100
AcDbMText
  8
text
 62
256
370
-1
  6
ByLayer
 10
90.0
 20
-120.0
 30
0.0
 40
4.0
 41
100.0
 71
1
 72
2
  1
Skate\~wheel\~with\~608
  7
standard
 50
0.0
 73
0
 44
1.0
  0
DIMENSION
  5
17D
100
AcDbEntity
  8
text
 62
256
370
-1
  6
ByLayer
100
AcDbDimension
 10
14.5
 20
225.0
 30
0.0
 11
22.25
 21
226.875
 31
0.0
 70
0
 71
5
 72
0
 41
1.0
 42
0.0
  1

  3
Standard
100
AcDbAlignedDimension
 13
30.0
 23
230.0
 33
0.0
 14
14.5
 24
230.625
 34
0.0
 50
0.0
100
AcDbRotatedDimension
  0
LINE
  5
17E
100
AcDbEntity
100
AcDbLine
  8
help
 62
256
370
-1
  6
ByLayer
 10
-950.0
 20
300.0
 30
0.0
 11
-950.0
 21
40.0
 31
0.0
  0
LINE
  5
17F
100
AcDbEntity
100
AcDbLine
  8
help
 62
256
370
-1
  6
ByLayer
 10
-968.0
 20
300.0
 30
0.0
 11
-968.0
 21
40.0000000000000071
 31
0.0
  0
LINE
  5
180
100
AcDbEntity
100
AcDbLine
  8
help
 62
256
370
-1
  6
ByLayer
 10
-986.0
 20
300.0
 30
0.0
 11
-986.0
 21
40.0000000000000142
 31
0.0
  0
LINE
  5
181
100
AcDbEntity
100
AcDbLine
  8
help
 62
256
370
-1
  6
ByLayer
 10
-986.0
 20
179.0
 30
0.0
 11
-1056.0
 21
179.0
 31
0.0
  0
LINE
  5
182
100
AcDbEntity
100
AcDbLine
  8
help
 62
256
370
-1
  6
ByLayer
 10
-986.0
 20
161.0
 30
0.0
 11
-1056.0
 21
161.0
 31
0.0
  0
LINE
  5
183
100
AcDbEntity
100
AcDbLine
  8
help
 62
256
370
-1
  6
ByLayer
 10
-1056.0
 20
197.0
 30
0.0
 11
-1056.0
 21
143.0
 31
0.0
  0
LINE
  5
184
100
AcDbEntity
100
AcDbLine
  8
help
 62
256
370
-1
  6
ByLayer
 10
-1004.0
 20
300.0
 30
0.0
 11
-950.0
 21
300.0
 31
0.0
  0
LINE
  5
185
100
AcDbEntity
100
AcDbLine
  8
help
 62
256
370
-1
  6
ByLayer
 10
-950.0
 20
40.0
 30
0.0
 11
-1004.0
 21
40.0000000000000213
 31
0.0
  0
LINE
  5
186
100
AcDbEntity
100
AcDbLine
  8
help
 62
256
370
-1
  6
ByLayer
 10
-1056.0
 20
143.0
 30
0.0
 11
-1004.0
 21
143.0
 31
0.0
  0
LINE
  5
187
100
AcDbEntity
100
AcDbLine
  8
help
 62
256
370
-1
  6
ByLayer
 10
-1004.0
 20
143.0
 30
0.0
 11
-986.0
 21
161.0
 31
0.0
  0
LINE
  5
188
100
AcDbEntity
100
AcDbLine
  8
help
 62
256
370
-1
  6
ByLayer
 10
-1056.0
 20
197.0
 30
0.0
 11
-1004.0
 21
197.0
 31
0.0
  0
LINE
  5
189
100
AcDbEntity
100
AcDbLine
  8
help
 62
256
370
-1
  6
ByLayer
 10
-1004.0
 20
197.0
 30
0.0
 11
-986.0
 21
179.0
 31
0.0
  0
LINE
  5
18A
100
AcDbEntity
100
AcDbLine
  8
help
 62
256
370
-1
  6
ByLayer
 10
-1004.0
 20
40.0000000000000213
 30
0.0
 11
-1004.0
 21
143.0
 31
0.0
  0
LINE
  5
18B
100
AcDbEntity
100
AcDbLine
  8
help
 62
256
370
-1
  6
ByLayer
 10
-1004.0
 20
300.0
 30
0.0
 11
-1004.0
 21
197.0
 31
0.0
  0
LINE
  5
18C
100
AcDbEntity
100
AcDbLine
  8
help
 62
256
370
-1
  6
ByLayer
 10
-1004.0
 20
197.0
 30
0.0
 11
-986.0
 21
179.0
 31
0.0
  0
ARC
  5
18D
100
AcDbEntity
  8
0
 62
256
370
-1
  6
ByLayer
100
AcDbCircle
 10
-1020.0
 20
280.0
 30
0.0
 40
10.0
100
AcDbArc
 50
0.0
 51
90.0
  0
LINE
  5
18E
100
AcDbEntity
100
AcDbLine
  8
0
 62
256
370
-1
  6
ByLayer
 10
-1055.7900666293596714
 20
290.0
 30
0.0
 11
-1020.0
 21
290.0
 31
0.0
  0
ARC
  5
18F
100
AcDbEntity
  8
0
 62
256
370
-1
  6
ByLayer
100
AcDbCircle
 10
-1055.7900666293596714
 20
280.0
 30
0.0
 40
10.0
100
AcDbArc
 50
90.0
 51
175.0882118274942343
  0
LINE
  5
190
100
AcDbEntity
100
AcDbLine
  8
0
 62
256
370
-1
  6
ByLayer
 10
-1071.5970936415465076
 20
212.856219118234776
 30
0.0
 11
-1065.7533436415465076
 21
280.856219118234776
 31
0.0
  0
ARC
  5
191
100
AcDbEntity
  8
0
 62
256
370
-1
  6
ByLayer
100
AcDbCircle
 10
-1061.6338166293596714
 20
212.0
 30
0.0
 40
10.0
100
AcDbArc
 50
175.0882118274942343
 51
270.0
  0
LINE
  5
192
100
AcDbEntity
100
AcDbLine
  8
0
 62
256
370
-1
  6
ByLayer
 10
-1020.0
 20
202.0
 30
0.0
 11
-1061.6338166293596714
 21
202.0
 31
0.0
  0
LINE
  5
193
100
AcDbEntity
100
AcDbLine
  8
0
 62
256
370
-1
  6
ByLayer
 10
-1010.0
 20
280.0
 30
0.0
 11
-1010.0
 21
212.0
 31
0.0
  0
ARC
  5
194
100
AcDbEntity
  8
0
 62
256
370
-1
  6
ByLayer
100
AcDbCircle
 10
-1020.0
 20
212.0
 30
0.0
 40
10.0
100
AcDbArc
 50
270.0
 51
0.0
  0
LINE
  5
195
100
AcDbEntity
100
AcDbLine
  8
help
 62
256
370
-1
  6
ByLayer
 10
-959.0
 20
300.0
 30
0.0
 11
-959.0
 21
40.0
 31
0.0
  0
LINE
  5
196
100
AcDbEntity
100
AcDbLine
  8
help
 62
256
370
-1
  6
ByLayer
 10
-977.0
 20
300.0
 30
0.0
 11
-977.0
 21
40.0000000000000071
 31
0.0
  0
LINE
  5
197
100
AcDbEntity
100
AcDbLine
  8
help
 62
256
370
-1
  6
ByLayer
 10
-995.0
 20
300.0
 30
0.0
 11
-995.0
 21
40.0000000000000142
 31
0.0
  0
CIRCLE
  5
198
100
AcDbEntity
100
AcDbCircle
  8
0
 62
256
370
-1
  6
ByLayer
 10
-959.0
 20
270.0
 30
0.0
 40
2.0
  0
CIRCLE
  5
199
100
AcDbEntity
100
AcDbCircle
  8
0
 62
256
370
-1
  6
ByLayer
 10
-995.0
 20
270.0
 30
0.0
 40
2.0
  0
CIRCLE
  5
19A
100
AcDbEntity
100
AcDbCircle
  8
0
 62
256
370
-1
  6
ByLayer
 10
-959.0
 20
70.0
 30
0.0
 40
2.0
  0
CIRCLE
  5
19B
100
AcDbEntity
100
AcDbCircle
  8
0
 62
256
370
-1
  6
ByLayer
 10
-995.0
 20
70.0
 30
0.0
 40
2.0
  0
CIRCLE
  5
19C
100
AcDbEntity
100
AcDbCircle
  8
0
 62
256
370
-1
  6
ByLayer
 10
-995.0
 20
130.0
 30
0.0
 40
2.0
  0
CIRCLE
  5
19D
100
AcDbEntity
100
AcDbCircle
  8
0
 62
256
370
-1
  6
ByLayer
 10
-959.0
 20
130.0
 30
0.0
 40
2.0
  0
CIRCLE
  5
19E
100
AcDbEntity
100
AcDbCircle
  8
0
 62
256
370
-1
  6
ByLayer
 10
-995.0
 20
210.0
 30
0.0
 40
2.0
  0
CIRCLE
  5
19F
100
AcDbEntity
100
AcDbCircle
  8
0
 62
256
370
-1
  6
ByLayer
 10
-959.0
 20
210.0
 30
0.0
 40
2.0
  0
LINE
  5
1A0
100
AcDbEntity
100
AcDbLine
  8
0
 62
256
370
-1
  6
ByLayer
 10
-1023.0
 20
80.0
 30
0.0
 11
-1023.0
 21
40.0
 31
0.0
  0
LINE
  5
1A1
100
AcDbEntity
100
AcDbLine
  8
0
 62
256
370
-1
  6
ByLayer
 10
-1017.0
 20
40.0
 30
0.0
 11
-1017.0
 21
80.0
 31
0.0
  0
ARC
  5
1A2
100
AcDbEntity
  8
0
 62
256
370
-1
  6
ByLayer
100
AcDbCircle
 10
-1020.0
 20
80.0
 30
0.0
 40
3.0
100
AcDbArc
 50
0.0
 51
180.0
  0
ARC
  5
1A3
100
AcDbEntity
  8
0
 62
256
370
-1
  6
ByLayer
100
AcDbCircle
 10
-1020.0
 20
40.0
 30
0.0
 40
3.0
100
AcDbArc
 50
180.0
 51
0.0
  0
LINE
  5
1A4
100
AcDbEntity
100
AcDbLine
  8
motor
 62
256
370
-1
  6
ByLayer
 10
-90.0
 20
203.1999999999999886
 30
0.0
 11
-90.0
 21
240.0
 31
0.0
  0
LINE
  5
1A5
100
AcDbEntity
100
AcDbLine
  8
motor
 62
256
370
-1
  6
ByLayer
 10
-60.0
 20
204.0999999999999943
 30
0.0
 11
-60.0
 21
239.0999999999999943
 31
0.0
  0
LINE
  5
1A6
100
AcDbEntity
100
AcDbLine
  8
motor
 62
256
370
-1
  6
ByLayer
 10
-90.0
 20
240.0
 30
0.0
 11
-110.0
 21
240.0
 31
0.0
  0
LINE
  5
1A7
100
AcDbEntity
100
AcDbLine
  8
motor
 62
256
370
-1
  6
ByLayer
 10
-90.0
 20
203.1999999999999886
 30
0.0
 11
-110.0
 21
203.1999999999999886
 31
0.0
  0
LINE
  5
1A8
100
AcDbEntity
100
AcDbLine
  8
motor
 62
256
370
-1
  6
ByLayer
 10
-60.0
 20
204.0999999999999943
 30
0.0
 11
-89.9999999999999858
 21
204.0999999999999943
 31
0.0
  0
LINE
  5
1A9
100
AcDbEntity
100
AcDbLine
  8
motor
 62
256
370
-1
  6
ByLayer
 10
-60.0
 20
239.0999999999999943
 30
0.0
 11
-89.9999999999999858
 21
239.0999999999999943
 31
0.0
  0
LINE
  5
1AA
100
AcDbEntity
100
AcDbLine
  8
motor
 62
256
370
-1
  6
ByLayer
 10
-110.0
 20
240.0
 30
0.0
 11
-110.0
 21
203.1999999999999886
 31
0.0
  0
LINE
  5
1AB
100
AcDbEntity
100
AcDbLine
  8
0
 62
256
370
-1
  6
ByLayer
 10
-113.0
 20
200.0
 30
0.0
 11
-110.0
 21
200.0
 31
0.0
  0
LINE
  5
1AC
100
AcDbEntity
100
AcDbLine
  8
0
 62
256
370
-1
  6
ByLayer
 10
-110.0
 20
200.0
 30
0.0
 11
-110.0
 21
260.0
 31
0.0
  0
LINE
  5
1AD
100
AcDbEntity
100
AcDbLine
  8
0
 62
256
370
-1
  6
ByLayer
 10
-110.0
 20
260.0
 30
0.0
 11
-113.0
 21
260.0
 31
0.0
  0
LINE
  5
1AE
100
AcDbEntity
100
AcDbLine
  8
0
 62
256
370
-1
  6
ByLayer
 10
-113.0
 20
260.0
 30
0.0
 11
-113.0
 21
200.0
 31
0.0
  0
LINE
  5
1AF
100
AcDbEntity
100
AcDbLine
  8
motor
 62
256
370
-1
  6
ByLayer
 10
-116.0
 20
222.6000000000000227
 30
0.0
 11
-116.0
 21
234.6000000000000227
 31
0.0
  0
LINE
  5
1B0
100
AcDbEntity
100
AcDbLine
  8
motor
 62
256
370
-1
  6
ByLayer
 10
-116.0
 20
234.6000000000000227
 30
0.0
 11
-110.0
 21
234.5999999999999943
 31
0.0
  0
LINE
  5
1B1
100
AcDbEntity
100
AcDbLine
  8
motor
 62
256
370
-1
  6
ByLayer
 10
-116.0
 20
222.6000000000000227
 30
0.0
 11
-110.0
 21
222.6000000000000227
 31
0.0
  0
LINE
  5
1B2
100
AcDbEntity
100
AcDbLine
  8
motor
 62
256
370
-1
  6
ByLayer
 10
-131.3000000000000114
 20
225.6000000000000227
 30
0.0
 11
-131.3000000000000114
 21
231.6000000000000227
 31
0.0
  0
LINE
  5
1B3
100
AcDbEntity
100
AcDbLine
  8
motor
 62
256
370
-1
  6
ByLayer
 10
-131.3000000000000114
 20
231.6000000000000227
 30
0.0
 11
-116.0000000000000142
 21
231.6000000000000227
 31
0.0
  0
LINE
  5
1B4
100
AcDbEntity
100
AcDbLine
  8
motor
 62
256
370
-1
  6
ByLayer
 10
-131.3000000000000114
 20
225.6000000000000227
 30
0.0
 11
-116.0000000000000142
 21
225.6000000000000227
 31
0.0
  0
DIMENSION
  5
1B5
100
AcDbEntity
  8
dimensions
 62
256
370
-1
  6
ByLayer
100
AcDbDimension
 10
-138.0999999999999943
 20
227.6000000000000512
 30
0.0
 11
-125.5499999999999972
 21
229.4750000000000512
 31
0.0
 70
0
 71
5
 72
0
 41
1.0
 42
0.0
  1

  3
Standard
100
AcDbAlignedDimension
 13
-113.0
 23
234.6000000000000227
 33
0.0
 14
-138.0999999999999943
 24
227.6000000000000512
 34
0.0
 50
0.0
100
AcDbRotatedDimension
  0
LINE
  5
1B6
100
AcDbEntity
100
AcDbLine
  8
help
 62
256
370
-1
  6
ByLayer
 10
-116.0
 20
228.6000000000000227
 30
0.0
 11
-131.3000000000000114
 21
228.6000000000000227
 31
0.0
  0
LINE
  5
1B7
100
AcDbEntity
100
AcDbLine
  8
motor
 62
256
370
-1
  6
ByLayer
 10
-118.08846833585811
 20
221.9250000000000114
 30
0.0
 11
-118.08846833585811
 21
235.2750000000000057
 31
0.0
  0
LINE
  5
1B8
100
AcDbEntity
100
AcDbLine
  8
motor
 62
256
370
-1
  6
ByLayer
 10
-118.08846833585811
 20
235.2750000000000057
 30
0.0
 11
-124.08846833585811
 21
235.2750000000000057
 31
0.0
  0
LINE
  5
1B9
100
AcDbEntity
100
AcDbLine
  8
motor
 62
256
370
-1
  6
ByLayer
 10
-118.08846833585811
 20
221.9250000000000114
 30
0.0
 11
-124.08846833585811
 21
221.9250000000000114
 31
0.0
  0
LINE
  5
1BA
100
AcDbEntity
100
AcDbLine
  8
motor
 62
256
370
-1
  6
ByLayer
 10
-118.08846833585811
 20
228.6000000000000227
 30
0.0
 11
-124.08846833585811
 21
228.6000000000000227
 31
0.0
  0
LINE
  5
1BB
100
AcDbEntity
100
AcDbLine
  8
motor
 62
256
370
-1
  6
ByLayer
 10
-124.08846833585811
 20
216.0250000000000341
 30
0.0
 11
-124.08846833585811
 21
241.1750000000000398
 31
0.0
  0
LINE
  5
1BC
100
AcDbEntity
100
AcDbLine
  8
motor
 62
256
370
-1
  6
ByLayer
 10
-124.08846833585811
 20
241.1750000000000398
 30
0.0
 11
-138.2884683358581128
 21
241.1750000000000398
 31
0.0
  0
LINE
  5
1BD
100
AcDbEntity
100
AcDbLine
  8
motor
 62
256
370
-1
  6
ByLayer
 10
-124.08846833585811
 20
216.0250000000000341
 30
0.0
 11
-138.2884683358581128
 21
216.0250000000000341
 31
0.0
  0
LINE
  5
1BE
100
AcDbEntity
100
AcDbLine
  8
motor
 62
256
370
-1
  6
ByLayer
 10
-138.2884683358581128
 20
241.1750000000000398
 30
0.0
 11
-138.2884683358581128
 21
216.0250000000000341
 31
0.0
  0
LINE
  5
1BF
100
AcDbEntity
100
AcDbLine
  8
help
 62
256
370
-1
  6
ByLayer
 10
-120.0
 20
170.0
 30
0.0
 11
-120.0
 21
200.0
 31
0.0
  0
LINE
  5
1C0
100
AcDbEntity
100
AcDbLine
  8
help
 62
256
370
-1
  6
ByLayer
 10
-120.0
 20
200.0
 30
0.0
 11
-102.0
 21
200.0
 31
0.0
  0
LINE
  5
1C1
100
AcDbEntity
100
AcDbLine
  8
help
 62
256
370
-1
  6
ByLayer
 10
-102.0
 20
200.0
 30
0.0
 11
-102.0
 21
170.0
 31
0.0
  0
LINE
  5
1C2
100
AcDbEntity
100
AcDbLine
  8
help
 62
256
370
-1
  6
ByLayer
 10
-102.0
 20
170.0
 30
0.0
 11
-120.0
 21
170.0
 31
0.0
  0
LINE
  5
1C3
100
AcDbEntity
100
AcDbLine
  8
help
 62
256
370
-1
  6
ByLayer
 10
-110.0
 20
200.0
 30
0.0
 11
-110.0
 21
190.0
 31
0.0
  0
LINE
  5
1C4
100
AcDbEntity
100
AcDbLine
  8
help
 62
256
370
-1
  6
ByLayer
 10
-110.0
 20
190.0
 30
0.0
 11
-120.0
 21
190.0
 31
0.0
  0
DIMENSION
  5
1C5
100
AcDbEntity
  8
dimensions
 62
256
370
-1
  6
ByLayer
100
AcDbDimension
 10
-102.0
 20
185.0
 30
0.0
 11
-106.0
 21
186.875
 31
0.0
 70
0
 71
5
 72
0
 41
1.0
 42
0.0
  1

  3
Standard
100
AcDbAlignedDimension
 13
-110.0
 23
190.0
 33
0.0
 14
-102.0
 24
189.6208644882709109
 34
0.0
 50
0.0
100
AcDbRotatedDimension
  0
DIMENSION
  5
1C6
100
AcDbEntity
  8
dimensions
 62
256
370
-1
  6
ByLayer
100
AcDbDimension
 10
-120.0
 20
185.0
 30
0.0
 11
-115.0
 21
186.875
 31
0.0
 70
0
 71
5
 72
0
 41
1.0
 42
0.0
  1

  3
Standard
100
AcDbAlignedDimension
 13
-110.0
 23
190.0
 33
0.0
 14
-120.0
 24
190.0
 34
0.0
 50
0.0
100
AcDbRotatedDimension
  0
DIMENSION
  5
1C7
100
AcDbEntity
  8
dimensions
 62
256
370
-1
  6
ByLayer
100
AcDbDimension
 10
-102.0
 20
177.0
 30
0.0
 11
-111.0
 21
178.875
 31
0.0
 70
0
 71
5
 72
0
 41
1.0
 42
0.0
  1

  3
Standard
100
AcDbAlignedDimension
 13
-120.0
 23
170.0
 33
0.0
 14
-102.0
 24
170.0
 34
0.0
 50
0.0
100
AcDbRotatedDimension
  0
DIMENSION
  5
1C8
100
AcDbEntity
  8
dimensions
 62
256
370
-1
  6
ByLayer
100
AcDbDimension
 10
63.6857953963065597
 20
37.0
 30
0.0
 11
61.8107953963065597
 21
24.3000000000000007
 31
0.0
 70
0
 71
5
 72
1
 41
1.0
 42
0.0
  1

  3
Standard
100
AcDbAlignedDimension
 13
74.0
 23
11.6000000000000014
 33
0.0
 14
67.5
 24
37.0
 34
0.0
 50
90.0
100
AcDbRotatedDimension
  0
DIMENSION
  5
1C9
100
AcDbEntity
  8
dimensions
 62
256
370
-1
  6
ByLayer
100
AcDbDimension
 10
74.0
 20
52.5128488355510186
 30
0.0
 11
70.75
 21
54.3878488355510186
 31
0.0
 70
0
 71
5
 72
1
 41
1.0
 42
0.0
  1

  3
Standard
100
AcDbAlignedDimension
 13
67.5
 23
43.0
 33
0.0
 14
74.0
 24
48.3999999999999986
 34
0.0
 50
0.0
100
AcDbRotatedDimension
  0
DIMENSION
  5
1CA
100
AcDbEntity
  8
dimensions
 62
256
370
-1
  6
ByLayer
100
AcDbDimension
 10
52.0
 20
52.5064642946591746
 30
0.0
 11
59.75
 21
54.3814642946591746
 31
0.0
 70
0
 71
5
 72
1
 41
1.0
 42
0.0
  1

  3
Standard
100
AcDbAlignedDimension
 13
67.5
 23
43.0
 33
0.0
 14
52.0
 24
40.0
 34
0.0
 50
0.0
100
AcDbRotatedDimension
  0
DIMENSION
  5
1CB
100
AcDbEntity
  8
dimensions
 62
256
370
-1
  6
ByLayer
100
AcDbDimension
 10
-2945.0
 20
34.7058823529402076
 30
0.0
 11
0.0
 21
0.0
 31
0.0
 70
4
 71
5
 72
0
 41
1.0
 42
0.0
  1

  3
Standard
100
AcDbRadialDimension
 15
-2867.501497520252542
 25
126.7094521417328252
 35
0.0
 40
0.0
  0
DIMENSION
  5
1CC
100
AcDbEntity
  8
dimensions
 62
256
370
-1
  6
ByLayer
100
AcDbDimension
 10
-2944.9999999999968168
 20
23.0434782608716802
 30
0.0
 11
0.0
 21
0.0
 31
0.0
 70
4
 71
5
 72
0
 41
1.0
 42
0.0
  1

  3
Standard
100
AcDbRadialDimension
 15
-2807.4590829550470517
 25
108.5561151765372898
 35
0.0
 40
0.0
  0
MTEXT
  5
1CD
100
AcDbEntity
100
AcDbMText
  8
dimensions
 62
256
370
-1
  6
ByLayer
 10
-3450.0
 20
190.0
 30
0.0
 40
3.0
 41
100.0
 71
1
 72
2
  1
4581
  7
standard
 50
0.0
 73
1
 44
1.0
  0
MTEXT
  5
1CE
100
AcDbEntity
100
AcDbMText
  8
dimensions
 62
256
370
-1
  6
ByLayer
 10
-3450.0
 20
150.0
 30
0.0
 40
3.0
 41
100.0
 71
1
 72
2
  1
4581
  7
standard
 50
0.0
 73
1
 44
1.0
  0
MTEXT
  5
1CF
100
AcDbEntity
100
AcDbMText
  8
dimensions
 62
256
370
-1
  6
ByLayer
 10
-3440.0
 20
120.0
 30
0.0
 40
3.0
 41
100.0
 71
1
 72
2
  1
4581
  7
standard
 50
0.0
 73
1
 44
1.0
  0
DIMENSION
  5
1D0
100
AcDbEntity
  8
dimensions
 62
256
370
-1
  6
ByLayer
100
AcDbDimension
 10
-944.9619312211360693
 20
40.0
 30
0.0
 11
-946.8369312211360693
 21
20.0
 31
0.0
 70
0
 71
5
 72
0
 41
1.0
 42
0.0
  1

  3
Standard
100
AcDbAlignedDimension
 13
-950.0
 23
0.0
 33
0.0
 14
-950.0
 24
40.0
 34
0.0
 50
90.0
100
AcDbRotatedDimension
  0
DIMENSION
  5
1D1
100
AcDbEntity
  8
dimensions
 62
256
370
-1
  6
ByLayer
100
AcDbDimension
 10
-946.827414262981506
 20
320.0
 30
0.0
 11
-948.702414262981506
 21
310.0
 31
0.0
 70
0
 71
5
 72
0
 41
1.0
 42
0.0
  1

  3
Standard
100
AcDbAlignedDimension
 13
-950.0
 23
300.0
 33
0.0
 14
-950.0
 24
320.0
 34
0.0
 50
90.0
100
AcDbRotatedDimension
  0
DIMENSION
  5
1D2
100
AcDbEntity
  8
dimensions
 62
256
370
-1
  6
ByLayer
100
AcDbDimension
 10
-1056.0
 20
170.0
 30
0.0
 11
-1021.0
 21
171.875
 31
0.0
 70
0
 71
5
 72
1
 41
1.0
 42
0.0
  1

  3
Standard
100
AcDbAlignedDimension
 13
-986.0
 23
170.0
 33
0.0
 14
-1056.0
 24
170.0
 34
0.0
 50
0.0
100
AcDbRotatedDimension
  0
LINE
  5
1D3
100
AcDbEntity
100
AcDbLine
  8
help
 62
256
370
-1
  6
ByLayer
 10
-1905.0
 20
40.0
 30
0.0
 11
-1905.0
 21
-460.0
 31
0.0
  0
LINE
  5
1D4
100
AcDbEntity
100
AcDbLine
  8
help
 62
256
370
-1
  6
ByLayer
 10
-3985.0
 20
40.0
 30
0.0
 11
-3985.0
 21
-460.0
 31
0.0
  0
DIMENSION
  5
1D5
100
AcDbEntity
  8
dimensions
 62
256
370
-1
  6
ByLayer
100
AcDbDimension
 10
-1905.0
 20
-400.0
 30
0.0
 11
-2945.0
 21
-398.125
 31
0.0
 70
0
 71
5
 72
1
 41
1.0
 42
0.0
  1

  3
Standard
100
AcDbAlignedDimension
 13
-3985.0
 23
-460.0
 33
0.0
 14
-1905.0
 24
-460.0
 34
0.0
 50
0.0
100
AcDbRotatedDimension
  0
LINE
  5
1D6
100
AcDbEntity
100
AcDbLine
  8
0
 62
256
370
-1
  6
ByLayer
 10
-3985.0
 20
-460.0
 30
0.0
 11
-1905.0
 21
-460.0
 31
0.0
  0
LINE
  5
1D7
100
AcDbEntity
100
AcDbLine
  8
0
 62
256
370
-1
  6
ByLayer
 10
-3985.0
 20
-530.0
 30
0.0
 11
-1905.0
 21
-530.0
 31
0.0
  0
LINE
  5
1D8
100
AcDbEntity
100
AcDbLine
  8
0
 62
256
370
-1
  6
ByLayer
 10
-1905.0
 20
-530.0
 30
0.0
 11
-1905.0
 21
-460.0
 31
0.0
  0
LINE
  5
1D9
100
AcDbEntity
100
AcDbLine
  8
0
 62
256
370
-1
  6
ByLayer
 10
-3985.0
 20
-530.0
 30
0.0
 11
-3985.0
 21
-460.0
 31
0.0
  0
LINE
  5
1DA
100
AcDbEntity
100
AcDbLine
  8
help
 62
256
370
-1
  6
ByLayer
 10
-2795.0
 20
-530.0
 30
0.0
 11
-2795.0
 21
-460.0
 31
0.0
  0
LINE
  5
1DB
100
AcDbEntity
100
AcDbLine
  8
help
 62
256
370
-1
  6
ByLayer
 10
-1925.0
 20
-530.0
 30
0.0
 11
-1925.0
 21
-460.0
 31
0.0
  0
LINE
  5
1DC
100
AcDbEntity
100
AcDbLine
  8
0
 62
256
370
-1
  6
ByLayer
 10
-3353.2457351945704431
 20
-460.0
 30
0.0
 11
-3095.0
 21
-460.0
 31
0.0
  0
DIMENSION
  5
1DD
100
AcDbEntity
  8
dimensions
 62
256
370
-1
  6
ByLayer
100
AcDbDimension
 10
-4000.0
 20
-530.0
 30
0.0
 11
-4001.875
 21
-495.0
 31
0.0
 70
0
 71
5
 72
1
 41
1.0
 42
0.0
  1

  3
Standard
100
AcDbAlignedDimension
 13
-3985.0
 23
-460.0
 33
0.0
 14
-3985.0
 24
-530.0
 34
0.0
 50
90.0
100
AcDbRotatedDimension
  0
LINE
  5
1DE
100
AcDbEntity
100
AcDbLine
  8
help
 62
256
370
-1
  6
ByLayer
 10
-2945.0
 20
-605.0
 30
0.0
 11
-2945.0
 21
-315.0
 31
0.0
  0
LINE
  5
1DF
100
AcDbEntity
100
AcDbLine
  8
help
 62
256
370
-1
  6
ByLayer
 10
-3095.0
 20
-605.0
 30
0.0
 11
-3095.0
 21
-315.0
 31
0.0
  0
DIMENSION
  5
1E0
100
AcDbEntity
  8
dimensions
 62
256
370
-1
  6
ByLayer
100
AcDbDimension
 10
-3095.0
 20
-430.0
 30
0.0
 11
-3530.0
 21
-428.125
 31
0.0
 70
0
 71
5
 72
0
 41
1.0
 42
0.0
  1

  3
Standard
100
AcDbAlignedDimension
 13
-3965.0
 23
-450.0
 33
0.0
 14
-3095.0
 24
-460.0
 34
0.0
 50
0.0
100
AcDbRotatedDimension
  0
LINE
  5
1E1
100
AcDbEntity
100
AcDbLine
  8
help
 62
256
370
-1
  6
ByLayer
 10
-3385.0
 20
-605.0
 30
0.0
 11
-3385.0
 21
-314.9999999999999432
 31
0.0
  0
LINE
  5
1E2
100
AcDbEntity
100
AcDbLine
  8
help
 62
256
370
-1
  6
ByLayer
 10
-3675.0
 20
-605.0
 30
0.0
 11
-3675.0
 21
-314.9999999999998863
 31
0.0
  0
LINE
  5
1E3
100
AcDbEntity
100
AcDbLine
  8
help
 62
256
370
-1
  6
ByLayer
 10
-3965.0
 20
-605.0
 30
0.0
 11
-3965.0
 21
-314.9999999999998295
 31
0.0
  0
DIMENSION
  5
1E4
100
AcDbEntity
  8
dimensions
 62
256
370
-1
  6
ByLayer
100
AcDbDimension
 10
-3675.0
 20
-450.0
 30
0.0
 11
-3820.0
 21
-448.125
 31
0.0
 70
0
 71
5
 72
0
 41
1.0
 42
0.0
  1

  3
Standard
100
AcDbAlignedDimension
 13
-3965.0
 23
-460.0
 33
0.0
 14
-3675.0
 24
-460.0
 34
0.0
 50
0.0
100
AcDbRotatedDimension
  0
DIMENSION
  5
1E5
100
AcDbEntity
  8
dimensions
 62
256
370
-1
  6
ByLayer
100
AcDbDimension
 10
-3385.0
 20
-440.0
 30
0.0
 11
-3675.0
 21
-438.125
 31
0.0
 70
0
 71
5
 72
0
 41
1.0
 42
0.0
  1

  3
Standard
100
AcDbAlignedDimension
 13
-3965.0
 23
-460.0
 33
0.0
 14
-3385.0
 24
-460.0
 34
0.0
 50
0.0
100
AcDbRotatedDimension
  0
LINE
  5
1E6
100
AcDbEntity
100
AcDbLine
  8
help
 62
256
370
-1
  6
ByLayer
 10
-3985.0
 20
-480.0
 30
0.0
 11
-1905.0
 21
-480.0
 31
0.0
  0
LINE
  5
1E7
100
AcDbEntity
100
AcDbLine
  8
help
 62
256
370
-1
  6
ByLayer
 10
-3985.0
 20
-510.0
 30
0.0
 11
-1905.0
 21
-510.0
 31
0.0
  0
LINE
  5
1E8
100
AcDbEntity
100
AcDbLine
  8
help
 62
256
370
-1
  6
ByLayer
 10
-3965.0
 20
-459.9999999999998863
 30
0.0
 11
-3675.0
 21
-459.9999999999999432
 31
0.0
  0
ARC
  5
1E9
100
AcDbEntity
  8
0
 62
256
370
-1
  6
ByLayer
100
AcDbCircle
 10
-3936.2540321881356249
 20
-485.0
 30
0.0
 40
5.0
100
AcDbArc
 50
298.9396265565292765
 51
90.0
  0
ARC
  5
1EA
100
AcDbEntity
  8
0
 62
256
370
-1
  6
ByLayer
100
AcDbCircle
 10
-3820.0
 20
-695.2499999999990905
 30
0.0
 40
235.2499999999992895
100
AcDbArc
 50
118.9396265565302286
 51
125.6425272958023811
  0
ARC
  5
1EB
100
AcDbEntity
  8
0
 62
256
370
-1
  6
ByLayer
100
AcDbCircle
 10
-3960.0
 20
-500.00640215361733
 30
0.0
 40
5.0
100
AcDbArc
 50
180.0
 51
305.6425272958026653
  0
LINE
  5
1EC
100
AcDbEntity
100
AcDbLine
  8
0
 62
256
370
-1
  6
ByLayer
 10
-3960.0
 20
-480.0
 30
0.0
 11
-3936.2540321881356249
 21
-480.0
 31
0.0
  0
LINE
  5
1ED
100
AcDbEntity
100
AcDbLine
  8
0
 62
256
370
-1
  6
ByLayer
 10
-3965.0
 20
-500.00640215361733
 30
0.0
 11
-3965.0
 21
-485.0
 31
0.0
  0
ARC
  5
1EE
100
AcDbEntity
  8
0
 62
256
370
-1
  6
ByLayer
100
AcDbCircle
 10
-3960.0
 20
-485.0
 30
0.0
 40
5.0
100
AcDbArc
 50
90.0
 51
180.0
  0
ARC
  5
1EF
100
AcDbEntity
  8
0
 62
256
370
-1
  6
ByLayer
100
AcDbCircle
 10
-3913.8616002420585573
 20
-505.0
 30
0.0
 40
5.0
100
AcDbArc
 50
114.0573478819678428
 51
270.0
  0
ARC
  5
1F0
100
AcDbEntity
  8
0
 62
256
370
-1
  6
ByLayer
100
AcDbCircle
 10
-3820.0
 20
-715.2499999999990905
 30
0.0
 40
235.2499999999992326
100
AcDbArc
 50
65.9426521180338057
 51
114.0573478819662085
  0
LINE
  5
1F1
100
AcDbEntity
100
AcDbLine
  8
0
 62
256
370
-1
  6
ByLayer
 10
-3726.1383997579414427
 20
-510.0
 30
0.0
 11
-3913.8616002420585573
 21
-510.0
 31
0.0
  0
ARC
  5
1F2
100
AcDbEntity
  8
0
 62
256
370
-1
  6
ByLayer
100
AcDbCircle
 10
-3726.1383997579414427
 20
-505.0
 30
0.0
 40
5.0
100
AcDbArc
 50
270.0
 51
65.9426521180321714
  0
LINE
  5
1F3
100
AcDbEntity
100
AcDbLine
  8
0
 62
256
370
-1
  6
ByLayer
 10
-3675.0
 20
-480.0000000000001705
 30
0.0
 11
-3703.7459678118643751
 21
-480.0000000000001137
 31
0.0
  0
ARC
  5
1F4
100
AcDbEntity
  8
0
 62
256
370
-1
  6
ByLayer
100
AcDbCircle
 10
-3703.7459678118643751
 20
-485.0000000000001137
 30
0.0
 40
5.0
100
AcDbArc
 50
90.0
 51
241.0603734434700698
  0
LINE
  5
1F5
100
AcDbEntity
100
AcDbLine
  8
0
 62
256
370
-1
  6
ByLayer
 10
-3675.0
 20
-480.0000000000001705
 30
0.0
 11
-3646.2540321881356249
 21
-480.0000000000001137
 31
0.0
  0
ARC
  5
1F6
100
AcDbEntity
  8
0
 62
256
370
-1
  6
ByLayer
100
AcDbCircle
 10
-3646.2540321881356249
 20
-485.0000000000001137
 30
0.0
 40
5.0
100
AcDbArc
 50
298.9396265565299018
 51
90.0
  0
ARC
  5
1F7
100
AcDbEntity
  8
0
 62
256
370
-1
  6
ByLayer
100
AcDbCircle
 10
-3820.0
 20
-695.2499999999990905
 30
0.0
 40
235.2499999999992895
100
AcDbArc
 50
52.8762906509009483
 51
61.0603734434697856
  0
ARC
  5
1F8
100
AcDbEntity
  8
0
 62
256
370
-1
  6
ByLayer
100
AcDbCircle
 10
-3530.0
 20
-695.2499999999990905
 30
0.0
 40
235.2499999999992895
100
AcDbArc
 50
118.9396265565302286
 51
127.1237093490990731
  0
ARC
  5
1F9
100
AcDbEntity
  8
0
 62
256
370
-1
  6
ByLayer
100
AcDbCircle
 10
-3675.0
 20
-503.6904465968872273
 30
0.0
 40
5.0
100
AcDbArc
 50
232.8762906509005575
 51
307.1237093490994425
  0
ARC
  5
1FA
100
AcDbEntity
  8
0
 62
256
370
-1
  6
ByLayer
100
AcDbCircle
 10
-3623.8616002420585573
 20
-505.0
 30
0.0
 40
5.0
100
AcDbArc
 50
114.0573478819678428
 51
270.0
  0
ARC
  5
1FB
100
AcDbEntity
  8
0
 62
256
370
-1
  6
ByLayer
100
AcDbCircle
 10
-3530.0
 20
-715.2499999999990905
 30
0.0
 40
235.2499999999992326
100
AcDbArc
 50
65.9426521180338057
 51
114.0573478819662085
  0
LINE
  5
1FC
100
AcDbEntity
100
AcDbLine
  8
0
 62
256
370
-1
  6
ByLayer
 10
-3623.8616002420585573
 20
-510.0
 30
0.0
 11
-3436.1383997579414427
 21
-510.0
 31
0.0
  0
ARC
  5
1FD
100
AcDbEntity
  8
0
 62
256
370
-1
  6
ByLayer
100
AcDbCircle
 10
-3436.1383997579414427
 20
-505.0
 30
0.0
 40
5.0
100
AcDbArc
 50
270.0
 51
65.9426521180321714
  0
LINE
  5
1FE
100
AcDbEntity
100
AcDbLine
  8
0
 62
256
370
-1
  6
ByLayer
 10
-3385.0
 20
-480.0000000000003979
 30
0.0
 11
-3413.7459678118639204
 21
-480.0000000000002842
 31
0.0
  0
ARC
  5
1FF
100
AcDbEntity
  8
0
 62
256
370
-1
  6
ByLayer
100
AcDbCircle
 10
-3413.7459678118639204
 20
-485.0000000000002842
 30
0.0
 40
5.0
100
AcDbArc
 50
90.0
 51
241.0603734434703824
  0
LINE
  5
200
100
AcDbEntity
100
AcDbLine
  8
0
 62
256
370
-1
  6
ByLayer
 10
-3385.0
 20
-480.0000000000003979
 30
0.0
 11
-3356.2540321881360796
 21
-480.0000000000003979
 31
0.0
  0
ARC
  5
201
100
AcDbEntity
  8
0
 62
256
370
-1
  6
ByLayer
100
AcDbCircle
 10
-3356.2540321881360796
 20
-485.0000000000003979
 30
0.0
 40
5.0
100
AcDbArc
 50
298.9396265565302429
 51
90.0
  0
ARC
  5
202
100
AcDbEntity
  8
0
 62
256
370
-1
  6
ByLayer
100
AcDbCircle
 10
-3530.0
 20
-695.2499999999990905
 30
0.0
 40
235.2499999999992895
100
AcDbArc
 50
52.8762906509009483
 51
61.0603734434696648
  0
ARC
  5
203
100
AcDbEntity
  8
0
 62
256
370
-1
  6
ByLayer
100
AcDbCircle
 10
-3240.0
 20
-695.2499999999990905
 30
0.0
 40
235.2499999999992895
100
AcDbArc
 50
118.9396265565303281
 51
127.1237093490990731
  0
ARC
  5
204
100
AcDbEntity
  8
0
 62
256
370
-1
  6
ByLayer
100
AcDbCircle
 10
-3385.0
 20
-503.6904465968872273
 30
0.0
 40
5.0
100
AcDbArc
 50
232.8762906509005575
 51
307.1237093490994425
  0
ARC
  5
205
100
AcDbEntity
  8
0
 62
256
370
-1
  6
ByLayer
100
AcDbCircle
 10
-3123.7459678118634656
 20
-485.0000000000004547
 30
0.0
 40
5.0
100
AcDbArc
 50
90.0
 51
241.0603734434706951
  0
LINE
  5
206
100
AcDbEntity
100
AcDbLine
  8
0
 62
256
370
-1
  6
ByLayer
 10
-3100.0
 20
-480.0000000000004547
 30
0.0
 11
-3123.7459678118634656
 21
-480.0000000000004547
 31
0.0
  0
ARC
  5
207
100
AcDbEntity
  8
0
 62
256
370
-1
  6
ByLayer
100
AcDbCircle
 10
-3100.0
 20
-485.0000000000004547
 30
0.0
 40
5.0
100
AcDbArc
 50
0.0
 51
90.0
  0
ARC
  5
208
100
AcDbEntity
  8
0
 62
256
370
-1
  6
ByLayer
100
AcDbCircle
 10
-3240.0
 20
-695.2499999999990905
 30
0.0
 40
235.2499999999992895
100
AcDbArc
 50
54.3574727041976189
 51
61.060373443469544
  0
ARC
  5
209
100
AcDbEntity
  8
0
 62
256
370
-1
  6
ByLayer
100
AcDbCircle
 10
-3100.0
 20
-500.00640215361733
 30
0.0
 40
5.0
100
AcDbArc
 50
234.357472704197761
 51
0.0
  0
ARC
  5
20A
100
AcDbEntity
  8
0
 62
256
370
-1
  6
ByLayer
100
AcDbCircle
 10
-3146.1383997579418974
 20
-504.9999999999997726
 30
0.0
 40
5.0
100
AcDbArc
 50
270.0
 51
65.942652118036662
  0
ARC
  5
20B
100
AcDbEntity
  8
0
 62
256
370
-1
  6
ByLayer
100
AcDbCircle
 10
-3240.0
 20
-715.2499999999992042
 30
0.0
 40
235.2499999999992326
100
AcDbArc
 50
65.942652118034033
 51
114.0573478819661943
  0
LINE
  5
20C
100
AcDbEntity
100
AcDbLine
  8
0
 62
256
370
-1
  6
ByLayer
 10
-3146.1383997579418974
 20
-509.9999999999997726
 30
0.0
 11
-3333.8616002420585573
 21
-510.0
 31
0.0
  0
ARC
  5
20D
100
AcDbEntity
  8
0
 62
256
370
-1
  6
ByLayer
100
AcDbCircle
 10
-3333.8616002420585573
 20
-505.0
 30
0.0
 40
5.0
100
AcDbArc
 50
114.0573478819680986
 51
270.0
  0
LINE
  5
20E
100
AcDbEntity
100
AcDbLine
  8
0
 62
256
370
-1
  6
ByLayer
 10
-3095.0
 20
-485.0000000000004547
 30
0.0
 11
-3095.0
 21
-500.00640215361733
 31
0.0
  0
LINE
  5
20F
100
AcDbEntity
100
AcDbLine
  8
help
 62
256
370
-1
  6
ByLayer
 10
-3985.0
 20
-485.0
 30
0.0
 11
-1905.0
 21
-485.0
 31
0.0
  0
LINE
  5
210
100
AcDbEntity
100
AcDbLine
  8
help
 62
256
370
-1
  6
ByLayer
 10
-3985.0
 20
-505.0
 30
0.0
 11
-1905.0
 21
-505.0
 31
0.0
  0
LINE
  5
211
100
AcDbEntity
100
AcDbLine
  8
help
 62
256
370
-1
  6
ByLayer
 10
-3960.0
 20
-490.0
 30
0.0
 11
-3960.0
 21
-480.0
 31
0.0
  0
LINE
  5
212
100
AcDbEntity
100
AcDbLine
  8
help
 62
256
370
-1
  6
ByLayer
 10
-3936.2540321881356249
 20
-490.0
 30
0.0
 11
-3936.2540321881356249
 21
-480.0
 31
0.0
  0
LINE
  5
213
100
AcDbEntity
100
AcDbLine
  8
help
 62
256
370
-1
  6
ByLayer
 10
-3960.0
 20
-505.00640215361733
 30
0.0
 11
-3960.0
 21
-495.00640215361733
 31
0.0
  0
LINE
  5
214
100
AcDbEntity
100
AcDbLine
  8
help
 62
256
370
-1
  6
ByLayer
 10
-3913.8616002420585573
 20
-510.0
 30
0.0
 11
-3913.8616002420585573
 21
-500.0
 31
0.0
  0
LINE
  5
215
100
AcDbEntity
100
AcDbLine
  8
help
 62
256
370
-1
  6
ByLayer
 10
-3726.1383997579414427
 20
-510.0
 30
0.0
 11
-3726.1383997579414427
 21
-500.0
 31
0.0
  0
LINE
  5
216
100
AcDbEntity
100
AcDbLine
  8
help
 62
256
370
-1
  6
ByLayer
 10
-3703.7459678118643751
 20
-490.0000000000001137
 30
0.0
 11
-3703.7459678118643751
 21
-480.0000000000001137
 31
0.0
  0
LINE
  5
217
100
AcDbEntity
100
AcDbLine
  8
help
 62
256
370
-1
  6
ByLayer
 10
-3646.2540321881356249
 20
-490.0000000000001137
 30
0.0
 11
-3646.2540321881356249
 21
-480.0000000000001137
 31
0.0
  0
LINE
  5
218
100
AcDbEntity
100
AcDbLine
  8
help
 62
256
370
-1
  6
ByLayer
 10
-3623.8616002420585573
 20
-510.0
 30
0.0
 11
-3623.8616002420585573
 21
-500.0
 31
0.0
  0
LINE
  5
219
100
AcDbEntity
100
AcDbLine
  8
help
 62
256
370
-1
  6
ByLayer
 10
-3436.1383997579414427
 20
-510.0
 30
0.0
 11
-3436.1383997579414427
 21
-500.0
 31
0.0
  0
LINE
  5
21A
100
AcDbEntity
100
AcDbLine
  8
help
 62
256
370
-1
  6
ByLayer
 10
-3413.7459678118639204
 20
-490.0000000000002842
 30
0.0
 11
-3413.7459678118639204
 21
-480.0000000000002842
 31
0.0
  0
LINE
  5
21B
100
AcDbEntity
100
AcDbLine
  8
help
 62
256
370
-1
  6
ByLayer
 10
-3356.2540321881360796
 20
-490.0000000000003979
 30
0.0
 11
-3356.2540321881360796
 21
-480.0000000000003979
 31
0.0
  0
LINE
  5
21C
100
AcDbEntity
100
AcDbLine
  8
help
 62
256
370
-1
  6
ByLayer
 10
-3333.8616002420585573
 20
-510.0
 30
0.0
 11
-3333.8616002420585573
 21
-500.0
 31
0.0
  0
LINE
  5
21D
100
AcDbEntity
100
AcDbLine
  8
help
 62
256
370
-1
  6
ByLayer
 10
-3146.1383997579418974
 20
-509.9999999999997726
 30
0.0
 11
-3146.1383997579418974
 21
-499.9999999999997726
 31
0.0
  0
LINE
  5
21E
100
AcDbEntity
100
AcDbLine
  8
help
 62
256
370
-1
  6
ByLayer
 10
-3123.7459678118634656
 20
-490.0000000000004547
 30
0.0
 11
-3123.7459678118634656
 21
-480.0000000000004547
 31
0.0
  0
LINE
  5
21F
100
AcDbEntity
100
AcDbLine
  8
help
 62
256
370
-1
  6
ByLayer
 10
-3100.0
 20
-505.00640215361733
 30
0.0
 11
-3100.0
 21
-495.00640215361733
 31
0.0
  0
LINE
  5
220
100
AcDbEntity
100
AcDbLine
  8
help
 62
256
370
-1
  6
ByLayer
 10
-3100.0
 20
-490.0000000000004547
 30
0.0
 11
-3100.0
 21
-480.0000000000004547
 31
0.0
  0
LINE
  5
221
100
AcDbEntity
100
AcDbLine
  8
help
 62
256
370
-1
  6
ByLayer
 10
-3105.0
 20
-500.00640215361733
 30
0.0
 11
-3095.0
 21
-500.00640215361733
 31
0.0
  0
LINE
  5
222
100
AcDbEntity
100
AcDbLine
  8
help
 62
256
370
-1
  6
ByLayer
 10
-3390.0
 20
-503.6904465968872273
 30
0.0
 11
-3380.0
 21
-503.6904465968872273
 31
0.0
  0
LINE
  5
223
100
AcDbEntity
100
AcDbLine
  8
help
 62
256
370
-1
  6
ByLayer
 10
-3680.0
 20
-503.6904465968872273
 30
0.0
 11
-3670.0
 21
-503.6904465968872273
 31
0.0
  0
LINE
  5
224
100
AcDbEntity
100
AcDbLine
  8
help
 62
256
370
-1
  6
ByLayer
 10
-3965.0
 20
-500.00640215361733
 30
0.0
 11
-3955.0
 21
-500.00640215361733
 31
0.0
  0
LINE
  5
225
100
AcDbEntity
100
AcDbLine
  8
dimensions
 62
256
370
-1
  6
ByLayer
 10
-3820.0
 20
-605.0
 30
0.0
 11
-3820.0
 21
-314.9999999999998863
 31
0.0
  0
LINE
  5
226
100
AcDbEntity
100
AcDbLine
  8
dimensions
 62
256
370
-1
  6
ByLayer
 10
-3530.0
 20
-605.0
 30
0.0
 11
-3530.0
 21
-314.9999999999999432
 31
0.0
  0
LINE
  5
227
100
AcDbEntity
100
AcDbLine
  8
dimensions
 62
256
370
-1
  6
ByLayer
 10
-3240.0
 20
-605.0
 30
0.0
 11
-3240.0
 21
-315.0
 31
0.0
  0
ARC
  5
228
100
AcDbEntity
  8
0
 62
256
370
-1
  6
ByLayer
100
AcDbCircle
 10
-1953.7459678118643751
 20
-485.0000000000002274
 30
0.0
 40
5.0
100
AcDbArc
 50
89.9999999999999858
 51
241.0603734434706951
  0
ARC
  5
229
100
AcDbEntity
  8
0
 62
256
370
-1
  6
ByLayer
100
AcDbCircle
 10
-2070.0
 20
-695.2499999999995453
 30
0.0
 40
235.2499999999992895
100
AcDbArc
 50
54.3574727041975834
 51
61.0603734434697571
  0
ARC
  5
22A
100
AcDbEntity
  8
0
 62
256
370
-1
  6
ByLayer
100
AcDbCircle
 10
-1930.0
 20
-500.0064021536118162
 30
0.0
 40
5.0
100
AcDbArc
 50
234.3574727041973631
 51
360.0
  0
LINE
  5
22B
100
AcDbEntity
100
AcDbLine
  8
0
 62
256
370
-1
  6
ByLayer
 10
-1930.0
 20
-480.0000000000081855
 30
0.0
 11
-1953.7459678118643751
 21
-480.0000000000067075
 31
0.0
  0
LINE
  5
22C
100
AcDbEntity
100
AcDbLine
  8
0
 62
256
370
-1
  6
ByLayer
 10
-1925.0
 20
-500.0064021536146583
 30
0.0
 11
-1925.0
 21
-485.0000000000002274
 31
0.0
  0
ARC
  5
22D
100
AcDbEntity
  8
0
 62
256
370
-1
  6
ByLayer
100
AcDbCircle
 10
-1930.0
 20
-485.0000000000002274
 30
0.0
 40
5.0
100
AcDbArc
 50
360.0
 51
89.9999999999999858
  0
ARC
  5
22E
100
AcDbEntity
  8
0
 62
256
370
-1
  6
ByLayer
100
AcDbCircle
 10
-1976.1383997579414427
 20
-504.999999999997442
 30
0.0
 40
5.0
100
AcDbArc
 50
270.0
 51
65.9426521180321288
  0
ARC
  5
22F
100
AcDbEntity
  8
0
 62
256
370
-1
  6
ByLayer
100
AcDbCircle
 10
-2070.0
 20
-715.2499999999993179
 30
0.0
 40
235.2499999999992326
100
AcDbArc
 50
65.9426521180337346
 51
114.0573478819661233
  0
LINE
  5
230
100
AcDbEntity
100
AcDbLine
  8
0
 62
256
370
-1
  6
ByLayer
 10
-2163.8616002420585573
 20
-509.9999999999995453
 30
0.0
 11
-1976.1383997579414427
 21
-509.9999999999993179
 31
0.0
  0
ARC
  5
231
100
AcDbEntity
  8
0
 62
256
370
-1
  6
ByLayer
100
AcDbCircle
 10
-2163.8616002420585573
 20
-504.9999999999975557
 30
0.0
 40
5.0
100
AcDbArc
 50
114.0573478819677433
 51
270.0
  0
LINE
  5
232
100
AcDbEntity
100
AcDbLine
  8
0
 62
256
370
-1
  6
ByLayer
 10
-2215.0
 20
-480.0000000000055138
 30
0.0
 11
-2186.2540321881356249
 21
-480.0000000000028422
 31
0.0
  0
ARC
  5
233
100
AcDbEntity
  8
0
 62
256
370
-1
  6
ByLayer
100
AcDbCircle
 10
-2186.2540321881356249
 20
-485.0000000000001705
 30
0.0
 40
5.0
100
AcDbArc
 50
298.9396265565299018
 51
89.9999999999999858
  0
LINE
  5
234
100
AcDbEntity
100
AcDbLine
  8
0
 62
256
370
-1
  6
ByLayer
 10
-2215.0
 20
-480.0000000000055138
 30
0.0
 11
-2243.7459678118643751
 21
-480.0000000000051728
 31
0.0
  0
ARC
  5
235
100
AcDbEntity
  8
0
 62
256
370
-1
  6
ByLayer
100
AcDbCircle
 10
-2243.7459678118643751
 20
-485.0000000000001705
 30
0.0
 40
5.0
100
AcDbArc
 50
89.9999999999999858
 51
241.0603734434700698
  0
ARC
  5
236
100
AcDbEntity
  8
0
 62
256
370
-1
  6
ByLayer
100
AcDbCircle
 10
-2070.0
 20
-695.2499999999995453
 30
0.0
 40
235.2499999999992895
100
AcDbArc
 50
118.9396265565302286
 51
127.1237093490991015
  0
ARC
  5
237
100
AcDbEntity
  8
0
 62
256
370
-1
  6
ByLayer
100
AcDbCircle
 10
-2360.0
 20
-695.2499999999988631
 30
0.0
 40
235.2499999999992895
100
AcDbArc
 50
52.8762906509009056
 51
61.0603734434697571
  0
ARC
  5
238
100
AcDbEntity
  8
0
 62
256
370
-1
  6
ByLayer
100
AcDbCircle
 10
-2215.0
 20
-503.6904465968877957
 30
0.0
 40
5.0
100
AcDbArc
 50
232.8762906509005575
 51
307.1237093490994425
  0
ARC
  5
239
100
AcDbEntity
  8
0
 62
256
370
-1
  6
ByLayer
100
AcDbCircle
 10
-2266.1383997579414427
 20
-505.0000000000029559
 30
0.0
 40
5.0
100
AcDbArc
 50
270.0
 51
65.9426521180321288
  0
ARC
  5
23A
100
AcDbEntity
  8
0
 62
256
370
-1
  6
ByLayer
100
AcDbCircle
 10
-2360.0
 20
-715.2499999999995453
 30
0.0
 40
235.2499999999992326
100
AcDbArc
 50
65.9426521180337346
 51
114.0573478819661233
  0
LINE
  5
23B
100
AcDbEntity
100
AcDbLine
  8
0
 62
256
370
-1
  6
ByLayer
 10
-2266.1383997579414427
 20
-509.9999999999987494
 30
0.0
 11
-2453.8616002420585573
 21
-510.0000000000005684
 31
0.0
  0
ARC
  5
23C
100
AcDbEntity
  8
0
 62
256
370
-1
  6
ByLayer
100
AcDbCircle
 10
-2453.8616002420585573
 20
-504.9999999999992042
 30
0.0
 40
5.0
100
AcDbArc
 50
114.0573478819677433
 51
270.0
  0
LINE
  5
23D
100
AcDbEntity
100
AcDbLine
  8
0
 62
256
370
-1
  6
ByLayer
 10
-2505.0
 20
-479.9999999999977263
 30
0.0
 11
-2476.2540321881360796
 21
-479.9999999999988631
 31
0.0
  0
ARC
  5
23E
100
AcDbEntity
  8
0
 62
256
370
-1
  6
ByLayer
100
AcDbCircle
 10
-2476.2540321881360796
 20
-485.0000000000001137
 30
0.0
 40
5.0
100
AcDbArc
 50
298.9396265565296176
 51
89.9999999999999858
  0
LINE
  5
23F
100
AcDbEntity
100
AcDbLine
  8
0
 62
256
370
-1
  6
ByLayer
 10
-2505.0
 20
-479.9999999999977263
 30
0.0
 11
-2533.7459678118639204
 21
-480.0000000000011937
 31
0.0
  0
ARC
  5
240
100
AcDbEntity
  8
0
 62
256
370
-1
  6
ByLayer
100
AcDbCircle
 10
-2533.7459678118639204
 20
-485.0000000000001137
 30
0.0
 40
5.0
100
AcDbArc
 50
89.9999999999999858
 51
241.0603734434697571
  0
ARC
  5
241
100
AcDbEntity
  8
0
 62
256
370
-1
  6
ByLayer
100
AcDbCircle
 10
-2360.0
 20
-695.2499999999988631
 30
0.0
 40
235.2499999999992895
100
AcDbArc
 50
118.9396265565303281
 51
127.1237093490991015
  0
ARC
  5
242
100
AcDbEntity
  8
0
 62
256
370
-1
  6
ByLayer
100
AcDbCircle
 10
-2650.0
 20
-695.2499999999992042
 30
0.0
 40
235.2499999999992895
100
AcDbArc
 50
52.8762906509009056
 51
61.0603734434696435
  0
ARC
  5
243
100
AcDbEntity
  8
0
 62
256
370
-1
  6
ByLayer
100
AcDbCircle
 10
-2505.0
 20
-503.6904465968864315
 30
0.0
 40
5.0
100
AcDbArc
 50
232.8762906509005575
 51
307.1237093490994425
  0
ARC
  5
244
100
AcDbEntity
  8
0
 62
256
370
-1
  6
ByLayer
100
AcDbCircle
 10
-2766.2540321881365344
 20
-485.0000000000000568
 30
0.0
 40
5.0
100
AcDbArc
 50
298.9396265565293334
 51
89.9999999999999858
  0
LINE
  5
245
100
AcDbEntity
100
AcDbLine
  8
0
 62
256
370
-1
  6
ByLayer
 10
-2790.0
 20
-479.9999999999996589
 30
0.0
 11
-2766.2540321881365344
 21
-480.0000000000009663
 31
0.0
  0
ARC
  5
246
100
AcDbEntity
  8
0
 62
256
370
-1
  6
ByLayer
100
AcDbCircle
 10
-2790.0
 20
-485.0000000000000568
 30
0.0
 40
5.0
100
AcDbArc
 50
89.9999999999999858
 51
180.0
  0
ARC
  5
247
100
AcDbEntity
  8
0
 62
256
370
-1
  6
ByLayer
100
AcDbCircle
 10
-2650.0
 20
-695.2499999999992042
 30
0.0
 40
235.2499999999992895
100
AcDbArc
 50
118.9396265565304134
 51
125.6425272958023385
  0
ARC
  5
248
100
AcDbEntity
  8
0
 62
256
370
-1
  6
ByLayer
100
AcDbCircle
 10
-2790.0
 20
-500.0064021536173868
 30
0.0
 40
5.0
100
AcDbArc
 50
180.0
 51
305.6425272958022106
  0
ARC
  5
249
100
AcDbEntity
  8
0
 62
256
370
-1
  6
ByLayer
100
AcDbCircle
 10
-2743.8616002420581026
 20
-504.9999999999999432
 30
0.0
 40
5.0
100
AcDbArc
 50
114.0573478819633664
 51
270.0
  0
ARC
  5
24A
100
AcDbEntity
  8
0
 62
256
370
-1
  6
ByLayer
100
AcDbCircle
 10
-2650.0
 20
-715.2499999999992042
 30
0.0
 40
235.2499999999992326
100
AcDbArc
 50
65.9426521180338057
 51
114.0573478819660238
  0
LINE
  5
24B
100
AcDbEntity
100
AcDbLine
  8
0
 62
256
370
-1
  6
ByLayer
 10
-2743.8616002420581026
 20
-509.9999999999995453
 30
0.0
 11
-2556.1383997579414427
 21
-510.0000000000002274
 31
0.0
  0
ARC
  5
24C
100
AcDbEntity
  8
0
 62
256
370
-1
  6
ByLayer
100
AcDbCircle
 10
-2556.1383997579414427
 20
-504.9999999999997158
 30
0.0
 40
5.0
100
AcDbArc
 50
270.0
 51
65.942652118031873
  0
LINE
  5
24D
100
AcDbEntity
100
AcDbLine
  8
0
 62
256
370
-1
  6
ByLayer
 10
-2795.0
 20
-485.0000000000000568
 30
0.0
 11
-2795.0
 21
-500.0064021536174437
 31
0.0
  0
LINE
  5
24E
100
AcDbEntity
100
AcDbLine
  8
help
 62
256
370
-1
  6
ByLayer
 10
-1930.0
 20
-489.9999999999923261
 30
0.0
 11
-1930.0
 21
-480.0000000000081855
 31
0.0
  0
LINE
  5
24F
100
AcDbEntity
100
AcDbLine
  8
help
 62
256
370
-1
  6
ByLayer
 10
-1953.7459678118643751
 20
-489.9999999999937472
 30
0.0
 11
-1953.7459678118643751
 21
-480.0000000000067075
 31
0.0
  0
LINE
  5
250
100
AcDbEntity
100
AcDbLine
  8
help
 62
256
370
-1
  6
ByLayer
 10
-1930.0
 20
-505.0064021536189784
 30
0.0
 11
-1930.0
 21
-495.0064021536096561
 31
0.0
  0
LINE
  5
251
100
AcDbEntity
100
AcDbLine
  8
help
 62
256
370
-1
  6
ByLayer
 10
-1976.1383997579414427
 20
-509.9999999999993179
 30
0.0
 11
-1976.1383997579414427
 21
-500.0000000000009095
 31
0.0
  0
LINE
  5
252
100
AcDbEntity
100
AcDbLine
  8
help
 62
256
370
-1
  6
ByLayer
 10
-2163.8616002420585573
 20
-509.9999999999995453
 30
0.0
 11
-2163.8616002420585573
 21
-500.0000000000020464
 31
0.0
  0
LINE
  5
253
100
AcDbEntity
100
AcDbLine
  8
help
 62
256
370
-1
  6
ByLayer
 10
-2186.2540321881356249
 20
-489.9999999999974989
 30
0.0
 11
-2186.2540321881356249
 21
-480.0000000000028422
 31
0.0
  0
LINE
  5
254
100
AcDbEntity
100
AcDbLine
  8
help
 62
256
370
-1
  6
ByLayer
 10
-2243.7459678118643751
 20
-489.9999999999951683
 30
0.0
 11
-2243.7459678118643751
 21
-480.0000000000051728
 31
0.0
  0
LINE
  5
255
100
AcDbEntity
100
AcDbLine
  8
help
 62
256
370
-1
  6
ByLayer
 10
-2266.1383997579414427
 20
-509.9999999999987494
 30
0.0
 11
-2266.1383997579414427
 21
-500.0
 31
0.0
  0
LINE
  5
256
100
AcDbEntity
100
AcDbLine
  8
help
 62
256
370
-1
  6
ByLayer
 10
-2453.8616002420585573
 20
-510.0000000000005684
 30
0.0
 11
-2453.8616002420585573
 21
-499.9999999999984084
 31
0.0
  0
LINE
  5
257
100
AcDbEntity
100
AcDbLine
  8
help
 62
256
370
-1
  6
ByLayer
 10
-2476.2540321881360796
 20
-490.0000000000013642
 30
0.0
 11
-2476.2540321881360796
 21
-479.9999999999988631
 31
0.0
  0
LINE
  5
258
100
AcDbEntity
100
AcDbLine
  8
help
 62
256
370
-1
  6
ByLayer
 10
-2533.7459678118639204
 20
-489.9999999999990337
 30
0.0
 11
-2533.7459678118639204
 21
-480.0000000000011937
 31
0.0
  0
LINE
  5
259
100
AcDbEntity
100
AcDbLine
  8
help
 62
256
370
-1
  6
ByLayer
 10
-2556.1383997579414427
 20
-510.0000000000002274
 30
0.0
 11
-2556.1383997579414427
 21
-499.999999999999261
 31
0.0
  0
LINE
  5
25A
100
AcDbEntity
100
AcDbLine
  8
help
 62
256
370
-1
  6
ByLayer
 10
-2743.8616002420581026
 20
-509.9999999999995453
 30
0.0
 11
-2743.8616002420581026
 21
-499.9999999999997726
 31
0.0
  0
LINE
  5
25B
100
AcDbEntity
100
AcDbLine
  8
help
 62
256
370
-1
  6
ByLayer
 10
-2766.2540321881365344
 20
-490.0000000000003979
 30
0.0
 11
-2766.2540321881365344
 21
-480.0000000000009663
 31
0.0
  0
LINE
  5
25C
100
AcDbEntity
100
AcDbLine
  8
help
 62
256
370
-1
  6
ByLayer
 10
-2790.0
 20
-505.0064021536172163
 30
0.0
 11
-2790.0
 21
-495.0064021536175574
 31
0.0
  0
LINE
  5
25D
100
AcDbEntity
100
AcDbLine
  8
help
 62
256
370
-1
  6
ByLayer
 10
-2790.0
 20
-490.0000000000003979
 30
0.0
 11
-2790.0
 21
-479.9999999999996589
 31
0.0
  0
LINE
  5
25E
100
AcDbEntity
100
AcDbLine
  8
help
 62
256
370
-1
  6
ByLayer
 10
-2785.0
 20
-500.00640215361733
 30
0.0
 11
-2795.0
 21
-500.0064021536174437
 31
0.0
  0
LINE
  5
25F
100
AcDbEntity
100
AcDbLine
  8
help
 62
256
370
-1
  6
ByLayer
 10
-2500.0
 20
-503.6904465968866589
 30
0.0
 11
-2510.0
 21
-503.6904465968873978
 31
0.0
  0
LINE
  5
260
100
AcDbEntity
100
AcDbLine
  8
help
 62
256
370
-1
  6
ByLayer
 10
-2210.0
 20
-503.6904465968858062
 30
0.0
 11
-2220.0
 21
-503.6904465968868863
 31
0.0
  0
LINE
  5
261
100
AcDbEntity
100
AcDbLine
  8
help
 62
256
370
-1
  6
ByLayer
 10
-1925.0
 20
-500.0064021536146583
 30
0.0
 11
-1935.0
 21
-500.006402153618069
 31
0.0
  0
LINE
  5
262
100
AcDbEntity
100
AcDbLine
  8
dimensions
 62
256
370
-1
  6
ByLayer
 10
-2070.0
 20
-605.0000000000010232
 30
0.0
 11
-2070.0
 21
-315.0000000000001137
 31
0.0
  0
LINE
  5
263
100
AcDbEntity
100
AcDbLine
  8
dimensions
 62
256
370
-1
  6
ByLayer
 10
-2360.0
 20
-605.0
 30
0.0
 11
-2360.0
 21
-315.0000000000006253
 31
0.0
  0
LINE
  5
264
100
AcDbEntity
100
AcDbLine
  8
dimensions
 62
256
370
-1
  6
ByLayer
 10
-2650.0
 20
-604.9999999999998863
 30
0.0
 11
-2650.0
 21
-314.9999999999998863
 31
0.0
  0
LINE
  5
265
100
AcDbEntity
100
AcDbLine
  8
help
 62
256
370
-1
  6
ByLayer
 10
-2795.0
 20
-575.0064021536173868
 30
0.0
 11
-2795.0
 21
-425.0064021536173868
 31
0.0
  0
LINE
  5
266
100
AcDbEntity
100
AcDbLine
  8
help
 62
256
370
-1
  6
ByLayer
 10
-2505.0
 20
-578.6904465968869999
 30
0.0
 11
-2505.0
 21
-428.6904465968869999
 31
0.0
  0
LINE
  5
267
100
AcDbEntity
100
AcDbLine
  8
help
 62
256
370
-1
  6
ByLayer
 10
-2215.0
 20
-578.6904465968863178
 30
0.0
 11
-2215.0
 21
-428.6904465968863178
 31
0.0
  0
LINE
  5
268
100
AcDbEntity
100
AcDbLine
  8
help
 62
256
370
-1
  6
ByLayer
 10
-1925.0
 20
-535.0
 30
0.0
 11
-1925.0
 21
-385.0
 31
0.0
  0
LINE
  5
269
100
AcDbEntity
100
AcDbLine
  8
help
 62
256
370
-1
  6
ByLayer
 10
-3945.0
 20
86.9500000000005002
 30
0.0
 11
-3925.0
 21
86.9500000000005002
 31
0.0
  0
LINE
  5
26A
100
AcDbEntity
100
AcDbLine
  8
help
 62
256
370
-1
  6
ByLayer
 10
-3935.0
 20
96.9500000000005002
 30
0.0
 11
-3935.0
 21
76.9500000000005002
 31
0.0
  0
LINE
  5
26B
100
AcDbEntity
100
AcDbLine
  8
help
 62
256
370
-1
  6
ByLayer
 10
-3945.0
 20
190.0000000000001137
 30
0.0
 11
-3925.0
 21
190.0000000000001137
 31
0.0
  0
LINE
  5
26C
100
AcDbEntity
100
AcDbLine
  8
help
 62
256
370
-1
  6
ByLayer
 10
-3935.0
 20
200.0000000000001137
 30
0.0
 11
-3935.0
 21
180.0000000000001137
 31
0.0
  0
LINE
  5
26D
100
AcDbEntity
100
AcDbLine
  8
help
 62
256
370
-1
  6
ByLayer
 10
-3945.0
 20
253.0500000000001819
 30
0.0
 11
-3925.0
 21
253.0500000000001819
 31
0.0
  0
LINE
  5
26E
100
AcDbEntity
100
AcDbLine
  8
help
 62
256
370
-1
  6
ByLayer
 10
-3935.0
 20
263.0500000000001819
 30
0.0
 11
-3935.0
 21
243.0500000000001819
 31
0.0
  0
LINE
  5
26F
100
AcDbEntity
100
AcDbLine
  8
help
 62
256
370
-1
  6
ByLayer
 10
-3945.0
 20
150.0000000000011369
 30
0.0
 11
-3925.0
 21
150.0000000000011369
 31
0.0
  0
LINE
  5
270
100
AcDbEntity
100
AcDbLine
  8
help
 62
256
370
-1
  6
ByLayer
 10
-3935.0
 20
160.0000000000011369
 30
0.0
 11
-3935.0
 21
140.0000000000011369
 31
0.0
  0
LINE
  5
271
100
AcDbEntity
100
AcDbLine
  8
help
 62
256
370
-1
  6
ByLayer
 10
-3596.0
 20
149.9999999999997726
 30
0.0
 11
-3576.0
 21
149.9999999999997726
 31
0.0
  0
LINE
  5
272
100
AcDbEntity
100
AcDbLine
  8
help
 62
256
370
-1
  6
ByLayer
 10
-3586.0
 20
159.9999999999997726
 30
0.0
 11
-3586.0
 21
139.9999999999997726
 31
0.0
  0
LINE
  5
273
100
AcDbEntity
100
AcDbLine
  8
help
 62
256
370
-1
  6
ByLayer
 10
-3596.0
 20
189.9999999999993179
 30
0.0
 11
-3576.0
 21
189.9999999999993179
 31
0.0
  0
LINE
  5
274
100
AcDbEntity
100
AcDbLine
  8
help
 62
256
370
-1
  6
ByLayer
 10
-3586.0
 20
199.9999999999993179
 30
0.0
 11
-3586.0
 21
179.9999999999993179
 31
0.0
  0
LINE
  5
275
100
AcDbEntity
100
AcDbLine
  8
help
 62
256
370
-1
  6
ByLayer
 10
-3723.0
 20
79.9999999999988631
 30
0.0
 11
-3703.0
 21
79.9999999999988631
 31
0.0
  0
LINE
  5
276
100
AcDbEntity
100
AcDbLine
  8
help
 62
256
370
-1
  6
ByLayer
 10
-3713.0
 20
89.9999999999988631
 30
0.0
 11
-3713.0
 21
69.9999999999988631
 31
0.0
  0
LINE
  5
277
100
AcDbEntity
100
AcDbLine
  8
help
 62
256
370
-1
  6
ByLayer
 10
-3117.249807395879543
 20
79.9999999999994742
 30
0.0
 11
-3097.249807395879543
 21
79.9999999999994742
 31
0.0
  0
LINE
  5
278
100
AcDbEntity
100
AcDbLine
  8
help
 62
256
370
-1
  6
ByLayer
 10
-3107.249807395879543
 20
89.9999999999994742
 30
0.0
 11
-3107.249807395879543
 21
69.9999999999994742
 31
0.0
  0
LINE
  5
279
100
AcDbEntity
100
AcDbLine
  8
help
 62
256
370
-1
  6
ByLayer
 10
-3077.8641388398473282
 20
143.3491254922291773
 30
0.0
 11
-3057.8641388398473282
 21
143.3491254922291773
 31
0.0
  0
LINE
  5
27A
100
AcDbEntity
100
AcDbLine
  8
help
 62
256
370
-1
  6
ByLayer
 10
-3067.8641388398473282
 20
153.3491254922291773
 30
0.0
 11
-3067.8641388398473282
 21
133.3491254922291773
 31
0.0
  0
LINE
  5
27B
100
AcDbEntity
100
AcDbLine
  8
help
 62
256
370
-1
  6
ByLayer
 10
-3055.5645827024495702
 20
79.9999999999994884
 30
0.0
 11
-3035.5645827024495702
 21
79.9999999999994884
 31
0.0
  0
LINE
  5
27C
100
AcDbEntity
100
AcDbLine
  8
help
 62
256
370
-1
  6
ByLayer
 10
-3045.5645827024495702
 20
89.9999999999994884
 30
0.0
 11
-3045.5645827024495702
 21
69.9999999999994884
 31
0.0
  0
LINE
  5
27D
100
AcDbEntity
100
AcDbLine
  8
help
 62
256
370
-1
  6
ByLayer
 10
-1945.0000066274640176
 20
86.9503909963194133
 30
0.0
 11
-1965.000006627462426
 21
86.9503831763935722
 31
0.0
  0
LINE
  5
27E
100
AcDbEntity
100
AcDbLine
  8
help
 62
256
370
-1
  6
ByLayer
 10
-1955.0000105374265331
 20
96.9503870863558461
 30
0.0
 11
-1955.0000027175001378
 21
76.9503870863558177
 31
0.0
  0
LINE
  5
27F
100
AcDbEntity
100
AcDbLine
  8
help
 62
256
370
-1
  6
ByLayer
 10
-1945.0000469196347694
 20
190.0003909963097044
 30
0.0
 11
-1965.0000469196331778
 21
190.0003831763824849
 31
0.0
  0
LINE
  5
280
100
AcDbEntity
100
AcDbLine
  8
help
 62
256
370
-1
  6
ByLayer
 10
-1955.0000508295970576
 20
200.0003870863458815
 30
0.0
 11
-1955.0000430096708897
 21
180.0003870863519069
 31
0.0
  0
LINE
  5
281
100
AcDbEntity
100
AcDbLine
  8
help
 62
256
370
-1
  6
ByLayer
 10
-1945.0000715719527307
 20
253.0503909963050546
 30
0.0
 11
-1965.000071571951139
 21
253.0503831763792846
 31
0.0
  0
LINE
  5
282
100
AcDbEntity
100
AcDbLine
  8
help
 62
256
370
-1
  6
ByLayer
 10
-1955.0000754819152462
 20
263.0503870863415159
 30
0.0
 11
-1955.0000676619888509
 21
243.0503870863433917
 31
0.0
  0
LINE
  5
283
100
AcDbEntity
100
AcDbLine
  8
help
 62
256
370
-1
  6
ByLayer
 10
-1945.0000312797819788
 20
150.0003909963271269
 30
0.0
 11
-1965.0000312797806146
 21
150.000383176388624
 31
0.0
  0
LINE
  5
284
100
AcDbEntity
100
AcDbLine
  8
help
 62
256
370
-1
  6
ByLayer
 10
-1955.000035189744267
 20
160.0003870863454551
 30
0.0
 11
-1955.000027369818099
 21
140.0003870863528448
 31
0.0
  0
LINE
  5
285
100
AcDbEntity
100
AcDbLine
  8
help
 62
256
370
-1
  6
ByLayer
 10
-2294.0000312797556035
 20
150.0002545385980568
 30
0.0
 11
-2314.0000312797537845
 21
150.0002467186647834
 31
0.0
  0
LINE
  5
286
100
AcDbEntity
100
AcDbLine
  8
help
 62
256
370
-1
  6
ByLayer
 10
-2304.0000351897178916
 20
160.0002506286350297
 30
0.0
 11
-2304.0000273697914963
 21
140.0002506286371613
 31
0.0
  0
LINE
  5
287
100
AcDbEntity
100
AcDbLine
  8
help
 62
256
370
-1
  6
ByLayer
 10
-2294.0000469196083941
 20
190.0002545385919461
 30
0.0
 11
-2314.0000469196065751
 21
190.000246718667654
 31
0.0
  0
LINE
  5
288
100
AcDbEntity
100
AcDbLine
  8
help
 62
256
370
-1
  6
ByLayer
 10
-2304.0000508295706823
 20
200.0002506286311359
 30
0.0
 11
-2304.0000430096442869
 21
180.0002506286321591
 31
0.0
  0
LINE
  5
289
100
AcDbEntity
100
AcDbLine
  8
help
 62
256
370
-1
  6
ByLayer
 10
-2167.0000039100223148
 20
80.000304195136323
 30
0.0
 11
-2187.0000039100214053
 21
80.0002963752081939
 31
0.0
  0
LINE
  5
28A
100
AcDbEntity
100
AcDbLine
  8
help
 62
256
370
-1
  6
ByLayer
 10
-2177.0000078199850577
 20
90.0003002851720311
 30
0.0
 11
-2177.0000000000586624
 21
70.0003002851728411
 31
0.0
  0
LINE
  5
28B
100
AcDbEntity
100
AcDbLine
  8
help
 62
256
370
-1
  6
ByLayer
 10
-2772.7501965140968423
 20
80.0000673490393694
 30
0.0
 11
-2792.7501965140954781
 21
80.0000595291131589
 31
0.0
  0
LINE
  5
28C
100
AcDbEntity
100
AcDbLine
  8
help
 62
256
370
-1
  6
ByLayer
 10
-2782.7502004240591305
 20
90.0000634390754755
 30
0.0
 11
-2782.7501926041327351
 21
70.0000634390770102
 31
0.0
  0
LINE
  5
28D
100
AcDbEntity
100
AcDbLine
  8
help
 62
256
370
-1
  6
ByLayer
 10
-2812.1358898394009884
 20
143.3491774416127669
 30
0.0
 11
-2832.1358898393996242
 21
143.3491696216864284
 31
0.0
  0
LINE
  5
28E
100
AcDbEntity
100
AcDbLine
  8
help
 62
256
370
-1
  6
ByLayer
 10
-2822.1358937493632766
 20
153.3491735316491429
 30
0.0
 11
-2822.1358859294368813
 21
133.349173531650365
 31
0.0
  0
LINE
  5
28F
100
AcDbEntity
100
AcDbLine
  8
help
 62
256
370
-1
  6
ByLayer
 10
-2844.4354251174845558
 20
90.000039320379642
 30
0.0
 11
-2844.4354172975581605
 21
70.0000393203812052
 31
0.0
  0
LINE
  5
290
100
AcDbEntity
100
AcDbLine
  8
help
 62
256
370
-1
  6
ByLayer
 10
-2854.4354212075213582
 20
80.0000393203804236
 30
0.0
 11
-2834.4354212075213582
 21
80.0000393203804236
 31
0.0
  0
DIMENSION
  5
291
100
AcDbEntity
  8
dimensions
 62
256
370
-1
  6
ByLayer
100
AcDbDimension
 10
-3820.0
 20
-715.2499999999990905
 30
0.0
 11
0.0
 21
0.0
 31
0.0
 70
4
 71
5
 72
1
 41
1.0
 42
0.0
  1

  3
Standard
100
AcDbRadialDimension
 15
-3881.9244324536789463
 25
-488.2964206819161745
 35
0.0
 40
0.0
  0
CIRCLE
  5
292
100
AcDbEntity
100
AcDbCircle
  8
0
 62
256
370
-1
  6
ByLayer
 10
-4412.0
 20
152.0
 30
0.0
 40
3.0
  0
CIRCLE
  5
293
100
AcDbEntity
100
AcDbCircle
  8
0
 62
256
370
-1
  6
ByLayer
 10
-4412.0
 20
108.0
 30
0.0
 40
3.0
  0
CIRCLE
  5
294
100
AcDbEntity
100
AcDbCircle
  8
0
 62
256
370
-1
  6
ByLayer
 10
-4368.0
 20
108.0
 30
0.0
 40
3.0
  0
CIRCLE
  5
295
100
AcDbEntity
100
AcDbCircle
  8
0
 62
256
370
-1
  6
ByLayer
 10
-4368.0
 20
152.0
 30
0.0
 40
3.0
  0
CIRCLE
  5
296
100
AcDbEntity
100
AcDbCircle
  8
0
 62
256
370
-1
  6
ByLayer
 10
-4390.0
 20
137.0
 30
0.0
 40
6.25
  0
CIRCLE
  5
297
100
AcDbEntity
100
AcDbCircle
  8
0
 62
256
370
-1
  6
ByLayer
 10
-4397.75
 20
143.4233937586587899
 30
0.0
 40
1.5
  0
CIRCLE
  5
298
100
AcDbEntity
100
AcDbCircle
  8
0
 62
256
370
-1
  6
ByLayer
 10
-4405.5
 20
130.0
 30
0.0
 40
1.5
  0
CIRCLE
  5
299
100
AcDbEntity
100
AcDbCircle
  8
0
 62
256
370
-1
  6
ByLayer
 10
-4397.75
 20
116.5766062413412101
 30
0.0
 40
1.5
  0
CIRCLE
  5
29A
100
AcDbEntity
100
AcDbCircle
  8
0
 62
256
370
-1
  6
ByLayer
 10
-4382.25
 20
116.5766062413412101
 30
0.0
 40
1.5
  0
CIRCLE
  5
29B
100
AcDbEntity
100
AcDbCircle
  8
0
 62
256
370
-1
  6
ByLayer
 10
-4374.5
 20
130.0
 30
0.0
 40
1.5
  0
CIRCLE
  5
29C
100
AcDbEntity
100
AcDbCircle
  8
0
 62
256
370
-1
  6
ByLayer
 10
-4382.25
 20
143.4233937586587899
 30
0.0
 40
1.5
  0
ARC
  5
29D
100
AcDbEntity
  8
0
 62
256
370
-1
  6
ByLayer
100
AcDbCircle
 10
-4410.0
 20
150.0
 30
0.0
 40
10.0
100
AcDbArc
 50
90.0
 51
180.0
  0
LINE
  5
29E
100
AcDbEntity
100
AcDbLine
  8
0
 62
256
370
-1
  6
ByLayer
 10
-4410.0
 20
160.0
 30
0.0
 11
-4370.0
 21
160.0
 31
0.0
  0
ARC
  5
29F
100
AcDbEntity
  8
0
 62
256
370
-1
  6
ByLayer
100
AcDbCircle
 10
-4370.0
 20
150.0
 30
0.0
 40
10.0
100
AcDbArc
 50
0.0
 51
90.0
  0
LINE
  5
2A0
100
AcDbEntity
100
AcDbLine
  8
0
 62
256
370
-1
  6
ByLayer
 10
-4420.0
 20
150.0
 30
0.0
 11
-4420.0
 21
110.0
 31
0.0
  0
ARC
  5
2A1
100
AcDbEntity
  8
0
 62
256
370
-1
  6
ByLayer
100
AcDbCircle
 10
-4410.0
 20
110.0
 30
0.0
 40
10.0
100
AcDbArc
 50
180.0
 51
270.0
  0
LINE
  5
2A2
100
AcDbEntity
100
AcDbLine
  8
0
 62
256
370
-1
  6
ByLayer
 10
-4360.0
 20
150.0
 30
0.0
 11
-4360.0
 21
110.0
 31
0.0
  0
LINE
  5
2A3
100
AcDbEntity
100
AcDbLine
  8
0
 62
256
370
-1
  6
ByLayer
 10
-4410.0
 20
100.0
 30
0.0
 11
-4370.0
 21
100.0
 31
0.0
  0
ARC
  5
2A4
100
AcDbEntity
  8
0
 62
256
370
-1
  6
ByLayer
100
AcDbCircle
 10
-4370.0
 20
110.0
 30
0.0
 40
10.0
100
AcDbArc
 50
270.0
 51
0.0
  0
CIRCLE
  5
2A5
100
AcDbEntity
100
AcDbCircle
  8
motor
 62
256
370
-1
  6
ByLayer
 10
-4412.0
 20
90.0
 30
0.0
 40
11.0
  0
CIRCLE
  5
2A6
100
AcDbEntity
100
AcDbCircle
  8
motor
 62
256
370
-1
  6
ByLayer
 10
-4368.0
 20
90.0
 30
0.0
 40
11.0
  0
CIRCLE
  5
2A7
100
AcDbEntity
100
AcDbCircle
  8
0
 62
256
370
-1
  6
ByLayer
 10
-4412.0
 20
90.0
 30
0.0
 40
4.0
  0
CIRCLE
  5
2A8
100
AcDbEntity
100
AcDbCircle
  8
0
 62
256
370
-1
  6
ByLayer
 10
-4368.0
 20
90.0
 30
0.0
 40
4.0
  0
CIRCLE
  5
2A9
100
AcDbEntity
100
AcDbCircle
  8
0
 62
256
370
-1
  6
ByLayer
 10
-4390.0
 20
190.0
 30
0.0
 40
2.5
  0
LINE
  5
2AA
100
AcDbEntity
100
AcDbLine
  8
0
 62
256
370
-1
  6
ByLayer
 10
-4410.0
 20
195.0
 30
0.0
 11
-4410.0
 21
185.0
 31
0.0
  0
LINE
  5
2AB
100
AcDbEntity
100
AcDbLine
  8
0
 62
256
370
-1
  6
ByLayer
 10
-4405.0
 20
190.0
 30
0.0
 11
-4415.0
 21
190.0
 31
0.0
  0
LINE
  5
2AC
100
AcDbEntity
100
AcDbLine
  8
0
 62
256
370
-1
  6
ByLayer
 10
-4390.0
 20
195.0
 30
0.0
 11
-4390.0
 21
185.0
 31
0.0
  0
LINE
  5
2AD
100
AcDbEntity
100
AcDbLine
  8
0
 62
256
370
-1
  6
ByLayer
 10
-4385.0
 20
190.0
 30
0.0
 11
-4395.0
 21
190.0
 31
0.0
  0
LINE
  5
2AE
100
AcDbEntity
100
AcDbLine
  8
0
 62
256
370
-1
  6
ByLayer
 10
-4368.0
 20
157.0
 30
0.0
 11
-4368.0
 21
147.0
 31
0.0
  0
LINE
  5
2AF
100
AcDbEntity
100
AcDbLine
  8
0
 62
256
370
-1
  6
ByLayer
 10
-4363.0
 20
152.0
 30
0.0
 11
-4373.0
 21
152.0
 31
0.0
  0
LINE
  5
2B0
100
AcDbEntity
100
AcDbLine
  8
0
 62
256
370
-1
  6
ByLayer
 10
-4412.0
 20
157.0
 30
0.0
 11
-4412.0
 21
147.0
 31
0.0
  0
LINE
  5
2B1
100
AcDbEntity
100
AcDbLine
  8
0
 62
256
370
-1
  6
ByLayer
 10
-4407.0
 20
152.0
 30
0.0
 11
-4417.0
 21
152.0
 31
0.0
  0
LINE
  5
2B2
100
AcDbEntity
100
AcDbLine
  8
0
 62
256
370
-1
  6
ByLayer
 10
-4412.0
 20
113.0
 30
0.0
 11
-4412.0
 21
103.0
 31
0.0
  0
LINE
  5
2B3
100
AcDbEntity
100
AcDbLine
  8
0
 62
256
370
-1
  6
ByLayer
 10
-4407.0
 20
108.0
 30
0.0
 11
-4417.0
 21
108.0
 31
0.0
  0
LINE
  5
2B4
100
AcDbEntity
100
AcDbLine
  8
0
 62
256
370
-1
  6
ByLayer
 10
-4368.0
 20
113.0
 30
0.0
 11
-4368.0
 21
103.0
 31
0.0
  0
LINE
  5
2B5
100
AcDbEntity
100
AcDbLine
  8
0
 62
256
370
-1
  6
ByLayer
 10
-4363.0
 20
108.0
 30
0.0
 11
-4373.0
 21
108.0
 31
0.0
  0
LINE
  5
2B6
100
AcDbEntity
100
AcDbLine
  8
0
 62
256
370
-1
  6
ByLayer
 10
-4412.0
 20
95.0
 30
0.0
 11
-4412.0
 21
85.0
 31
0.0
  0
LINE
  5
2B7
100
AcDbEntity
100
AcDbLine
  8
0
 62
256
370
-1
  6
ByLayer
 10
-4407.0
 20
90.0
 30
0.0
 11
-4417.0
 21
90.0
 31
0.0
  0
LINE
  5
2B8
100
AcDbEntity
100
AcDbLine
  8
0
 62
256
370
-1
  6
ByLayer
 10
-4368.0
 20
95.0
 30
0.0
 11
-4368.0
 21
85.0
 31
0.0
  0
LINE
  5
2B9
100
AcDbEntity
100
AcDbLine
  8
0
 62
256
370
-1
  6
ByLayer
 10
-4363.0
 20
90.0
 30
0.0
 11
-4373.0
 21
90.0
 31
0.0
  0
CIRCLE
  5
2BA
100
AcDbEntity
100
AcDbCircle
  8
help
 62
256
370
-1
  6
ByLayer
 10
-4410.0
 20
190.0
 30
0.0
 40
12.5
  0
ARC
  5
2BB
100
AcDbEntity
  8
0
 62
256
370
-1
  6
ByLayer
100
AcDbCircle
 10
-4420.0
 20
200.0
 30
0.0
 40
10.0
100
AcDbArc
 50
90.0
 51
180.0
  0
LINE
  5
2BC
100
AcDbEntity
100
AcDbLine
  8
0
 62
256
370
-1
  6
ByLayer
 10
-4430.0
 20
30.0
 30
0.0
 11
-4430.0
 21
200.0
 31
0.0
  0
ARC
  5
2BD
100
AcDbEntity
  8
0
 62
256
370
-1
  6
ByLayer
100
AcDbCircle
 10
-4420.0
 20
30.0
 30
0.0
 40
10.0
100
AcDbArc
 50
180.0
 51
270.0
  0
CIRCLE
  5
2BE
100
AcDbEntity
100
AcDbCircle
  8
0
 62
256
370
-1
  6
ByLayer
 10
-4410.0
 20
190.0
 30
0.0
 40
2.5
  0
CIRCLE
  5
2BF
100
AcDbEntity
100
AcDbCircle
  8
0
 62
256
370
-1
  6
ByLayer
 10
-4390.0
 20
39.0
 30
0.0
 40
2.5
  0
LINE
  5
2C0
100
AcDbEntity
100
AcDbLine
  8
0
 62
256
370
-1
  6
ByLayer
 10
-4390.0
 20
44.0
 30
0.0
 11
-4390.0
 21
34.0
 31
0.0
  0
LINE
  5
2C1
100
AcDbEntity
100
AcDbLine
  8
0
 62
256
370
-1
  6
ByLayer
 10
-4385.0
 20
39.0
 30
0.0
 11
-4395.0
 21
39.0
 31
0.0
  0
LINE
  5
2C2
100
AcDbEntity
100
AcDbLine
  8
0
 62
256
370
-1
  6
ByLayer
 10
-4410.0
 20
44.0
 30
0.0
 11
-4410.0
 21
34.0
 31
0.0
  0
LINE
  5
2C3
100
AcDbEntity
100
AcDbLine
  8
0
 62
256
370
-1
  6
ByLayer
 10
-4405.0
 20
39.0
 30
0.0
 11
-4415.0
 21
39.0
 31
0.0
  0
CIRCLE
  5
2C4
100
AcDbEntity
100
AcDbCircle
  8
0
 62
256
370
-1
  6
ByLayer
 10
-4410.0
 20
39.0
 30
0.0
 40
4.0
  0
CIRCLE
  5
2C5
100
AcDbEntity
100
AcDbCircle
  8
help
 62
256
370
-1
  6
ByLayer
 10
-4410.0
 20
39.0
 30
0.0
 40
12.5
  0
DIMENSION
  5
2C6
100
AcDbEntity
  8
dimensions
 62
256
370
-1
  6
ByLayer
100
AcDbDimension
 10
-4421.0
 20
39.0
 30
0.0
 11
-4422.875
 21
114.5
 31
0.0
 70
0
 71
5
 72
1
 41
1.0
 42
0.0
  1

  3
Standard
100
AcDbAlignedDimension
 13
-4415.0
 23
190.0
 33
0.0
 14
-4414.0
 24
39.0
 34
0.0
 50
90.0
100
AcDbRotatedDimension
  0
CIRCLE
  5
2C7
100
AcDbEntity
100
AcDbCircle
  8
0
 62
256
370
-1
  6
ByLayer
 10
-4390.0
 20
130.0
 30
0.0
 40
20.0
  0
CIRCLE
  5
2C8
100
AcDbEntity
100
AcDbCircle
  8
0
 62
256
370
-1
  6
ByLayer
 10
-4345.0
 20
80.0
 30
0.0
 40
2.5
  0
CIRCLE
  5
2C9
100
AcDbEntity
100
AcDbCircle
  8
0
 62
256
370
-1
  6
ByLayer
 10
-4345.0
 20
150.0
 30
0.0
 40
2.5
  0
LINE
  5
2CA
100
AcDbEntity
100
AcDbLine
  8
0
 62
256
370
-1
  6
ByLayer
 10
-4345.0
 20
155.0
 30
0.0
 11
-4345.0
 21
145.0
 31
0.0
  0
LINE
  5
2CB
100
AcDbEntity
100
AcDbLine
  8
0
 62
256
370
-1
  6
ByLayer
 10
-4340.0
 20
150.0
 30
0.0
 11
-4350.0
 21
150.0
 31
0.0
  0
LINE
  5
2CC
100
AcDbEntity
100
AcDbLine
  8
0
 62
256
370
-1
  6
ByLayer
 10
-4345.0
 20
85.0
 30
0.0
 11
-4345.0
 21
75.0
 31
0.0
  0
LINE
  5
2CD
100
AcDbEntity
100
AcDbLine
  8
0
 62
256
370
-1
  6
ByLayer
 10
-4340.0
 20
80.0
 30
0.0
 11
-4350.0
 21
80.0
 31
0.0
  0
ARC
  5
2CE
100
AcDbEntity
  8
0
 62
256
370
-1
  6
ByLayer
100
AcDbCircle
 10
-4660.0
 20
200.0
 30
0.0
 40
10.0
100
AcDbArc
 50
90.0
 51
180.0
  0
ARC
  5
2CF
100
AcDbEntity
  8
0
 62
256
370
-1
  6
ByLayer
100
AcDbCircle
 10
-4660.0
 20
30.0
 30
0.0
 40
10.0
100
AcDbArc
 50
180.0
 51
270.0
  0
ARC
  5
2D0
100
AcDbEntity
  8
0
 62
256
370
-1
  6
ByLayer
100
AcDbCircle
 10
-4603.0
 20
157.0
 30
0.0
 40
5.0
100
AcDbArc
 50
0.0
 51
90.0
  0
LINE
  5
2D1
100
AcDbEntity
100
AcDbLine
  8
0
 62
256
370
-1
  6
ByLayer
 10
-4598.0
 20
157.0
 30
0.0
 11
-4598.0
 21
87.0
 31
0.0
  0
ARC
  5
2D2
100
AcDbEntity
  8
0
 62
256
370
-1
  6
ByLayer
100
AcDbCircle
 10
-4603.0
 20
87.0
 30
0.0
 40
5.0
100
AcDbArc
 50
270.0
 51
0.0
  0
LINE
  5
2D3
100
AcDbEntity
100
AcDbLine
  8
0
 62
256
370
-1
  6
ByLayer
 10
-4670.0
 20
167.0
 30
0.0
 11
-4670.0
 21
200.0
 31
0.0
  0
LINE
  5
2D4
100
AcDbEntity
100
AcDbLine
  8
0
 62
256
370
-1
  6
ByLayer
 10
-4665.0
 20
162.0
 30
0.0
 11
-4603.0
 21
162.0
 31
0.0
  0
ARC
  5
2D5
100
AcDbEntity
  8
0
 62
256
370
-1
  6
ByLayer
100
AcDbCircle
 10
-4665.0
 20
167.0
 30
0.0
 40
5.0
100
AcDbArc
 50
180.0
 51
270.0
  0
LINE
  5
2D6
100
AcDbEntity
100
AcDbLine
  8
0
 62
256
370
-1
  6
ByLayer
 10
-4603.0
 20
82.0
 30
0.0
 11
-4665.0
 21
82.0
 31
0.0
  0
LINE
  5
2D7
100
AcDbEntity
100
AcDbLine
  8
0
 62
256
370
-1
  6
ByLayer
 10
-4670.0
 20
77.0
 30
0.0
 11
-4670.0
 21
30.0
 31
0.0
  0
ARC
  5
2D8
100
AcDbEntity
  8
0
 62
256
370
-1
  6
ByLayer
100
AcDbCircle
 10
-4665.0
 20
77.0
 30
0.0
 40
5.0
100
AcDbArc
 50
90.0
 51
180.0
  0
CIRCLE
  5
2D9
100
AcDbEntity
100
AcDbCircle
  8
0
 62
256
370
-1
  6
ByLayer
 10
-4310.0
 20
190.0
 30
0.0
 40
2.5
  0
LINE
  5
2DA
100
AcDbEntity
100
AcDbLine
  8
0
 62
256
370
-1
  6
ByLayer
 10
-4290.0
 20
195.0
 30
0.0
 11
-4290.0
 21
185.0
 31
0.0
  0
LINE
  5
2DB
100
AcDbEntity
100
AcDbLine
  8
0
 62
256
370
-1
  6
ByLayer
 10
-4285.0
 20
190.0
 30
0.0
 11
-4295.0
 21
190.0
 31
0.0
  0
LINE
  5
2DC
100
AcDbEntity
100
AcDbLine
  8
0
 62
256
370
-1
  6
ByLayer
 10
-4310.0
 20
195.0
 30
0.0
 11
-4310.0
 21
185.0
 31
0.0
  0
LINE
  5
2DD
100
AcDbEntity
100
AcDbLine
  8
0
 62
256
370
-1
  6
ByLayer
 10
-4305.0
 20
190.0
 30
0.0
 11
-4315.0
 21
190.0
 31
0.0
  0
DIMENSION
  5
2DE
100
AcDbEntity
  8
dimensions
 62
256
370
-1
  6
ByLayer
100
AcDbDimension
 10
-4260.0
 20
19.9999999999999574
 30
0.0
 11
-4261.875
 21
114.9999999999999858
 31
0.0
 70
0
 71
5
 72
0
 41
1.0
 42
0.0
  1

  3
Standard
100
AcDbAlignedDimension
 13
-4280.0
 23
210.0
 33
0.0
 14
-4280.0
 24
19.9999999999999609
 34
0.0
 50
90.0
100
AcDbRotatedDimension
  0
CIRCLE
  5
2DF
100
AcDbEntity
100
AcDbCircle
  8
help
 62
256
370
-1
  6
ByLayer
 10
-4290.0
 20
190.0
 30
0.0
 40
12.5
  0
ARC
  5
2E0
100
AcDbEntity
  8
0
 62
256
370
-1
  6
ByLayer
100
AcDbCircle
 10
-4280.0
 20
200.0
 30
0.0
 40
10.0
100
AcDbArc
 50
0.0
 51
90.0
  0
LINE
  5
2E1
100
AcDbEntity
100
AcDbLine
  8
0
 62
256
370
-1
  6
ByLayer
 10
-4270.0
 20
200.0
 30
0.0
 11
-4270.0
 21
29.9999999999999858
 31
0.0
  0
ARC
  5
2E2
100
AcDbEntity
  8
0
 62
256
370
-1
  6
ByLayer
100
AcDbCircle
 10
-4280.0
 20
30.0000000000000746
 30
0.0
 40
10.0
100
AcDbArc
 50
270.0
 51
0.0
  0
CIRCLE
  5
2E3
100
AcDbEntity
100
AcDbCircle
  8
0
 62
256
370
-1
  6
ByLayer
 10
-4290.0
 20
190.0
 30
0.0
 40
2.5
  0
CIRCLE
  5
2E4
100
AcDbEntity
100
AcDbCircle
  8
0
 62
256
370
-1
  6
ByLayer
 10
-4310.0
 20
39.0
 30
0.0
 40
2.5
  0
LINE
  5
2E5
100
AcDbEntity
100
AcDbLine
  8
0
 62
256
370
-1
  6
ByLayer
 10
-4290.0
 20
44.0
 30
0.0
 11
-4290.0
 21
34.0
 31
0.0
  0
LINE
  5
2E6
100
AcDbEntity
100
AcDbLine
  8
0
 62
256
370
-1
  6
ByLayer
 10
-4285.0
 20
39.0
 30
0.0
 11
-4295.0
 21
39.0
 31
0.0
  0
LINE
  5
2E7
100
AcDbEntity
100
AcDbLine
  8
0
 62
256
370
-1
  6
ByLayer
 10
-4310.0
 20
44.0
 30
0.0
 11
-4310.0
 21
34.0
 31
0.0
  0
LINE
  5
2E8
100
AcDbEntity
100
AcDbLine
  8
0
 62
256
370
-1
  6
ByLayer
 10
-4305.0
 20
39.0
 30
0.0
 11
-4315.0
 21
39.0
 31
0.0
  0
CIRCLE
  5
2E9
100
AcDbEntity
100
AcDbCircle
  8
0
 62
256
370
-1
  6
ByLayer
 10
-4290.0
 20
39.0
 30
0.0
 40
4.0
  0
CIRCLE
  5
2EA
100
AcDbEntity
100
AcDbCircle
  8
help
 62
256
370
-1
  6
ByLayer
 10
-4290.0
 20
39.0
 30
0.0
 40
12.5
  0
CIRCLE
  5
2EB
100
AcDbEntity
100
AcDbCircle
  8
0
 62
256
370
-1
  6
ByLayer
 10
-4285.0
 20
150.0
 30
0.0
 40
2.5
  0
CIRCLE
  5
2EC
100
AcDbEntity
100
AcDbCircle
  8
0
 62
256
370
-1
  6
ByLayer
 10
-4285.0
 20
80.0
 30
0.0
 40
2.5
  0
LINE
  5
2ED
100
AcDbEntity
100
AcDbLine
  8
0
 62
256
370
-1
  6
ByLayer
 10
-4285.0
 20
155.0
 30
0.0
 11
-4285.0
 21
145.0
 31
0.0
  0
LINE
  5
2EE
100
AcDbEntity
100
AcDbLine
  8
0
 62
256
370
-1
  6
ByLayer
 10
-4280.0
 20
150.0
 30
0.0
 11
-4290.0
 21
150.0
 31
0.0
  0
LINE
  5
2EF
100
AcDbEntity
100
AcDbLine
  8
0
 62
256
370
-1
  6
ByLayer
 10
-4285.0
 20
85.0
 30
0.0
 11
-4285.0
 21
75.0
 31
0.0
  0
LINE
  5
2F0
100
AcDbEntity
100
AcDbLine
  8
0
 62
256
370
-1
  6
ByLayer
 10
-4280.0
 20
80.0
 30
0.0
 11
-4290.0
 21
80.0
 31
0.0
  0
LINE
  5
2F1
100
AcDbEntity
100
AcDbLine
  8
0
 62
256
370
-1
  6
ByLayer
 10
-4420.0
 20
210.0
 30
0.0
 11
-4280.0
 21
210.0
 31
0.0
  0
LINE
  5
2F2
100
AcDbEntity
100
AcDbLine
  8
0
 62
256
370
-1
  6
ByLayer
 10
-4280.0
 20
20.0000000000000746
 30
0.0
 11
-4420.0
 21
20.0
 31
0.0
  0
ARC
  5
2F3
100
AcDbEntity
  8
0
 62
256
370
-1
  6
ByLayer
100
AcDbCircle
 10
-4520.0
 20
200.0
 30
0.0
 40
10.0
100
AcDbArc
 50
0.0
 51
90.0
  0
LINE
  5
2F4
100
AcDbEntity
100
AcDbLine
  8
0
 62
256
370
-1
  6
ByLayer
 10
-4510.0
 20
200.0
 30
0.0
 11
-4510.0
 21
29.9999999999999858
 31
0.0
  0
ARC
  5
2F5
100
AcDbEntity
  8
0
 62
256
370
-1
  6
ByLayer
100
AcDbCircle
 10
-4520.0
 20
30.0000000000000746
 30
0.0
 40
10.0
100
AcDbArc
 50
270.0
 51
0.0
  0
LINE
  5
2F6
100
AcDbEntity
100
AcDbLine
  8
0
 62
256
370
-1
  6
ByLayer
 10
-4660.0
 20
210.0
 30
0.0
 11
-4520.0
 21
210.0
 31
0.0
  0
LINE
  5
2F7
100
AcDbEntity
100
AcDbLine
  8
0
 62
256
370
-1
  6
ByLayer
 10
-4520.0
 20
20.0000000000000746
 30
0.0
 11
-4660.0
 21
20.0
 31
0.0
  0
CIRCLE
  5
2F8
100
AcDbEntity
100
AcDbCircle
  8
0
 62
256
370
-1
  6
ByLayer
 10
-4530.0
 20
39.0
 30
0.0
 40
10.0
  0
CIRCLE
  5
2F9
100
AcDbEntity
100
AcDbCircle
  8
0
 62
256
370
-1
  6
ByLayer
 10
-4650.0
 20
39.0
 30
0.0
 40
10.0
  0
DIMENSION
  5
2FA
100
AcDbEntity
  8
dimensions
 62
256
370
-1
  6
ByLayer
100
AcDbDimension
 10
-4410.0
 20
39.0
 30
0.0
 11
0.0
 21
0.0
 31
0.0
 70
4
 71
5
 72
1
 41
1.0
 42
0.0
  1

  3
Standard
100
AcDbRadialDimension
 15
-4412.8284271247457582
 25
41.8284271247461916
 35
0.0
 40
0.0
  0
CIRCLE
  5
2FB
100
AcDbEntity
100
AcDbCircle
  8
0
 62
256
370
-1
  6
ByLayer
 10
-4650.0
 20
191.0
 30
0.0
 40
10.0
  0
CIRCLE
  5
2FC
100
AcDbEntity
100
AcDbCircle
  8
0
 62
256
370
-1
  6
ByLayer
 10
-4530.0
 20
191.0
 30
0.0
 40
10.0
  0
CIRCLE
  5
2FD
100
AcDbEntity
100
AcDbCircle
  8
0
 62
256
370
-1
  6
ByLayer
 10
-4630.0
 20
190.0
 30
0.0
 40
2.5499999999999998
  0
CIRCLE
  5
2FE
100
AcDbEntity
100
AcDbCircle
  8
0
 62
256
370
-1
  6
ByLayer
 10
-4550.0
 20
190.0
 30
0.0
 40
2.5499999999999998
  0
CIRCLE
  5
2FF
100
AcDbEntity
100
AcDbCircle
  8
0
 62
256
370
-1
  6
ByLayer
 10
-4525.0
 20
150.0
 30
0.0
 40
2.5499999999999998
  0
CIRCLE
  5
300
100
AcDbEntity
100
AcDbCircle
  8
0
 62
256
370
-1
  6
ByLayer
 10
-4585.0
 20
150.0
 30
0.0
 40
2.5499999999999998
  0
CIRCLE
  5
301
100
AcDbEntity
100
AcDbCircle
  8
0
 62
256
370
-1
  6
ByLayer
 10
-4525.0
 20
80.0
 30
0.0
 40
2.5499999999999998
  0
CIRCLE
  5
302
100
AcDbEntity
100
AcDbCircle
  8
0
 62
256
370
-1
  6
ByLayer
 10
-4585.0
 20
80.0
 30
0.0
 40
2.5499999999999998
  0
CIRCLE
  5
303
100
AcDbEntity
100
AcDbCircle
  8
0
 62
256
370
-1
  6
ByLayer
 10
-4550.0
 20
39.0
 30
0.0
 40
2.5499999999999998
  0
CIRCLE
  5
304
100
AcDbEntity
100
AcDbCircle
  8
0
 62
256
370
-1
  6
ByLayer
 10
-4630.0
 20
39.0
 30
0.0
 40
2.5499999999999998
  0
ENDSEC
  0
SECTION
  2
OBJECTS
  0
DICTIONARY
  5
C
100
AcDbDictionary
280
0
281
1
  3
ACAD_GROUP
350
D
  3
ACAD_LAYOUT
350
1A
  3
ACAD_MLINESTYLE
350
17
  3
ACAD_PLOTSETTINGS
350
19
  3
ACAD_PLOTSTYLENAME
350
E
  3
AcDbVariableDictionary
350
305
  0
DICTIONARY
  5
D
100
AcDbDictionary
280
0
281
1
  0
ACDBDICTIONARYWDFLT
  5
E
100
AcDbDictionary
281
1
  3
Normal
350
F
100
AcDbDictionaryWithDefault
340
F
  0
ACDBPLACEHOLDER
  5
F
  0
DICTIONARY
  5
17
100
AcDbDictionary
280
0
281
1
  3
Standard
350
18
  0
MLINESTYLE
  5
18
100
AcDbMlineStyle
  2
STANDARD
 70
0
  3

 62
256
 51
90.0
 52
90.0
 71
2
 49
0.5
 62
256
  6
BYLAYER
 49
-0.5
 62
256
  6
BYLAYER
  0
DICTIONARY
  5
19
100
AcDbDictionary
280
0
281
1
  0
DICTIONARY
  5
1A
100
AcDbDictionary
281
1
  3
Layout1
350
1E
  3
Layout2
350
26
  3
Model
350
22
  0
LAYOUT
  5
1E
100
AcDbPlotSettings
  1

  2
C:\Program Files\AutoCAD 2002\plotters\DWF ePlot (optimized for plotting).pc3
  4

  6

 40
0.0
 41
0.0
 42
0.0
 43
0.0
 44
0.0
 45
0.0
 46
0.0
 47
0.0
 48
0.0
 49
0.0
140
0.0
141
0.0
142
1.0
143
1.0
 70
688
 72
0
 73
0
 74
5
  7

 75
16
147
1.0
148
0.0
149
0.0
100
AcDbLayout
  1
Layout1
 70
1
 71
1
 10
0.0
 20
0.0
 11
420.0
 21
297.0
 12
0.0
 22
0.0
 32
0.0
 14
100000000000000000000.0
 24
100000000000000000000.0
 34
100000000000000000000.0
 15
-100000000000000000000.0
 25
-100000000000000000000.0
 35
-100000000000000000000.0
146
0.0
 13
0.0
 23
0.0
 33
0.0
 16
1.0
 26
0.0
 36
0.0
 17
0.0
 27
1.0
 37
0.0
 76
0
330
1B
  0
LAYOUT
  5
22
100
AcDbPlotSettings
  1

  2
C:\Program Files\AutoCAD 2002\plotters\DWF ePlot (optimized for plotting).pc3
  4

  6

 40
0.0
 41
0.0
 42
0.0
 43
0.0
 44
0.0
 45
0.0
 46
0.0
 47
0.0
 48
0.0
 49
0.0
140
0.0
141
0.0
142
1.0
143
1.0
 70
1712
 72
0
 73
0
 74
0
  7

 75
0
147
1.0
148
0.0
149
0.0
100
AcDbLayout
  1
Model
 70
1
 71
0
 10
0.0
 20
0.0
 11
12.0
 21
9.0
 12
0.0
 22
0.0
 32
0.0
 14
0.0
 24
0.0
 34
0.0
 15
0.0
 25
0.0
 35
0.0
146
0.0
 13
0.0
 23
0.0
 33
0.0
 16
1.0
 26
0.0
 36
0.0
 17
0.0
 27
1.0
 37
0.0
 76
0
330
1F
  0
LAYOUT
  5
26
100
AcDbPlotSettings
  1

  2
C:\Program Files\AutoCAD 2002\plotters\DWF ePlot (optimized for plotting).pc3
  4

  6

 40
0.0
 41
0.0
 42
0.0
 43
0.0
 44
0.0
 45
0.0
 46
0.0
 47
0.0
 48
0.0
 49
0.0
140
0.0
141
0.0
142
1.0
143
1.0
 70
688
 72
0
 73
0
 74
5
  7

 75
16
147
1.0
148
0.0
149
0.0
100
AcDbLayout
  1
Layout2
 70
1
 71
2
 10
0.0
 20
0.0
 11
12.0
 21
9.0
 12
0.0
 22
0.0
 32
0.0
 14
0.0
 24
0.0
 34
0.0
 15
0.0
 25
0.0
 35
0.0
146
0.0
 13
0.0
 23
0.0
 33
0.0
 16
1.0
 26
0.0
 36
0.0
 17
0.0
 27
1.0
 37
0.0
 76
0
330
23
  0
DICTIONARY
  5
305
100
AcDbDictionary
281
1
  3
DIMASSOC
350
307
  3
HIDETEXT
350
306
  0
DICTIONARYVAR
  5
306
100
DictionaryVariables
280
0
  1
2
  0
DICTIONARYVAR
  5
307
100
DictionaryVariables
280
0
  1
1
  0
ENDSEC
  0
EOF
